SplineFontDB: 3.2
FontName: FiraCode-Retina-Vietnamese
FullName: Fira Code Retina-Vietnamese
FamilyName: Fira Code Retina-Vietnamese
Weight: Medium
Copyright: Copyright 2014-2021 The Fira Code Project Authors (https://github.com/tonsky/FiraCode)\nFolked and modified by nitromelon (https://github.com/nitromelon)
Version: 6.002
ItalicAngle: 0
UnderlinePosition: -125
UnderlineWidth: 50
Ascent: 1560
Descent: 390
InvalidEm: 0
sfntRevision: 0x00060083
LayerCount: 2
Layer: 0 1 "N+HsEA-n" 1
Layer: 1 1 "G+HqcA-n" 0
XUID: [1021 265 1052740927 2401]
StyleMap: 0x0040
FSType: 0
OS2Version: 4
OS2_WeightWidthSlopeOnly: 0
OS2_UseTypoMetrics: 1
CreationTime: 1638550126
ModificationTime: 1733057698
PfmFamily: 81
TTFWeight: 450
TTFWidth: 5
LineGap: 0
VLineGap: 0
Panose: 0 0 0 0 0 0 0 0 0 0
OS2TypoAscent: 1800
OS2TypoAOffset: 0
OS2TypoDescent: -600
OS2TypoDOffset: 0
OS2TypoLinegap: 0
OS2WinAscent: 1800
OS2WinAOffset: 0
OS2WinDescent: 600
OS2WinDOffset: 0
HheadAscent: 1800
HheadAOffset: 0
HheadDescent: -600
HheadDOffset: 0
OS2SubXSize: 1268
OS2SubYSize: 1170
OS2SubXOff: 0
OS2SubYOff: 146
OS2SupXSize: 1268
OS2SupYSize: 1170
OS2SupXOff: 0
OS2SupYOff: 683
OS2StrikeYSize: 50
OS2StrikeYPos: 318
OS2CapHeight: 1378
OS2XHeight: 1054
OS2Vendor: 'CTDB'
OS2CodePages: 6000009f.dfd70000
OS2UnicodeRanges: e00002ef.1201f9fb.02002038.00000000
Lookup: 1 0 0 "'aalt' Truy c+Hq0A-p +AREevwAA-n m+Hs0A-i +AREe0wAA xen k+Hr0A tra t+AOwA-m 0" { "B+HqMA-ng ph+HuUA 'aalt' Truy c+Hq0A-p +AREevwAA-n m+Hs0A-i +AREe0wAA xen k+Hr0A tra t+AOwA-m 0"  } ['aalt' ('DFLT' <'dflt' > 'cyrl' <'dflt' > 'grek' <'dflt' > 'latn' <'AFK ' 'AZE ' 'CAT ' 'CRT ' 'KAZ ' 'MOL ' 'PLK ' 'ROM ' 'TAT ' 'TRK ' 'dflt' > 'zinh' <'dflt' > 'zyyy' <'dflt' > ) ]

StartChar: .notdef
Encoding: 1114112 -1 0
Width: 1200
GlyphClass: 1
Flags: W
LayerCount: 2
Fore
SplineSet
80 1478 m 1,0,-1
 1120 1478 l 1,1,-1
 1120 -104 l 1,2,-1
 80 -104 l 1,3,-1
 80 1478 l 1,0,-1
1012 0 m 1,4,-1
 1012 1374 l 1,5,-1
 190 1374 l 1,6,-1
 190 0 l 1,7,-1
 1012 0 l 1,4,-1
614 516 m 2,8,9
 614 494 614 494 598 481 c 128,-1,10
 582 468 582 468 564 468 c 0,11,12
 545 468 545 468 529.5 481 c 128,-1,13
 514 494 514 494 514 516 c 2,14,-1
 514 684 l 1,15,16
 622 690 622 690 659 724.5 c 128,-1,17
 696 759 696 759 696 838 c 0,18,19
 696 897 696 897 672.5 936.5 c 128,-1,20
 649 976 649 976 574 976 c 0,21,22
 543 976 543 976 519.5 970.5 c 128,-1,23
 496 965 496 965 470 954 c 0,24,25
 455 948 455 948 444 948 c 0,26,27
 422 948 422 948 409 961.5 c 128,-1,28
 396 975 396 975 396 994 c 0,29,30
 396 1021 396 1021 426.5 1038.5 c 128,-1,31
 457 1056 457 1056 500 1064 c 128,-1,32
 543 1072 543 1072 582 1072 c 0,33,34
 668 1072 668 1072 716.5 1039.5 c 128,-1,35
 765 1007 765 1007 784.5 954.5 c 128,-1,36
 804 902 804 902 804 842 c 0,37,38
 804 737 804 737 759.5 679 c 128,-1,39
 715 621 715 621 614 606 c 1,40,-1
 614 516 l 2,8,9
494 340 m 0,41,42
 494 370 494 370 514 390 c 128,-1,43
 534 410 534 410 564 410 c 256,44,45
 594 410 594 410 614 390 c 128,-1,46
 634 370 634 370 634 340 c 0,47,48
 634 309 634 309 614 287.5 c 128,-1,49
 594 266 594 266 564 266 c 256,50,51
 534 266 534 266 514 287.5 c 128,-1,52
 494 309 494 309 494 340 c 0,41,42
EndSplineSet
Validated: 1
EndChar

StartChar: A
Encoding: 65 65 1
Width: 1200
GlyphClass: 2
Flags: W
AnchorPoint: "Neo-1" 596 0 basechar 0
AnchorPoint: "Neo-0" 600 1378 basechar 0
LayerCount: 2
Fore
SplineSet
856 343 m 1,0,-1
 334 343 l 1,1,-1
 230 0 l 1,2,-1
 31 0 l 1,3,-1
 475 1378 l 1,4,-1
 725 1378 l 1,5,-1
 1170 0 l 1,6,-1
 960 0 l 1,7,-1
 856 343 l 1,0,-1
380 502 m 1,8,-1
 810 502 l 1,9,-1
 596 1218 l 1,10,-1
 380 502 l 1,8,-1
EndSplineSet
Validated: 1048577
Substitution2: "B+HqMA-ng ph+HuUA Thay th+Hr8A +AREBoQAA-n tra t+AOwA-m 12" ordfeminine
Substitution2: "B+HqMA-ng ph+HuUA 'aalt' Truy c+Hq0A-p +AREevwAA-n m+Hs0A-i +AREe0wAA xen k+Hr0A tra t+AOwA-m 0" ordfeminine
EndChar

StartChar: AE
Encoding: 198 198 11
Width: 1200
GlyphClass: 2
Flags: W
AnchorPoint: "Neo-1" 600 0 basechar 0
AnchorPoint: "Neo-0" 719 1378 basechar 0
LayerCount: 2
Fore
SplineSet
654 344 m 1,0,-1
 267 344 l 1,1,-1
 175 0 l 1,2,-1
 -24 0 l 1,3,-1
 371 1378 l 1,4,-1
 1132 1378 l 1,5,-1
 1109 1224 l 1,6,-1
 655 1224 l 1,7,-1
 751 776 l 1,8,-1
 1114 776 l 1,9,-1
 1114 622 l 1,10,-1
 780 622 l 1,11,-1
 878 154 l 1,12,-1
 1214 154 l 1,13,-1
 1214 0 l 1,14,-1
 723 0 l 1,15,-1
 654 344 l 1,0,-1
311 502 m 1,16,-1
 622 502 l 1,17,-1
 482 1228 l 1,18,-1
 311 502 l 1,16,-1
EndSplineSet
Validated: 1048577
EndChar

StartChar: B
Encoding: 66 66 13
Width: 1200
GlyphClass: 2
Flags: W
AnchorPoint: "Neo-1" 600 0 basechar 0
AnchorPoint: "Neo-0" 600 1378 basechar 0
LayerCount: 2
Fore
SplineSet
1089 395 m 0,0,1
 1089 281 1089 281 1044.5 205 c 128,-1,2
 1000 129 1000 129 924.5 84 c 128,-1,3
 849 39 849 39 755.5 19.5 c 128,-1,4
 662 0 662 0 564 0 c 2,5,-1
 180 0 l 1,6,-1
 180 1378 l 1,7,-1
 535 1378 l 2,8,9
 628 1378 628 1378 716 1361.5 c 128,-1,10
 804 1345 804 1345 875 1305.5 c 128,-1,11
 946 1266 946 1266 987.5 1198.5 c 128,-1,12
 1029 1131 1029 1131 1029 1030 c 0,13,14
 1029 943 1029 943 992.5 881.5 c 128,-1,15
 956 820 956 820 898 782.5 c 128,-1,16
 840 745 840 745 774 730 c 1,17,18
 849 717 849 717 921.5 682.5 c 128,-1,19
 994 648 994 648 1041.5 579.5 c 128,-1,20
 1089 511 1089 511 1089 395 c 0,0,1
827 1017 m 0,21,22
 827 1129 827 1129 757.5 1176.5 c 128,-1,23
 688 1224 688 1224 566 1224 c 2,24,-1
 378 1224 l 1,25,-1
 378 798 l 1,26,-1
 582 798 l 2,27,28
 701 798 701 798 764 849.5 c 128,-1,29
 827 901 827 901 827 1017 c 0,21,22
881 392 m 0,30,31
 881 491 881 491 842.5 545.5 c 128,-1,32
 804 600 804 600 739.5 621 c 128,-1,33
 675 642 675 642 597 642 c 2,34,-1
 378 642 l 1,35,-1
 378 159 l 1,36,-1
 588 159 l 2,37,38
 655 159 655 159 722.5 176.5 c 128,-1,39
 790 194 790 194 835.5 244 c 128,-1,40
 881 294 881 294 881 392 c 0,30,31
EndSplineSet
Validated: 1048577
EndChar

StartChar: C
Encoding: 67 67 14
Width: 1200
GlyphClass: 2
Flags: W
AnchorPoint: "Neo-1" 700 0 basechar 0
AnchorPoint: "Neo-0" 730 1378 basechar 0
LayerCount: 2
Fore
SplineSet
716 1403 m 0,0,1
 853 1403 853 1403 946.5 1368 c 128,-1,2
 1040 1333 1040 1333 1122 1266 c 1,3,-1
 1015 1140 l 1,4,5
 951 1193 951 1193 879 1217.5 c 128,-1,6
 807 1242 807 1242 728 1242 c 0,7,8
 619 1242 619 1242 527 1189 c 128,-1,9
 435 1136 435 1136 379 1015 c 128,-1,10
 323 894 323 894 323 690 c 0,11,12
 323 491 323 491 376.5 370.5 c 128,-1,13
 430 250 430 250 521.5 195.5 c 128,-1,14
 613 141 613 141 726 141 c 256,15,16
 839 141 839 141 913.5 176.5 c 128,-1,17
 988 212 988 212 1043 258 c 1,18,-1
 1142 131 l 1,19,20
 1077 67 1077 67 973.5 21 c 128,-1,21
 870 -25 870 -25 721 -25 c 0,22,23
 550 -25 550 -25 413.5 57 c 128,-1,24
 277 139 277 139 197 298.5 c 128,-1,25
 117 458 117 458 117 690 c 256,26,27
 117 922 117 922 198.5 1081 c 128,-1,28
 280 1240 280 1240 416.5 1321.5 c 128,-1,29
 553 1403 553 1403 716 1403 c 0,0,1
EndSplineSet
Validated: 1048577
EndChar

StartChar: D
Encoding: 68 68 20
Width: 1200
GlyphClass: 2
Flags: W
AnchorPoint: "Neo-2" 600 690 basechar 0
AnchorPoint: "Neo-1" 600 0 basechar 0
AnchorPoint: "Neo-0" 568 1378 basechar 0
LayerCount: 2
Fore
SplineSet
1112 696 m 256,0,1
 1112 481 1112 481 1056 344 c 128,-1,2
 1000 207 1000 207 907.5 132.5 c 128,-1,3
 815 58 815 58 704 29 c 128,-1,4
 593 0 593 0 482 0 c 2,5,-1
 157 0 l 1,6,-1
 157 1378 l 1,7,-1
 460 1378 l 2,8,9
 583 1378 583 1378 699 1351 c 128,-1,10
 815 1324 815 1324 908.5 1251.5 c 128,-1,11
 1002 1179 1002 1179 1057 1045 c 128,-1,12
 1112 911 1112 911 1112 696 c 256,0,1
902 696 m 0,13,14
 902 869 902 869 866.5 974 c 128,-1,15
 831 1079 831 1079 772 1132 c 128,-1,16
 713 1185 713 1185 642.5 1203 c 128,-1,17
 572 1221 572 1221 502 1221 c 2,18,-1
 355 1221 l 1,19,-1
 355 155 l 1,20,-1
 504 155 l 2,21,22
 577 155 577 155 648 178 c 128,-1,23
 719 201 719 201 776.5 260 c 128,-1,24
 834 319 834 319 868 425 c 128,-1,25
 902 531 902 531 902 696 c 0,13,14
EndSplineSet
Validated: 1
EndChar

StartChar: Eth
Encoding: 208 208 21
Width: 1200
GlyphClass: 2
Flags: W
AnchorPoint: "Neo-2" 620 690 basechar 0
AnchorPoint: "Neo-1" 620 0 basechar 0
AnchorPoint: "Neo-0" 588 1378 basechar 0
LayerCount: 2
Fore
SplineSet
1132 696 m 256,0,1
 1132 481 1132 481 1076 344 c 128,-1,2
 1020 207 1020 207 927.5 132.5 c 128,-1,3
 835 58 835 58 724 29 c 128,-1,4
 613 0 613 0 502 0 c 2,5,-1
 177 0 l 1,6,-1
 177 634 l 1,7,-1
 37 634 l 1,8,-1
 37 778 l 1,9,-1
 177 778 l 1,10,-1
 177 1378 l 1,11,-1
 480 1378 l 2,12,13
 603 1378 603 1378 719.5 1351 c 128,-1,14
 836 1324 836 1324 929 1251.5 c 128,-1,15
 1022 1179 1022 1179 1077 1045 c 128,-1,16
 1132 911 1132 911 1132 696 c 256,0,1
679 778 m 1,17,-1
 679 634 l 1,18,-1
 375 634 l 1,19,-1
 375 155 l 1,20,-1
 524 155 l 2,21,22
 597 155 597 155 668 178 c 128,-1,23
 739 201 739 201 796.5 260 c 128,-1,24
 854 319 854 319 888 425 c 128,-1,25
 922 531 922 531 922 696 c 0,26,27
 922 869 922 869 886.5 974 c 128,-1,28
 851 1079 851 1079 792.5 1132 c 128,-1,29
 734 1185 734 1185 663 1203 c 128,-1,30
 592 1221 592 1221 522 1221 c 2,31,-1
 375 1221 l 1,32,-1
 375 778 l 1,33,-1
 679 778 l 1,17,-1
EndSplineSet
Validated: 1
EndChar

StartChar: E
Encoding: 69 69 24
Width: 1200
GlyphClass: 2
Flags: W
AnchorPoint: "Neo-1" 649 0 basechar 0
AnchorPoint: "Neo-0" 642 1378 basechar 0
LayerCount: 2
Fore
SplineSet
439 1222 m 1,0,-1
 439 779 l 1,1,-1
 945 779 l 1,2,-1
 945 622 l 1,3,-1
 439 622 l 1,4,-1
 439 155 l 1,5,-1
 1058 155 l 1,6,-1
 1058 0 l 1,7,-1
 240 0 l 1,8,-1
 240 1378 l 1,9,-1
 1043 1378 l 1,10,-1
 1020 1222 l 1,11,-1
 439 1222 l 1,0,-1
EndSplineSet
Validated: 1048577
EndChar

StartChar: F
Encoding: 70 70 34
Width: 1200
GlyphClass: 2
Flags: W
AnchorPoint: "Neo-1" 600 0 basechar 0
AnchorPoint: "Neo-0" 600 1378 basechar 0
LayerCount: 2
Fore
SplineSet
465 1222 m 1,0,-1
 465 758 l 1,1,-1
 996 758 l 1,2,-1
 996 603 l 1,3,-1
 465 603 l 1,4,-1
 465 0 l 1,5,-1
 267 0 l 1,6,-1
 267 1378 l 1,7,-1
 1094 1378 l 1,8,-1
 1071 1222 l 1,9,-1
 465 1222 l 1,0,-1
EndSplineSet
Validated: 1048577
Substitution2: "B+HqMA-ng ph+HuUA Thay th+Hr8A +AREBoQAA-n tra t+AOwA-m 344" F.spacer
Substitution2: "B+HqMA-ng ph+HuUA 'aalt' Truy c+Hq0A-p +AREevwAA-n m+Hs0A-i +AREe0wAA xen k+Hr0A tra t+AOwA-m 0" F.spacer
EndChar

StartChar: G
Encoding: 71 71 35
Width: 1200
GlyphClass: 2
Flags: W
AnchorPoint: "Neo-1" 660 0 basechar 0
AnchorPoint: "Neo-0" 660 1378 basechar 0
LayerCount: 2
Fore
SplineSet
631 -25 m 0,0,1
 378 -25 378 -25 231 154 c 128,-1,2
 84 333 84 333 84 690 c 0,3,4
 84 868 84 868 132 1001.5 c 128,-1,5
 180 1135 180 1135 262.5 1224.5 c 128,-1,6
 345 1314 345 1314 450.5 1358.5 c 128,-1,7
 556 1403 556 1403 671 1403 c 0,8,9
 808 1403 808 1403 899.5 1363 c 128,-1,10
 991 1323 991 1323 1072 1248 c 1,11,-1
 956 1128 l 1,12,13
 833 1242 833 1242 674 1242 c 0,14,15
 576 1242 576 1242 489 1190 c 128,-1,16
 402 1138 402 1138 348 1017 c 128,-1,17
 294 896 294 896 294 690 c 0,18,19
 294 395 294 395 383 265.5 c 128,-1,20
 472 136 472 136 645 136 c 0,21,22
 777 136 777 136 892 199 c 1,23,-1
 892 602 l 1,24,-1
 637 602 l 1,25,-1
 614 760 l 1,26,-1
 1087 760 l 1,27,-1
 1087 98 l 1,28,29
 992 45 992 45 884.5 10 c 128,-1,30
 777 -25 777 -25 631 -25 c 0,0,1
EndSplineSet
Validated: 1048577
EndChar

StartChar: H
Encoding: 72 72 40
Width: 1200
GlyphClass: 2
Flags: W
HStem: 0 21G<157 355 845 1043> 642 163<355 845> 1358 20G<157 355 845 1043>
VStem: 157 198<0 642 805 1378> 845 198<0 642 805 1378>
AnchorPoint: "Neo-2" 600 690 basechar 0
AnchorPoint: "Neo-1" 600 0 basechar 0
AnchorPoint: "Neo-0" 600 1378 basechar 0
LayerCount: 2
Fore
SplineSet
845 0 m 1,0,-1
 845 642 l 1,1,-1
 355 642 l 1,2,-1
 355 0 l 1,3,-1
 157 0 l 1,4,-1
 157 1378 l 1,5,-1
 355 1378 l 1,6,-1
 355 805 l 1,7,-1
 845 805 l 1,8,-1
 845 1378 l 1,9,-1
 1043 1378 l 1,10,-1
 1043 0 l 1,11,-1
 845 0 l 1,0,-1
EndSplineSet
Validated: 1
EndChar

StartChar: Hbar
Encoding: 294 294 41
Width: 1200
GlyphClass: 1
Flags: W
LayerCount: 2
Fore
SplineSet
1196 1156 m 1,0,-1
 1196 1015 l 1,1,-1
 1043 1015 l 1,2,-1
 1043 0 l 1,3,-1
 844 0 l 1,4,-1
 844 643 l 1,5,-1
 356 643 l 1,6,-1
 356 0 l 1,7,-1
 157 0 l 1,8,-1
 157 1015 l 1,9,-1
 4 1015 l 1,10,-1
 4 1156 l 1,11,-1
 157 1156 l 1,12,-1
 157 1378 l 1,13,-1
 356 1378 l 1,14,-1
 356 1156 l 1,15,-1
 844 1156 l 1,16,-1
 844 1378 l 1,17,-1
 1043 1378 l 1,18,-1
 1043 1156 l 1,19,-1
 1196 1156 l 1,0,-1
356 805 m 1,20,-1
 844 805 l 1,21,-1
 844 1015 l 1,22,-1
 356 1015 l 1,23,-1
 356 805 l 1,20,-1
EndSplineSet
Validated: 1
EndChar

StartChar: I
Encoding: 73 73 43
Width: 1200
GlyphClass: 2
Flags: W
HStem: 0 156<197 500 700 1003> 1223 155<197 500 700 1003>
VStem: 500 200<156 1223>
AnchorPoint: "Neo-1" 600 0 basechar 0
AnchorPoint: "Neo-0" 600 1378 basechar 0
LayerCount: 2
Fore
SplineSet
1003 1378 m 1,0,-1
 1003 1223 l 1,1,-1
 700 1223 l 1,2,-1
 700 156 l 1,3,-1
 1003 156 l 1,4,-1
 1003 0 l 1,5,-1
 197 0 l 1,6,-1
 197 156 l 1,7,-1
 500 156 l 1,8,-1
 500 1223 l 1,9,-1
 197 1223 l 1,10,-1
 197 1378 l 1,11,-1
 1003 1378 l 1,0,-1
EndSplineSet
Validated: 1048577
EndChar

StartChar: IJ
Encoding: 306 306 44
Width: 1200
GlyphClass: 1
Flags: W
LayerCount: 2
Fore
SplineSet
385 -142 m 1,0,1
 585 -121 585 -121 690.5 -54 c 128,-1,2
 796 13 796 13 835.5 122 c 128,-1,3
 875 231 875 231 875 377 c 2,4,-1
 875 1225 l 1,5,-1
 411 1225 l 1,6,-1
 411 153 l 1,7,-1
 562 153 l 1,8,-1
 562 0 l 1,9,-1
 22 0 l 1,10,-1
 22 153 l 1,11,-1
 213 153 l 1,12,-1
 213 1225 l 1,13,-1
 22 1225 l 1,14,-1
 22 1378 l 1,15,-1
 1073 1378 l 1,16,-1
 1073 370 l 2,17,18
 1073 250 1073 250 1043 140 c 128,-1,19
 1013 30 1013 30 939.5 -59 c 128,-1,20
 866 -148 866 -148 736.5 -207.5 c 128,-1,21
 607 -267 607 -267 408 -287 c 1,22,-1
 385 -142 l 1,0,1
EndSplineSet
Validated: 1
EndChar

StartChar: J
Encoding: 74 74 54
Width: 1200
GlyphClass: 2
Flags: W
AnchorPoint: "Neo-1" 600 0 basechar 0
AnchorPoint: "Neo-0" 700 1378 basechar 0
LayerCount: 2
Fore
SplineSet
1003 1378 m 1,0,-1
 1003 464 l 2,1,2
 1003 372 1003 372 978 285 c 128,-1,3
 953 198 953 198 896.5 128 c 128,-1,4
 840 58 840 58 747 17 c 128,-1,5
 654 -24 654 -24 519 -24 c 0,6,7
 305 -24 305 -24 134 102 c 1,8,-1
 219 231 l 1,9,10
 305 175 305 175 377.5 156 c 128,-1,11
 450 137 450 137 514 137 c 0,12,13
 651 137 651 137 728 225.5 c 128,-1,14
 805 314 805 314 805 472 c 2,15,-1
 805 1221 l 1,16,-1
 394 1221 l 1,17,-1
 394 1378 l 1,18,-1
 1003 1378 l 1,0,-1
EndSplineSet
Validated: 1048577
EndChar

StartChar: K
Encoding: 75 75 56
Width: 1200
GlyphClass: 2
Flags: W
AnchorPoint: "Neo-1" 638 0 basechar 0
AnchorPoint: "Neo-0" 645 1378 basechar 0
LayerCount: 2
Fore
SplineSet
393 0 m 1,0,-1
 195 0 l 1,1,-1
 195 1378 l 1,2,-1
 393 1378 l 1,3,-1
 393 0 l 1,0,-1
403 736 m 1,4,-1
 919 1378 l 1,5,-1
 1142 1378 l 1,6,-1
 628 749 l 1,7,-1
 1180 0 l 1,8,-1
 938 0 l 1,9,-1
 403 736 l 1,4,-1
EndSplineSet
Validated: 1048577
EndChar

StartChar: L
Encoding: 76 76 58
Width: 1200
GlyphClass: 2
Flags: W
HStem: 0 172<456 1058> 1358 20G<257 456>
VStem: 257 199<172 1378>
AnchorPoint: "Neo-2" 941 761 basechar 0
AnchorPoint: "Neo-1" 658 0 basechar 0
AnchorPoint: "Neo-0" 358 1378 basechar 0
LayerCount: 2
Fore
SplineSet
257 0 m 1,0,-1
 257 1378 l 1,1,-1
 456 1378 l 1,2,-1
 456 172 l 1,3,-1
 1080 172 l 1,4,-1
 1058 0 l 1,5,-1
 257 0 l 1,0,-1
EndSplineSet
Validated: 1
EndChar

StartChar: Lslash
Encoding: 321 321 63
Width: 1200
GlyphClass: 2
Flags: W
AnchorPoint: "Neo-2" 943 761 basechar 0
AnchorPoint: "Neo-1" 660 0 basechar 0
AnchorPoint: "Neo-0" 360 1378 basechar 0
LayerCount: 2
Fore
SplineSet
259 0 m 1,0,-1
 259 524 l 1,1,-1
 148 455 l 1,2,-1
 71 578 l 1,3,-1
 259 694 l 1,4,-1
 259 1378 l 1,5,-1
 458 1378 l 1,6,-1
 458 818 l 1,7,-1
 773 1013 l 1,8,-1
 853 892 l 1,9,-1
 458 647 l 1,10,-1
 458 172 l 1,11,-1
 1082 172 l 1,12,-1
 1060 0 l 1,13,-1
 259 0 l 1,0,-1
EndSplineSet
Validated: 1
EndChar

StartChar: M
Encoding: 77 77 64
Width: 1200
GlyphClass: 2
Flags: W
AnchorPoint: "Neo-1" 600 0 basechar 0
AnchorPoint: "Neo-0" 600 1378 basechar 0
LayerCount: 2
Fore
SplineSet
1065 1378 m 1,0,-1
 1143 0 l 1,1,-1
 957 0 l 1,2,-1
 918 699 l 2,3,4
 913 797 913 797 911 894 c 128,-1,5
 909 991 909 991 909.5 1071.5 c 128,-1,6
 910 1152 910 1152 912 1200 c 1,7,-1
 692 245 l 1,8,-1
 506 245 l 1,9,-1
 270 1200 l 1,10,11
 273 1154 273 1154 274.5 1070 c 128,-1,12
 276 986 276 986 275.5 887.5 c 128,-1,13
 275 789 275 789 272 699 c 2,14,-1
 239 0 l 1,15,-1
 57 0 l 1,16,-1
 135 1378 l 1,17,-1
 392 1378 l 1,18,-1
 604 443 l 1,19,-1
 806 1378 l 1,20,-1
 1065 1378 l 1,0,-1
EndSplineSet
Validated: 1048609
EndChar

StartChar: N
Encoding: 78 78 65
Width: 1200
GlyphClass: 2
Flags: W
AnchorPoint: "Neo-1" 600 0 basechar 0
AnchorPoint: "Neo-0" 601 1378 basechar 0
LayerCount: 2
Fore
SplineSet
775 0 m 1,0,-1
 310 1195 l 1,1,2
 312 1160 312 1160 318.5 1075.5 c 128,-1,3
 325 991 325 991 331 881.5 c 128,-1,4
 337 772 337 772 337 663 c 2,5,-1
 337 0 l 1,6,-1
 157 0 l 1,7,-1
 157 1378 l 1,8,-1
 420 1378 l 1,9,-1
 890 180 l 1,10,11
 888 214 888 214 881 293.5 c 128,-1,12
 874 373 874 373 868.5 482 c 128,-1,13
 863 591 863 591 863 715 c 2,14,-1
 863 1378 l 1,15,-1
 1043 1378 l 1,16,-1
 1043 0 l 1,17,-1
 775 0 l 1,0,-1
EndSplineSet
Validated: 1048577
EndChar

StartChar: Eng
Encoding: 330 330 70
Width: 1200
GlyphClass: 2
Flags: W
AnchorPoint: "Neo-1" 600 0 basechar 0
AnchorPoint: "Neo-0" 601 1378 basechar 0
LayerCount: 2
Fore
SplineSet
775 0 m 1,0,-1
 310 1195 l 1,1,2
 312 1160 312 1160 318.5 1075.5 c 128,-1,3
 325 991 325 991 331 881.5 c 128,-1,4
 337 772 337 772 337 663 c 2,5,-1
 337 0 l 1,6,-1
 157 0 l 1,7,-1
 157 1378 l 1,8,-1
 420 1378 l 1,9,-1
 890 180 l 1,10,11
 888 214 888 214 881 293.5 c 128,-1,12
 874 373 874 373 868.5 482 c 128,-1,13
 863 591 863 591 863 715 c 2,14,-1
 863 1378 l 1,15,-1
 1043 1378 l 1,16,-1
 1043 -112 l 2,17,18
 1043 -271 1043 -271 959.5 -350.5 c 128,-1,19
 876 -430 876 -430 735 -430 c 0,20,21
 655 -430 655 -430 598 -406 c 128,-1,22
 541 -382 541 -382 503 -353 c 1,23,-1
 577 -227 l 1,24,25
 612 -247 612 -247 643.5 -259.5 c 128,-1,26
 675 -272 675 -272 724 -272 c 0,27,28
 782 -272 782 -272 813.5 -237 c 128,-1,29
 845 -202 845 -202 845 -125 c 2,30,-1
 845 0 l 1,31,-1
 775 0 l 1,0,-1
EndSplineSet
Validated: 1048577
EndChar

StartChar: O
Encoding: 79 79 71
Width: 1200
GlyphClass: 2
Flags: W
AnchorPoint: "Neo-1" 600 0 basechar 0
AnchorPoint: "Neo-0" 600 1378 basechar 0
LayerCount: 2
Fore
SplineSet
1115 688 m 0,0,1
 1115 478 1115 478 1057 317 c 128,-1,2
 999 156 999 156 884.5 65.5 c 128,-1,3
 770 -25 770 -25 600 -25 c 256,4,5
 430 -25 430 -25 315.5 63.5 c 128,-1,6
 201 152 201 152 143 312 c 128,-1,7
 85 472 85 472 85 686 c 0,8,9
 85 897 85 897 143 1058.5 c 128,-1,10
 201 1220 201 1220 315.5 1311.5 c 128,-1,11
 430 1403 430 1403 600 1403 c 256,12,13
 770 1403 770 1403 884.5 1314 c 128,-1,14
 999 1225 999 1225 1057 1064 c 128,-1,15
 1115 903 1115 903 1115 688 c 0,0,1
908 688 m 0,16,17
 908 960 908 960 836.5 1101 c 128,-1,18
 765 1242 765 1242 600 1242 c 256,19,20
 435 1242 435 1242 363.5 1100 c 128,-1,21
 292 958 292 958 292 686 c 0,22,23
 292 415 292 415 365.5 275.5 c 128,-1,24
 439 136 439 136 600 136 c 0,25,26
 765 136 765 136 836.5 276.5 c 128,-1,27
 908 417 908 417 908 688 c 0,16,17
EndSplineSet
Validated: 1048577
Substitution2: "B+HqMA-ng ph+HuUA Thay th+Hr8A +AREBoQAA-n tra t+AOwA-m 12" ordmasculine
Substitution2: "B+HqMA-ng ph+HuUA 'aalt' Truy c+Hq0A-p +AREevwAA-n m+Hs0A-i +AREe0wAA xen k+Hr0A tra t+AOwA-m 0" ordmasculine
EndChar

StartChar: Oslash
Encoding: 216 216 79
Width: 1200
GlyphClass: 2
Flags: W
AnchorPoint: "Neo-1" 600 0 basechar 0
AnchorPoint: "Neo-0" 600 1378 basechar 0
LayerCount: 2
Fore
SplineSet
600 1403 m 0,0,1
 666 1403 666 1403 725 1388 c 1,2,-1
 788 1606 l 1,3,-1
 950 1563 l 1,4,-1
 875 1319 l 1,5,6
 993 1233 993 1233 1054 1070 c 128,-1,7
 1115 907 1115 907 1115 688 c 0,8,9
 1115 478 1115 478 1057 317 c 128,-1,10
 999 156 999 156 884.5 65.5 c 128,-1,11
 770 -25 770 -25 600 -25 c 0,12,13
 535 -25 535 -25 477 -11 c 1,14,-1
 414 -220 l 1,15,-1
 252 -176 l 1,16,-1
 325 58 l 1,17,18
 207 143 207 143 146 305.5 c 128,-1,19
 85 468 85 468 85 686 c 0,20,21
 85 897 85 897 143 1058.5 c 128,-1,22
 201 1220 201 1220 315.5 1311.5 c 128,-1,23
 430 1403 430 1403 600 1403 c 0,0,1
600 1242 m 0,24,25
 435 1242 435 1242 363 1100 c 128,-1,26
 291 958 291 958 291 686 c 0,27,28
 291 334 291 334 398 215 c 1,29,-1
 692 1231 l 1,30,31
 651 1242 651 1242 600 1242 c 0,24,25
909 688 m 0,32,33
 909 1047 909 1047 803 1165 c 1,34,-1
 508 147 l 1,35,36
 549 136 549 136 600 136 c 0,37,38
 766 136 766 136 837.5 276 c 128,-1,39
 909 416 909 416 909 688 c 0,32,33
EndSplineSet
Validated: 1048577
EndChar

StartChar: OE
Encoding: 338 338 82
Width: 1200
GlyphClass: 2
Flags: W
AnchorPoint: "Neo-1" 600 0 basechar 0
AnchorPoint: "Neo-0" 600 1378 basechar 0
LayerCount: 2
Fore
SplineSet
427 1403 m 0,0,1
 503 1403 503 1403 578 1378 c 1,2,-1
 1213 1378 l 1,3,-1
 1190 1224 l 1,4,-1
 723 1224 l 1,5,6
 774 1158 774 1158 805 1048 c 128,-1,7
 836 938 836 938 844 776 c 1,8,-1
 1140 776 l 1,9,-1
 1140 622 l 1,10,-1
 844 622 l 1,11,12
 839 454 839 454 805.5 339.5 c 128,-1,13
 772 225 772 225 715 154 c 1,14,-1
 1228 154 l 1,15,-1
 1228 0 l 1,16,-1
 572 0 l 1,17,18
 537 -11 537 -11 502.5 -18 c 128,-1,19
 468 -25 468 -25 427 -25 c 0,20,21
 210 -25 210 -25 105.5 155.5 c 128,-1,22
 1 336 1 336 1 686 c 0,23,24
 1 1031 1 1031 106.5 1217 c 128,-1,25
 212 1403 212 1403 427 1403 c 0,0,1
428 1247 m 0,26,27
 311 1247 311 1247 256.5 1117.5 c 128,-1,28
 202 988 202 988 202 686 c 0,29,30
 202 385 202 385 258.5 257.5 c 128,-1,31
 315 130 315 130 428 130 c 0,32,33
 547 130 547 130 602 258.5 c 128,-1,34
 657 387 657 387 657 688 c 0,35,36
 657 990 657 990 603.5 1118.5 c 128,-1,37
 550 1247 550 1247 428 1247 c 0,26,27
EndSplineSet
Validated: 1048577
EndChar

StartChar: P
Encoding: 80 80 83
Width: 1200
GlyphClass: 2
Flags: W
AnchorPoint: "Neo-1" 600 0 basechar 0
AnchorPoint: "Neo-0" 600 1378 basechar 0
LayerCount: 2
Fore
SplineSet
1120 951 m 0,0,1
 1120 790 1120 790 1051.5 691.5 c 128,-1,2
 983 593 983 593 862 548 c 128,-1,3
 741 503 741 503 585 503 c 2,4,-1
 413 503 l 1,5,-1
 413 0 l 1,6,-1
 214 0 l 1,7,-1
 214 1378 l 1,8,-1
 579 1378 l 2,9,10
 831 1378 831 1378 975.5 1273.5 c 128,-1,11
 1120 1169 1120 1169 1120 951 c 0,0,1
910 949 m 0,12,13
 910 1101 910 1101 822.5 1163 c 128,-1,14
 735 1225 735 1225 598 1225 c 2,15,-1
 413 1225 l 1,16,-1
 413 659 l 1,17,-1
 595 659 l 2,18,19
 687 659 687 659 758 685 c 128,-1,20
 829 711 829 711 869.5 774 c 128,-1,21
 910 837 910 837 910 949 c 0,12,13
EndSplineSet
Validated: 1048577
EndChar

StartChar: Thorn
Encoding: 222 222 84
Width: 1200
GlyphClass: 2
Flags: W
AnchorPoint: "Neo-1" 600 0 basechar 0
AnchorPoint: "Neo-0" 600 1378 basechar 0
LayerCount: 2
Fore
SplineSet
397 1378 m 1,0,-1
 397 1147 l 1,1,-1
 581 1147 l 2,2,3
 835 1147 835 1147 976.5 1040.5 c 128,-1,4
 1118 934 1118 934 1118 710 c 0,5,6
 1118 549 1118 549 1050.5 448 c 128,-1,7
 983 347 983 347 863.5 300 c 128,-1,8
 744 253 744 253 587 253 c 2,9,-1
 397 253 l 1,10,-1
 397 0 l 1,11,-1
 199 0 l 1,12,-1
 199 1378 l 1,13,-1
 397 1378 l 1,0,-1
600 994 m 2,14,-1
 397 994 l 1,15,-1
 397 408 l 1,16,-1
 603 408 l 2,17,18
 694 408 694 408 763 434.5 c 128,-1,19
 832 461 832 461 871 526 c 128,-1,20
 910 591 910 591 910 706 c 0,21,22
 910 860 910 860 825 927 c 128,-1,23
 740 994 740 994 600 994 c 2,14,-1
EndSplineSet
Validated: 1048577
EndChar

StartChar: Q
Encoding: 81 81 85
Width: 1200
GlyphClass: 2
Flags: W
AnchorPoint: "Neo-1" 600 0 basechar 0
AnchorPoint: "Neo-0" 600 1378 basechar 0
LayerCount: 2
Fore
SplineSet
1114 688 m 0,0,1
 1114 471 1114 471 1050.5 307.5 c 128,-1,2
 987 144 987 144 828 57 c 1,3,4
 976 29 976 29 1061.5 -44 c 128,-1,5
 1147 -117 1147 -117 1198 -271 c 1,6,-1
 1002 -346 l 1,7,8
 960 -240 960 -240 907.5 -167.5 c 128,-1,9
 855 -95 855 -95 777 -57.5 c 128,-1,10
 699 -20 699 -20 580 -20 c 0,11,12
 419 -20 419 -20 309 67 c 128,-1,13
 199 154 199 154 143 313 c 128,-1,14
 87 472 87 472 87 686 c 0,15,16
 87 897 87 897 144.5 1058.5 c 128,-1,17
 202 1220 202 1220 316.5 1311.5 c 128,-1,18
 431 1403 431 1403 600 1403 c 0,19,20
 770 1403 770 1403 884.5 1314 c 128,-1,21
 999 1225 999 1225 1056.5 1064 c 128,-1,22
 1114 903 1114 903 1114 688 c 0,0,1
908 688 m 0,23,24
 908 960 908 960 836.5 1101 c 128,-1,25
 765 1242 765 1242 600 1242 c 256,26,27
 435 1242 435 1242 364 1100 c 128,-1,28
 293 958 293 958 293 686 c 0,29,30
 293 415 293 415 366.5 275.5 c 128,-1,31
 440 136 440 136 600 136 c 0,32,33
 765 136 765 136 836.5 276.5 c 128,-1,34
 908 417 908 417 908 688 c 0,23,24
EndSplineSet
Validated: 1048577
EndChar

StartChar: R
Encoding: 82 82 86
Width: 1200
GlyphClass: 2
Flags: W
AnchorPoint: "Neo-1" 601 0 basechar 0
AnchorPoint: "Neo-0" 600 1378 basechar 0
LayerCount: 2
Fore
SplineSet
1083 987 m 0,0,1
 1083 832 1083 832 988.5 737.5 c 128,-1,2
 894 643 894 643 756 607 c 1,3,-1
 1157 0 l 1,4,-1
 922 0 l 1,5,-1
 559 581 l 1,6,-1
 388 581 l 1,7,-1
 388 0 l 1,8,-1
 189 0 l 1,9,-1
 189 1378 l 1,10,-1
 556 1378 l 2,11,12
 815 1378 815 1378 949 1279.5 c 128,-1,13
 1083 1181 1083 1181 1083 987 c 0,0,1
872 987 m 0,14,15
 872 1114 872 1114 798.5 1170 c 128,-1,16
 725 1226 725 1226 573 1226 c 2,17,-1
 388 1226 l 1,18,-1
 388 732 l 1,19,-1
 575 732 l 2,20,21
 717 732 717 732 794.5 790.5 c 128,-1,22
 872 849 872 849 872 987 c 0,14,15
EndSplineSet
Validated: 1048577
EndChar

StartChar: S
Encoding: 83 83 90
Width: 1200
GlyphClass: 2
Flags: W
AnchorPoint: "Neo-1" 594 0 basechar 0
AnchorPoint: "Neo-0" 612 1378 basechar 0
LayerCount: 2
Fore
SplineSet
1083 385 m 0,0,1
 1083 265 1083 265 1022.5 172.5 c 128,-1,2
 962 80 962 80 847.5 27.5 c 128,-1,3
 733 -25 733 -25 570 -25 c 0,4,5
 412 -25 412 -25 288 23 c 128,-1,6
 164 71 164 71 77 155 c 1,7,-1
 190 282 l 1,8,9
 262 215 262 215 355 176 c 128,-1,10
 448 137 448 137 572 137 c 0,11,12
 653 137 653 137 722.5 163.5 c 128,-1,13
 792 190 792 190 834.5 243.5 c 128,-1,14
 877 297 877 297 877 378 c 0,15,16
 877 442 877 442 851.5 487.5 c 128,-1,17
 826 533 826 533 762 568 c 128,-1,18
 698 603 698 603 583 637 c 0,19,20
 443 678 443 678 343.5 730.5 c 128,-1,21
 244 783 244 783 191.5 857.5 c 128,-1,22
 139 932 139 932 139 1041 c 0,23,24
 139 1148 139 1148 198 1229.5 c 128,-1,25
 257 1311 257 1311 360 1357 c 128,-1,26
 463 1403 463 1403 597 1403 c 0,27,28
 742 1403 742 1403 850.5 1361 c 128,-1,29
 959 1319 959 1319 1046 1242 c 1,30,-1
 936 1118 l 1,31,32
 862 1183 862 1183 777.5 1212.5 c 128,-1,33
 693 1242 693 1242 606 1242 c 0,34,35
 496 1242 496 1242 419 1194.5 c 128,-1,36
 342 1147 342 1147 342 1050 c 0,37,38
 342 992 342 992 373 951.5 c 128,-1,39
 404 911 404 911 477.5 877 c 128,-1,40
 551 843 551 843 679 805 c 0,41,42
 790 772 790 772 881.5 724.5 c 128,-1,43
 973 677 973 677 1028 596.5 c 128,-1,44
 1083 516 1083 516 1083 385 c 0,0,1
EndSplineSet
Validated: 1048577
EndChar

StartChar: uni1E9E
Encoding: 7838 7838 96
Width: 1200
GlyphClass: 1
Flags: W
LayerCount: 2
Fore
SplineSet
576 1415 m 0,0,1
 724 1415 724 1415 847 1375 c 128,-1,2
 970 1335 970 1335 1081 1277 c 1,3,-1
 1081 1171 l 1,4,-1
 732 789 l 1,5,6
 942 764 942 764 1055.5 667.5 c 128,-1,7
 1169 571 1169 571 1169 392 c 0,8,9
 1169 263 1169 263 1112.5 172.5 c 128,-1,10
 1056 82 1056 82 957 34.5 c 128,-1,11
 858 -13 858 -13 730 -13 c 0,12,13
 653 -13 653 -13 592 0.5 c 128,-1,14
 531 14 531 14 489 36 c 1,15,-1
 548 169 l 1,16,17
 580 157 580 157 618.5 148.5 c 128,-1,18
 657 140 657 140 711 140 c 0,19,20
 828 140 828 140 897.5 203 c 128,-1,21
 967 266 967 266 967 394 c 0,22,23
 967 533 967 533 865 600 c 128,-1,24
 763 667 763 667 555 679 c 1,25,-1
 555 804 l 1,26,-1
 901 1192 l 1,27,28
 830 1223 830 1223 752.5 1243.5 c 128,-1,29
 675 1264 675 1264 585 1264 c 0,30,31
 460 1264 460 1264 393.5 1198.5 c 128,-1,32
 327 1133 327 1133 327 992 c 2,33,-1
 327 13 l 1,34,-1
 133 13 l 1,35,-1
 133 992 l 2,36,37
 133 1192 133 1192 248 1303.5 c 128,-1,38
 363 1415 363 1415 576 1415 c 0,0,1
EndSplineSet
Validated: 1
EndChar

StartChar: T
Encoding: 84 84 97
Width: 1200
GlyphClass: 2
Flags: W
HStem: 0 21G<498 696> 1213 165<74 498 696 1106>
VStem: 498 198<0 1213>
AnchorPoint: "Neo-2" 600 690 basechar 0
AnchorPoint: "Neo-1" 598 0 basechar 0
AnchorPoint: "Neo-0" 598 1378 basechar 0
LayerCount: 2
Fore
SplineSet
696 1213 m 1,0,-1
 696 0 l 1,1,-1
 498 0 l 1,2,-1
 498 1213 l 1,3,-1
 74 1213 l 1,4,-1
 74 1378 l 1,5,-1
 1127 1378 l 1,6,-1
 1106 1213 l 1,7,-1
 696 1213 l 1,0,-1
EndSplineSet
Validated: 1
Substitution2: "B+HqMA-ng ph+HuUA Thay th+Hr8A +AREBoQAA-n tra t+AOwA-m 342" T.spacer
Substitution2: "B+HqMA-ng ph+HuUA 'aalt' Truy c+Hq0A-p +AREevwAA-n m+Hs0A-i +AREe0wAA xen k+Hr0A tra t+AOwA-m 0" T.spacer
EndChar

StartChar: Tbar
Encoding: 358 358 98
Width: 1200
GlyphClass: 2
Flags: W
AnchorPoint: "Neo-2" 600 690 basechar 0
AnchorPoint: "Neo-1" 598 0 basechar 0
AnchorPoint: "Neo-0" 598 1378 basechar 0
LayerCount: 2
Fore
SplineSet
241 688 m 1,0,-1
 241 831 l 1,1,-1
 498 831 l 1,2,-1
 498 1213 l 1,3,-1
 74 1213 l 1,4,-1
 74 1378 l 1,5,-1
 1127 1378 l 1,6,-1
 1106 1213 l 1,7,-1
 696 1213 l 1,8,-1
 696 831 l 1,9,-1
 955 831 l 1,10,-1
 955 688 l 1,11,-1
 696 688 l 1,12,-1
 696 0 l 1,13,-1
 498 0 l 1,14,-1
 498 688 l 1,15,-1
 241 688 l 1,0,-1
EndSplineSet
Validated: 1
EndChar

StartChar: U
Encoding: 85 85 102
Width: 1200
GlyphClass: 2
Flags: W
AnchorPoint: "Neo-1" 600 0 basechar 0
AnchorPoint: "Neo-0" 600 1378 basechar 0
LayerCount: 2
Fore
SplineSet
1065 1378 m 1,0,-1
 1065 449 l 2,1,2
 1065 309 1065 309 1008.5 202 c 128,-1,3
 952 95 952 95 847.5 35 c 128,-1,4
 743 -25 743 -25 598 -25 c 0,5,6
 452 -25 452 -25 348 35 c 128,-1,7
 244 95 244 95 189.5 202 c 128,-1,8
 135 309 135 309 135 449 c 2,9,-1
 135 1378 l 1,10,-1
 333 1378 l 1,11,-1
 333 464 l 2,12,13
 333 140 333 140 598 140 c 0,14,15
 865 140 865 140 865 464 c 2,16,-1
 865 1378 l 1,17,-1
 1065 1378 l 1,0,-1
EndSplineSet
Validated: 1048577
EndChar

StartChar: V
Encoding: 86 86 113
Width: 1200
GlyphClass: 2
Flags: W
AnchorPoint: "Neo-1" 600 0 basechar 0
AnchorPoint: "Neo-0" 600 1378 basechar 0
LayerCount: 2
Fore
SplineSet
604 207 m 1,0,-1
 958 1378 l 1,1,-1
 1159 1378 l 1,2,-1
 708 0 l 1,3,-1
 492 0 l 1,4,-1
 41 1378 l 1,5,-1
 254 1378 l 1,6,-1
 604 207 l 1,0,-1
EndSplineSet
Validated: 1048577
EndChar

StartChar: W
Encoding: 87 87 114
Width: 1200
GlyphClass: 2
Flags: W
AnchorPoint: "Neo-1" 600 0 basechar 0
AnchorPoint: "Neo-0" 600 1378 basechar 0
LayerCount: 2
Fore
SplineSet
1193 1378 m 1,0,-1
 991 0 l 1,1,-1
 745 0 l 1,2,-1
 596 1031 l 1,3,-1
 445 0 l 1,4,-1
 193 0 l 1,5,-1
 7 1378 l 1,6,-1
 202 1378 l 1,7,-1
 333 205 l 1,8,-1
 490 1218 l 1,9,-1
 714 1218 l 1,10,-1
 863 205 l 1,11,-1
 1012 1378 l 1,12,-1
 1193 1378 l 1,0,-1
EndSplineSet
Validated: 1048577
EndChar

StartChar: X
Encoding: 88 88 119
Width: 1200
GlyphClass: 2
Flags: W
AnchorPoint: "Neo-1" 600 0 basechar 0
AnchorPoint: "Neo-0" 600 1378 basechar 0
LayerCount: 2
Fore
SplineSet
89 1378 m 1,0,-1
 313 1378 l 1,1,-1
 600 863 l 1,2,-1
 889 1378 l 1,3,-1
 1102 1378 l 1,4,-1
 715 744 l 1,5,-1
 1147 0 l 1,6,-1
 923 0 l 1,7,-1
 596 607 l 1,8,-1
 266 0 l 1,9,-1
 53 0 l 1,10,-1
 479 734 l 1,11,-1
 89 1378 l 1,0,-1
EndSplineSet
Validated: 1048577
EndChar

StartChar: Y
Encoding: 89 89 120
Width: 1200
GlyphClass: 2
Flags: W
AnchorPoint: "Neo-1" 600 0 basechar 0
AnchorPoint: "Neo-0" 606 1378 basechar 0
LayerCount: 2
Fore
SplineSet
700 529 m 1,0,-1
 700 0 l 1,1,-1
 500 0 l 1,2,-1
 500 527 l 1,3,-1
 37 1378 l 1,4,-1
 256 1378 l 1,5,-1
 604 704 l 1,6,-1
 956 1378 l 1,7,-1
 1163 1378 l 1,8,-1
 700 529 l 1,0,-1
EndSplineSet
Validated: 1048577
EndChar

StartChar: Z
Encoding: 90 90 125
Width: 1200
GlyphClass: 2
Flags: W
AnchorPoint: "Neo-1" 600 0 basechar 0
AnchorPoint: "Neo-0" 635 1378 basechar 0
LayerCount: 2
Fore
SplineSet
355 168 m 1,0,-1
 1066 168 l 1,1,-1
 1043 0 l 1,2,-1
 132 0 l 1,3,-1
 132 158 l 1,4,-1
 849 1213 l 1,5,-1
 204 1213 l 1,6,-1
 204 1378 l 1,7,-1
 1065 1378 l 1,8,-1
 1065 1219 l 1,9,-1
 355 168 l 1,0,-1
EndSplineSet
Validated: 1048577
EndChar

StartChar: F_l.liga.ss10
Encoding: 1114120 -1 136
Width: 1200
GlyphClass: 3
Flags: W
LayerCount: 2
Fore
SplineSet
624 1378 m 1,0,-1
 624 272 l 2,1,2
 624 196 624 196 671 164.5 c 128,-1,3
 718 133 718 133 792 133 c 0,4,5
 839 133 839 133 881.5 142.5 c 128,-1,6
 924 152 924 152 965 169 c 1,7,-1
 1015 32 l 1,8,9
 971 9 971 9 905 -8 c 128,-1,10
 839 -25 839 -25 756 -25 c 0,11,12
 607 -25 607 -25 519.5 58 c 128,-1,13
 432 141 432 141 432 286 c 2,14,-1
 432 1222 l 1,15,-1
 -735 1222 l 1,16,-1
 -735 758 l 1,17,-1
 -204 758 l 1,18,-1
 -204 603 l 1,19,-1
 -735 603 l 1,20,-1
 -735 0 l 1,21,-1
 -933 0 l 1,22,-1
 -933 1378 l 1,23,-1
 624 1378 l 1,0,-1
EndSplineSet
Validated: 1
EndChar

StartChar: T_l.liga.ss10
Encoding: 1114121 -1 137
Width: 1200
GlyphClass: 3
Flags: W
LayerCount: 2
Fore
SplineSet
624 1378 m 1,0,-1
 624 272 l 2,1,2
 624 196 624 196 671 164.5 c 128,-1,3
 718 133 718 133 792 133 c 0,4,5
 839 133 839 133 881.5 142.5 c 128,-1,6
 924 152 924 152 965 169 c 1,7,-1
 1015 32 l 1,8,9
 971 9 971 9 905 -8 c 128,-1,10
 839 -25 839 -25 756 -25 c 0,11,12
 607 -25 607 -25 519.5 58 c 128,-1,13
 432 141 432 141 432 286 c 2,14,-1
 432 1213 l 1,15,-1
 -504 1213 l 1,16,-1
 -504 0 l 1,17,-1
 -702 0 l 1,18,-1
 -702 1213 l 1,19,-1
 -1126 1213 l 1,20,-1
 -1126 1378 l 1,21,-1
 624 1378 l 1,0,-1
EndSplineSet
Validated: 1
EndChar

StartChar: a
Encoding: 97 97 138
Width: 1200
GlyphClass: 2
Flags: W
AnchorPoint: "Neo-1" 600 0 basechar 0
AnchorPoint: "Neo-0" 584 1054 basechar 0
LayerCount: 2
Fore
SplineSet
968 242 m 6,0,1
 968 179 968 179 988 150.5 c 132,-1,2
 1008 122 1008 122 1051 108 c 5,3,-1
 1006 -24 l 5,4,5
 934 -15 934 -15 880.5 19 c 132,-1,6
 827 53 827 53 802 123 c 5,7,8
 745 49 745 49 658 12 c 132,-1,9
 571 -25 571 -25 469 -25 c 4,10,11
 310 -25 310 -25 218 65 c 132,-1,12
 126 155 126 155 126 302 c 4,13,14
 126 466 126 466 254.5 554.5 c 132,-1,15
 383 643 383 643 624 643 c 6,16,-1
 777 643 l 5,17,-1
 777 723 l 6,18,19
 777 832 777 832 712.5 878 c 132,-1,20
 648 924 648 924 533 924 c 4,21,22
 480 924 480 924 408.5 911 c 132,-1,23
 337 898 337 898 256 870 c 5,24,-1
 207 1010 l 5,25,26
 304 1047 304 1047 394 1063 c 132,-1,27
 484 1079 484 1079 562 1079 c 4,28,29
 765 1079 765 1079 866.5 986 c 132,-1,30
 968 893 968 893 968 733 c 6,31,-1
 968 242 l 6,0,1
523 119 m 4,32,33
 596 119 596 119 664.5 157 c 132,-1,34
 733 195 733 195 777 263 c 5,35,-1
 777 518 l 5,36,-1
 637 518 l 6,37,38
 470 518 470 518 400 461.5 c 132,-1,39
 330 405 330 405 330 307 c 4,40,41
 330 119 330 119 523 119 c 4,32,33
EndSplineSet
Validated: 1048577
Substitution2: "B+HqMA-ng ph+HuUA 'cv01' Bi+Hr8A-n th+Hr8A k+AP0A t+HvEA 01 tra t+AOwA-m 361" a.cv01
Substitution2: "B+HqMA-ng ph+HuUA Thay th+Hr8A +AREBoQAA-n tra t+AOwA-m 12" ordfeminine
AlternateSubs2: "B+HqMA-ng ph+HuUA 'aalt' Truy c+Hq0A-p +AREevwAA-n m+Hs0A-i +AREe0wAA xen k+Hr0A tra t+AOwA-m 1" a.cv01 ordfeminine
EndChar

StartChar: ae
Encoding: 230 230 148
Width: 1200
GlyphClass: 2
Flags: W
AnchorPoint: "Neo-0" 615 1054 basechar 0
LayerCount: 2
Fore
SplineSet
867 1079 m 0,0,1
 1048 1079 1048 1079 1129.5 940.5 c 128,-1,2
 1211 802 1211 802 1211 558 c 0,3,4
 1211 503 1211 503 1207 463 c 1,5,-1
 678 463 l 1,6,7
 692 290 692 290 744 208.5 c 128,-1,8
 796 127 796 127 898 127 c 0,9,10
 955 127 955 127 999.5 147 c 128,-1,11
 1044 167 1044 167 1093 204 c 1,12,-1
 1177 82 l 1,13,14
 1118 34 1118 34 1050 4.5 c 128,-1,15
 982 -25 982 -25 894 -25 c 0,16,17
 787 -25 787 -25 713 22 c 128,-1,18
 639 69 639 69 584 163 c 1,19,20
 522 62 522 62 457 18.5 c 128,-1,21
 392 -25 392 -25 292 -25 c 0,22,23
 152 -25 152 -25 70 65 c 128,-1,24
 -12 155 -12 155 -12 302 c 0,25,26
 -12 467 -12 467 95.5 555 c 128,-1,27
 203 643 203 643 413 643 c 2,28,-1
 502 643 l 1,29,-1
 502 723 l 2,30,31
 502 832 502 832 454.5 881 c 128,-1,32
 407 930 407 930 320 930 c 0,33,34
 268 930 268 930 224 917.5 c 128,-1,35
 180 905 180 905 116 876 c 1,36,-1
 66 1011 l 1,37,38
 134 1042 134 1042 203 1060.5 c 128,-1,39
 272 1079 272 1079 339 1079 c 0,40,41
 454 1079 454 1079 515 1032.5 c 128,-1,42
 576 986 576 986 607 909 c 1,43,44
 638 988 638 988 704 1033.5 c 128,-1,45
 770 1079 770 1079 867 1079 c 0,0,1
861 930 m 0,46,47
 776 930 776 930 733 857 c 128,-1,48
 690 784 690 784 678 601 c 1,49,-1
 1035 601 l 1,50,51
 1032 764 1032 764 995.5 847 c 128,-1,52
 959 930 959 930 861 930 c 0,46,47
502 518 m 1,53,-1
 424 518 l 2,54,55
 287 518 287 518 234.5 462 c 128,-1,56
 182 406 182 406 182 312 c 0,57,58
 182 217 182 217 220 167.5 c 128,-1,59
 258 118 258 118 321 118 c 0,60,61
 385 118 385 118 431.5 162.5 c 128,-1,62
 478 207 478 207 524 294 c 1,63,64
 513 346 513 346 507.5 402.5 c 128,-1,65
 502 459 502 459 502 518 c 1,53,-1
EndSplineSet
Validated: 1
EndChar

StartChar: b
Encoding: 98 98 150
Width: 1200
GlyphClass: 2
Flags: W
AnchorPoint: "Neo-1" 600 0 basechar 0
AnchorPoint: "Neo-0" 600 1478 basechar 0
LayerCount: 2
Fore
SplineSet
383 922 m 1,0,1
 439 996 439 996 514.5 1037.5 c 128,-1,2
 590 1079 590 1079 679 1079 c 0,3,4
 819 1079 819 1079 906 1010.5 c 128,-1,5
 993 942 993 942 1033 818.5 c 128,-1,6
 1073 695 1073 695 1073 528 c 0,7,8
 1073 368 1073 368 1025 243 c 128,-1,9
 977 118 977 118 884 46.5 c 128,-1,10
 791 -25 791 -25 655 -25 c 0,11,12
 474 -25 474 -25 372 107 c 1,13,-1
 360 0 l 1,14,-1
 191 0 l 1,15,-1
 191 1478 l 1,16,-1
 383 1501 l 1,17,-1
 383 922 l 1,0,1
608 126 m 0,18,19
 732 126 732 126 799.5 224.5 c 128,-1,20
 867 323 867 323 867 528 c 256,21,22
 867 733 867 733 806.5 830.5 c 128,-1,23
 746 928 746 928 632 928 c 0,24,25
 550 928 550 928 487 878.5 c 128,-1,26
 424 829 424 829 383 766 c 1,27,-1
 383 256 l 1,28,29
 423 196 423 196 481 161 c 128,-1,30
 539 126 539 126 608 126 c 0,18,19
EndSplineSet
Validated: 1048577
EndChar

StartChar: c
Encoding: 99 99 151
Width: 1200
GlyphClass: 2
Flags: W
AnchorPoint: "Neo-1" 678 0 basechar 0
AnchorPoint: "Neo-0" 688 1036 basechar 0
LayerCount: 2
Fore
SplineSet
681 137 m 0,0,1
 758 137 758 137 824.5 162.5 c 128,-1,2
 891 188 891 188 949 229 c 1,3,-1
 1041 104 l 1,4,5
 971 46 971 46 873.5 10.5 c 128,-1,6
 776 -25 776 -25 678 -25 c 0,7,8
 519 -25 519 -25 406.5 43 c 128,-1,9
 294 111 294 111 235 234 c 128,-1,10
 176 357 176 357 176 522 c 0,11,12
 176 682 176 682 235.5 807.5 c 128,-1,13
 295 933 295 933 408 1006 c 128,-1,14
 521 1079 521 1079 681 1079 c 0,15,16
 887 1079 887 1079 1039 955 c 1,17,-1
 948 830 l 1,18,19
 815 922 815 922 682 922 c 0,20,21
 550 922 550 922 466 824 c 128,-1,22
 382 726 382 726 382 522 c 0,23,24
 382 317 382 317 466.5 227 c 128,-1,25
 551 137 551 137 681 137 c 0,0,1
EndSplineSet
Validated: 1048577
EndChar

StartChar: d
Encoding: 100 100 157
Width: 1200
GlyphClass: 2
Flags: W
AnchorPoint: "Neo-2" 600 528 basechar 0
AnchorPoint: "Neo-1" 600 0 basechar 0
AnchorPoint: "Neo-0" 600 1478 basechar 0
LayerCount: 2
Fore
SplineSet
817 1501 m 1,0,-1
 1009 1478 l 1,1,-1
 1009 0 l 1,2,-1
 840 0 l 1,3,-1
 824 135 l 1,4,5
 712 -25 712 -25 526 -25 c 0,6,7
 390 -25 390 -25 301.5 44.5 c 128,-1,8
 213 114 213 114 170 238 c 128,-1,9
 127 362 127 362 127 526 c 0,10,11
 127 686 127 686 176.5 810.5 c 128,-1,12
 226 935 226 935 318.5 1007 c 128,-1,13
 411 1079 411 1079 542 1079 c 0,14,15
 712 1079 712 1079 817 959 c 1,16,-1
 817 1501 l 1,0,-1
592 928 m 0,17,18
 468 928 468 928 400.5 829 c 128,-1,19
 333 730 333 730 333 526 c 0,20,21
 333 323 333 323 394.5 225 c 128,-1,22
 456 127 456 127 572 127 c 0,23,24
 655 127 655 127 715.5 174.5 c 128,-1,25
 776 222 776 222 817 286 c 1,26,-1
 817 801 l 1,27,28
 776 861 776 861 718.5 894.5 c 128,-1,29
 661 928 661 928 592 928 c 0,17,18
EndSplineSet
Validated: 1
EndChar

StartChar: eth
Encoding: 240 240 158
Width: 1200
GlyphClass: 1
Flags: W
LayerCount: 2
Fore
SplineSet
325 1127 m 1,0,-1
 479 1288 l 1,1,2
 431 1310 431 1310 375.5 1327 c 128,-1,3
 320 1344 320 1344 254 1357 c 1,4,-1
 295 1501 l 1,5,6
 382 1483 382 1483 456.5 1460 c 128,-1,7
 531 1437 531 1437 593 1406 c 1,8,-1
 733 1555 l 1,9,-1
 844 1458 l 1,10,-1
 723 1333 l 1,11,12
 904 1210 904 1210 988.5 1012.5 c 128,-1,13
 1073 815 1073 815 1073 531 c 0,14,15
 1073 363 1073 363 1013.5 238 c 128,-1,16
 954 113 954 113 845.5 44 c 128,-1,17
 737 -25 737 -25 590 -25 c 0,18,19
 461 -25 461 -25 355.5 33 c 128,-1,20
 250 91 250 91 187.5 201.5 c 128,-1,21
 125 312 125 312 125 470 c 0,22,23
 125 618 125 618 184 728.5 c 128,-1,24
 243 839 243 839 340 900.5 c 128,-1,25
 437 962 437 962 551 962 c 0,26,27
 651 962 651 962 726.5 928 c 128,-1,28
 802 894 802 894 859 830 c 1,29,30
 830 953 830 953 764.5 1050.5 c 128,-1,31
 699 1148 699 1148 607 1215 c 1,32,-1
 458 1061 l 1,33,-1
 325 1127 l 1,0,-1
878 531 m 0,34,35
 878 567 878 567 877 599.5 c 128,-1,36
 876 632 876 632 873 664 c 1,37,38
 824 737 824 737 749 775 c 128,-1,39
 674 813 674 813 583 813 c 0,40,41
 477 813 477 813 399 732.5 c 128,-1,42
 321 652 321 652 321 478 c 256,43,44
 321 304 321 304 395.5 215 c 128,-1,45
 470 126 470 126 588 126 c 0,46,47
 723 126 723 126 800.5 228.5 c 128,-1,48
 878 331 878 331 878 531 c 0,34,35
EndSplineSet
Validated: 1
EndChar

StartChar: dcroat
Encoding: 273 273 160
Width: 1200
GlyphClass: 2
Flags: W
AnchorPoint: "Neo-2" 598 528 basechar 0
AnchorPoint: "Neo-1" 598 0 basechar 0
AnchorPoint: "Neo-0" 598 1478 basechar 0
LayerCount: 2
Fore
SplineSet
1007 1336 m 1,0,-1
 1165 1336 l 1,1,-1
 1165 1194 l 1,2,-1
 1007 1194 l 1,3,-1
 1007 0 l 1,4,-1
 838 0 l 1,5,-1
 822 135 l 1,6,7
 709 -25 709 -25 524 -25 c 0,8,9
 388 -25 388 -25 299.5 44.5 c 128,-1,10
 211 114 211 114 168 238 c 128,-1,11
 125 362 125 362 125 526 c 0,12,13
 125 686 125 686 174.5 810.5 c 128,-1,14
 224 935 224 935 316.5 1007 c 128,-1,15
 409 1079 409 1079 540 1079 c 0,16,17
 710 1079 710 1079 815 959 c 1,18,-1
 815 1194 l 1,19,-1
 488 1194 l 1,20,-1
 488 1336 l 1,21,-1
 815 1336 l 1,22,-1
 815 1501 l 1,23,-1
 1007 1478 l 1,24,-1
 1007 1336 l 1,0,-1
590 928 m 0,25,26
 466 928 466 928 398.5 829 c 128,-1,27
 331 730 331 730 331 526 c 0,28,29
 331 323 331 323 392.5 225 c 128,-1,30
 454 127 454 127 570 127 c 0,31,32
 653 127 653 127 713.5 174.5 c 128,-1,33
 774 222 774 222 815 286 c 1,34,-1
 815 801 l 1,35,36
 774 861 774 861 716.5 894.5 c 128,-1,37
 659 928 659 928 590 928 c 0,25,26
EndSplineSet
Validated: 1
EndChar

StartChar: e
Encoding: 101 101 161
Width: 1200
GlyphClass: 2
Flags: W
AnchorPoint: "Neo-1" 600 0 basechar 0
AnchorPoint: "Neo-0" 620 1054 basechar 0
LayerCount: 2
Fore
SplineSet
346 462 m 1,0,1
 354 288 354 288 440.5 209 c 128,-1,2
 527 130 527 130 646 130 c 0,3,4
 725 130 725 130 791 154 c 128,-1,5
 857 178 857 178 925 224 c 1,6,-1
 1012 103 l 1,7,8
 938 44 938 44 841 9.5 c 128,-1,9
 744 -25 744 -25 640 -25 c 0,10,11
 482 -25 482 -25 371.5 44.5 c 128,-1,12
 261 114 261 114 203.5 238 c 128,-1,13
 146 362 146 362 146 526 c 0,14,15
 146 685 146 685 203.5 810 c 128,-1,16
 261 935 261 935 366 1007 c 128,-1,17
 471 1079 471 1079 616 1079 c 0,18,19
 820 1079 820 1079 937.5 939.5 c 128,-1,20
 1055 800 1055 800 1055 558 c 0,21,22
 1055 531 1055 531 1054 506 c 128,-1,23
 1053 481 1053 481 1051 462 c 1,24,-1
 346 462 l 1,0,1
618 929 m 0,25,26
 505 929 505 929 431 849 c 128,-1,27
 357 769 357 769 346 602 c 1,28,-1
 870 602 l 1,29,30
 867 762 867 762 800.5 845.5 c 128,-1,31
 734 929 734 929 618 929 c 0,25,26
EndSplineSet
Validated: 1048577
EndChar

StartChar: eogonek
Encoding: 281 281 170
Width: 1200
GlyphClass: 2
Flags: W
AnchorPoint: "Neo-1" 600 0 basechar 0
AnchorPoint: "Neo-0" 620 1054 basechar 0
LayerCount: 2
Fore
SplineSet
346 462 m 1,0,1
 354 288 354 288 440.5 209 c 128,-1,2
 527 130 527 130 646 130 c 0,3,4
 725 130 725 130 791 154 c 128,-1,5
 857 178 857 178 925 224 c 1,6,-1
 1012 103 l 1,7,8
 923 31 923 31 806 -2 c 1,9,10
 706 -45 706 -45 654 -83 c 128,-1,11
 602 -121 602 -121 583.5 -156.5 c 128,-1,12
 565 -192 565 -192 565 -228 c 0,13,14
 565 -273 565 -273 590.5 -298.5 c 128,-1,15
 616 -324 616 -324 677 -324 c 0,16,17
 709 -324 709 -324 736 -320.5 c 128,-1,18
 763 -317 763 -317 799 -310 c 1,19,-1
 780 -452 l 1,20,21
 751 -459 751 -459 722 -463 c 128,-1,22
 693 -467 693 -467 655 -467 c 0,23,24
 539 -467 539 -467 470.5 -409 c 128,-1,25
 402 -351 402 -351 402 -262 c 0,26,27
 402 -108 402 -108 588 -23 c 1,28,29
 375 -5 375 -5 260.5 144.5 c 128,-1,30
 146 294 146 294 146 526 c 0,31,32
 146 685 146 685 203.5 810 c 128,-1,33
 261 935 261 935 366 1007 c 128,-1,34
 471 1079 471 1079 616 1079 c 0,35,36
 820 1079 820 1079 937.5 939.5 c 128,-1,37
 1055 800 1055 800 1055 558 c 0,38,39
 1055 531 1055 531 1054 506 c 128,-1,40
 1053 481 1053 481 1051 462 c 1,41,-1
 346 462 l 1,0,1
618 929 m 0,42,43
 505 929 505 929 431 849 c 128,-1,44
 357 769 357 769 346 602 c 1,45,-1
 870 602 l 1,46,47
 867 762 867 762 800.5 845.5 c 128,-1,48
 734 929 734 929 618 929 c 0,42,43
EndSplineSet
Validated: 1048577
EndChar

StartChar: f
Encoding: 102 102 171
Width: 1200
GlyphClass: 2
Flags: W
HStem: 0 21G<429 620> 829 146<182 429 620 955> 1348 153<673.441 1068.01>
VStem: 429 191<0 829 975 1293.86>
AnchorPoint: "Neo-1" 525 0 basechar 0
AnchorPoint: "Neo-0" 740 1478 basechar 0
LayerCount: 2
Fore
SplineSet
822 1501 m 0,0,1
 912 1501 912 1501 984 1485.5 c 128,-1,2
 1056 1470 1056 1470 1120 1442 c 1,3,-1
 1060 1304 l 1,4,5
 1009 1327 1009 1327 951.5 1337.5 c 128,-1,6
 894 1348 894 1348 834 1348 c 0,7,8
 620 1348 620 1348 620 1177 c 2,9,-1
 620 975 l 1,10,-1
 976 975 l 1,11,-1
 955 829 l 1,12,-1
 620 829 l 1,13,-1
 620 0 l 1,14,-1
 429 0 l 1,15,-1
 429 829 l 1,16,-1
 182 829 l 1,17,-1
 182 975 l 1,18,-1
 429 975 l 1,19,-1
 429 1176 l 2,20,21
 429 1274 429 1274 479.5 1347 c 128,-1,22
 530 1420 530 1420 618.5 1460.5 c 128,-1,23
 707 1501 707 1501 822 1501 c 0,0,1
EndSplineSet
Validated: 1048577
Substitution2: "B+HqMA-ng ph+HuUA Thay th+Hr8A +AREBoQAA-n tra t+AOwA-m 352" f.spacer
Substitution2: "B+HqMA-ng ph+HuUA Thay th+Hr8A +AREBoQAA-n tra t+AOwA-m 350" f.spacer
Substitution2: "B+HqMA-ng ph+HuUA Thay th+Hr8A +AREBoQAA-n tra t+AOwA-m 348" f.spacer
Substitution2: "B+HqMA-ng ph+HuUA Thay th+Hr8A +AREBoQAA-n tra t+AOwA-m 346" f.spacer
Substitution2: "B+HqMA-ng ph+HuUA 'aalt' Truy c+Hq0A-p +AREevwAA-n m+Hs0A-i +AREe0wAA xen k+Hr0A tra t+AOwA-m 0" f.spacer
EndChar

StartChar: g
Encoding: 103 103 172
Width: 1200
GlyphClass: 2
Flags: W
AnchorPoint: "Neo-0" 589 1054 basechar 0
LayerCount: 2
Fore
SplineSet
1061 1176 m 1,0,-1
 1117 1006 l 1,1,2
 1051 985 1051 985 975.5 979 c 128,-1,3
 900 973 900 973 809 973 c 1,4,5
 996 889 996 889 996 707 c 0,6,7
 996 551 996 551 888.5 450 c 128,-1,8
 781 349 781 349 591 349 c 0,9,10
 541 349 541 349 506 353.5 c 128,-1,11
 471 358 471 358 439 368 c 1,12,13
 388 332 388 332 388 272 c 0,14,15
 388 237 388 237 416 212.5 c 128,-1,16
 444 188 444 188 525 188 c 2,17,-1
 712 188 l 2,18,19
 821 188 821 188 906.5 150 c 128,-1,20
 992 112 992 112 1041 46.5 c 128,-1,21
 1090 -19 1090 -19 1090 -101 c 0,22,23
 1090 -258 1090 -258 956.5 -342.5 c 128,-1,24
 823 -427 823 -427 576 -427 c 0,25,26
 402 -427 402 -427 302.5 -391 c 128,-1,27
 203 -355 203 -355 161.5 -284 c 128,-1,28
 120 -213 120 -213 120 -106 c 1,29,-1
 293 -106 l 1,30,31
 293 -165 293 -165 316 -203.5 c 128,-1,32
 339 -242 339 -242 400 -260.5 c 128,-1,33
 461 -279 461 -279 576 -279 c 0,34,35
 746 -279 746 -279 821 -237 c 128,-1,36
 896 -195 896 -195 896 -114 c 0,37,38
 896 -43 896 -43 833 -6.5 c 128,-1,39
 770 30 770 30 672 30 c 2,40,-1
 487 30 l 2,41,42
 345 30 345 30 278.5 90 c 128,-1,43
 212 150 212 150 212 230 c 0,44,45
 212 341 212 341 328 417 c 1,46,47
 149 511 149 511 149 710 c 0,48,49
 149 818 149 818 203.5 901.5 c 128,-1,50
 258 985 258 985 355 1032 c 128,-1,51
 452 1079 452 1079 578 1079 c 0,52,53
 709 1079 709 1079 793 1091 c 128,-1,54
 877 1103 877 1103 938 1125 c 128,-1,55
 999 1147 999 1147 1061 1176 c 1,0,-1
579 943 m 0,56,57
 460 943 460 943 402.5 877.5 c 128,-1,58
 345 812 345 812 345 710 c 0,59,60
 345 606 345 606 404 541 c 128,-1,61
 463 476 463 476 583 476 c 0,62,63
 689 476 689 476 745 538 c 128,-1,64
 801 600 801 600 801 712 c 0,65,66
 801 943 801 943 579 943 c 0,56,57
EndSplineSet
Validated: 1
Substitution2: "B+HqMA-ng ph+HuUA 'cv02' Bi+Hr8A-n th+Hr8A k+AP0A t+HvEA 02 tra t+AOwA-m 362" g.cv02
Substitution2: "B+HqMA-ng ph+HuUA 'aalt' Truy c+Hq0A-p +AREevwAA-n m+Hs0A-i +AREe0wAA xen k+Hr0A tra t+AOwA-m 0" g.cv02
EndChar

StartChar: h
Encoding: 104 104 177
Width: 1200
GlyphClass: 2
Flags: W
AnchorPoint: "Neo-2" 600 528 basechar 0
AnchorPoint: "Neo-1" 600 0 basechar 0
AnchorPoint: "Neo-0" 600 1478 basechar 0
LayerCount: 2
Fore
SplineSet
383 1497 m 1,0,-1
 383 917 l 1,1,2
 446 997 446 997 534.5 1038 c 128,-1,3
 623 1079 623 1079 715 1079 c 0,4,5
 867 1079 867 1079 939 996.5 c 128,-1,6
 1011 914 1011 914 1011 767 c 2,7,-1
 1011 0 l 1,8,-1
 819 0 l 1,9,-1
 819 750 l 2,10,11
 819 845 819 845 778.5 887.5 c 128,-1,12
 738 930 738 930 650 930 c 0,13,14
 566 930 566 930 495.5 877 c 128,-1,15
 425 824 425 824 383 762 c 1,16,-1
 383 0 l 1,17,-1
 191 0 l 1,18,-1
 191 1476 l 1,19,-1
 383 1497 l 1,0,-1
EndSplineSet
Validated: 1
EndChar

StartChar: hbar
Encoding: 295 295 178
Width: 1200
GlyphClass: 2
Flags: W
AnchorPoint: "Neo-2" 600 528 basechar 0
AnchorPoint: "Neo-1" 600 0 basechar 0
AnchorPoint: "Neo-0" 600 1478 basechar 0
LayerCount: 2
Fore
SplineSet
712 1336 m 1,0,-1
 712 1194 l 1,1,-1
 383 1194 l 1,2,-1
 383 917 l 1,3,4
 446 997 446 997 534.5 1038 c 128,-1,5
 623 1079 623 1079 715 1079 c 0,6,7
 867 1079 867 1079 939 996.5 c 128,-1,8
 1011 914 1011 914 1011 767 c 2,9,-1
 1011 0 l 1,10,-1
 819 0 l 1,11,-1
 819 750 l 2,12,13
 819 845 819 845 778.5 887.5 c 128,-1,14
 738 930 738 930 650 930 c 0,15,16
 566 930 566 930 495.5 877 c 128,-1,17
 425 824 425 824 383 762 c 1,18,-1
 383 0 l 1,19,-1
 191 0 l 1,20,-1
 191 1194 l 1,21,-1
 35 1194 l 1,22,-1
 35 1336 l 1,23,-1
 191 1336 l 1,24,-1
 191 1476 l 1,25,-1
 383 1497 l 1,26,-1
 383 1336 l 1,27,-1
 712 1336 l 1,0,-1
EndSplineSet
Validated: 1
EndChar

StartChar: i
Encoding: 105 105 180
Width: 1200
GlyphClass: 2
Flags: W
AnchorPoint: "Neo-1" 600 0 basechar 0
LayerCount: 2
Fore
SplineSet
600 1558 m 0,0,1
 660 1558 660 1558 696.5 1521 c 128,-1,2
 733 1484 733 1484 733 1431 c 0,3,4
 733 1376 733 1376 696.5 1338.5 c 128,-1,5
 660 1301 660 1301 600 1301 c 0,6,7
 541 1301 541 1301 504.5 1338.5 c 128,-1,8
 468 1376 468 1376 468 1431 c 0,9,10
 468 1484 468 1484 504.5 1521 c 128,-1,11
 541 1558 541 1558 600 1558 c 0,0,1
743 1054 m 1,12,-1
 743 146 l 1,13,-1
 1036 146 l 1,14,-1
 1036 0 l 1,15,-1
 230 0 l 1,16,-1
 230 146 l 1,17,-1
 551 146 l 1,18,-1
 551 908 l 1,19,-1
 240 908 l 1,20,-1
 240 1054 l 1,21,-1
 743 1054 l 1,12,-1
EndSplineSet
Validated: 1048577
Substitution2: "B+HqMA-ng ph+HuUA 'cv06' Bi+Hr8A-n th+Hr8A k+AP0A t+HvEA 06 tra t+AOwA-m 366" i.cv06
Substitution2: "B+HqMA-ng ph+HuUA 'cv05' Bi+Hr8A-n th+Hr8A k+AP0A t+HvEA 05 tra t+AOwA-m 365" i.cv05
Substitution2: "B+HqMA-ng ph+HuUA 'cv04' Bi+Hr8A-n th+Hr8A k+AP0A t+HvEA 04 tra t+AOwA-m 364" i.cv04
Substitution2: "B+HqMA-ng ph+HuUA 'cv03' Bi+Hr8A-n th+Hr8A k+AP0A t+HvEA 03 tra t+AOwA-m 363" i.cv03
Substitution2: "B+HqMA-ng ph+HuUA Thay th+Hr8A +AREBoQAA-n tra t+AOwA-m 355" dotlessi
Substitution2: "B+HqMA-ng ph+HuUA Thay th+Hr8A +AREBoQAA-n tra t+AOwA-m 354" dotlessi
Substitution2: "B+HqMA-ng ph+HuUA Thay th+Hr8A +AREBoQAA-n tra t+AOwA-m 346" f_i.liga.ss10
Substitution2: "B+HqMA-ng ph+HuUA Thay th+Hr8A +AREBoQAA-n tra t+AOwA-m 273" i.salt_low
Substitution2: "B+HqMA-ng ph+HuUA 'locl' H+AOwA-nh +AREA4wAA +AREeywAA-a ph+AbABoQAA-ng ho+AOEA trong Ti+Hr8A-ng La-tinh tra t+AOwA-m 27" i.loclTRK
Substitution2: "B+HqMA-ng ph+HuUA 'locl' H+AOwA-nh +AREA4wAA +AREeywAA-a ph+AbABoQAA-ng ho+AOEA trong Ti+Hr8A-ng La-tinh tra t+AOwA-m 23" i.loclTRK
Substitution2: "B+HqMA-ng ph+HuUA 'locl' H+AOwA-nh +AREA4wAA +AREeywAA-a ph+AbABoQAA-ng ho+AOEA trong Ti+Hr8A-ng La-tinh tra t+AOwA-m 21" i.loclTRK
Substitution2: "B+HqMA-ng ph+HuUA 'locl' H+AOwA-nh +AREA4wAA +AREeywAA-a ph+AbABoQAA-ng ho+AOEA trong Ti+Hr8A-ng La-tinh tra t+AOwA-m 18" i.loclTRK
Substitution2: "B+HqMA-ng ph+HuUA 'locl' H+AOwA-nh +AREA4wAA +AREeywAA-a ph+AbABoQAA-ng ho+AOEA trong Ti+Hr8A-ng La-tinh tra t+AOwA-m 17" i.loclTRK
AlternateSubs2: "B+HqMA-ng ph+HuUA 'aalt' Truy c+Hq0A-p +AREevwAA-n m+Hs0A-i +AREe0wAA xen k+Hr0A tra t+AOwA-m 1" i.loclTRK i.cv03 i.cv04 i.cv05 i.cv06 i.salt_low f_i.liga.ss10
EndChar

StartChar: dotlessi
Encoding: 305 305 181
Width: 1200
GlyphClass: 2
Flags: W
AnchorPoint: "Neo-0" 602 1054 basechar 0
LayerCount: 2
Fore
SplineSet
743 1054 m 1,0,-1
 743 146 l 1,1,-1
 1036 146 l 1,2,-1
 1036 0 l 1,3,-1
 230 0 l 1,4,-1
 230 146 l 1,5,-1
 551 146 l 1,6,-1
 551 908 l 1,7,-1
 240 908 l 1,8,-1
 240 1054 l 1,9,-1
 743 1054 l 1,0,-1
EndSplineSet
Validated: 1
Substitution2: "B+HqMA-ng ph+HuUA 'cv06' Bi+Hr8A-n th+Hr8A k+AP0A t+HvEA 06 tra t+AOwA-m 366" dotlessi.cv06
Substitution2: "B+HqMA-ng ph+HuUA 'cv05' Bi+Hr8A-n th+Hr8A k+AP0A t+HvEA 05 tra t+AOwA-m 365" dotlessi.cv05
Substitution2: "B+HqMA-ng ph+HuUA 'cv04' Bi+Hr8A-n th+Hr8A k+AP0A t+HvEA 04 tra t+AOwA-m 364" dotlessi.cv04
Substitution2: "B+HqMA-ng ph+HuUA 'cv03' Bi+Hr8A-n th+Hr8A k+AP0A t+HvEA 03 tra t+AOwA-m 363" dotlessi.cv03
AlternateSubs2: "B+HqMA-ng ph+HuUA 'aalt' Truy c+Hq0A-p +AREevwAA-n m+Hs0A-i +AREe0wAA xen k+Hr0A tra t+AOwA-m 1" dotlessi.cv03 dotlessi.cv04 dotlessi.cv05 dotlessi.cv06
EndChar

StartChar: ij
Encoding: 307 307 188
Width: 1200
GlyphClass: 1
Flags: W
LayerCount: 2
Fore
SplineSet
368 1558 m 0,0,1
 426 1558 426 1558 463.5 1521 c 128,-1,2
 501 1484 501 1484 501 1431 c 0,3,4
 501 1376 501 1376 463.5 1338.5 c 128,-1,5
 426 1301 426 1301 368 1301 c 0,6,7
 309 1301 309 1301 272.5 1338.5 c 128,-1,8
 236 1376 236 1376 236 1431 c 0,9,10
 236 1484 236 1484 272.5 1521 c 128,-1,11
 309 1558 309 1558 368 1558 c 0,0,1
899 1558 m 0,12,13
 958 1558 958 1558 995 1521 c 128,-1,14
 1032 1484 1032 1484 1032 1431 c 0,15,16
 1032 1376 1032 1376 995 1338.5 c 128,-1,17
 958 1301 958 1301 899 1301 c 0,18,19
 841 1301 841 1301 804 1338.5 c 128,-1,20
 767 1376 767 1376 767 1431 c 0,21,22
 767 1484 767 1484 804 1521 c 128,-1,23
 841 1558 841 1558 899 1558 c 0,12,13
1015 1054 m 1,24,-1
 1015 131 l 2,25,26
 1015 -24 1015 -24 945.5 -131 c 128,-1,27
 876 -238 876 -238 757.5 -308.5 c 128,-1,28
 639 -379 639 -379 490 -427 c 1,29,-1
 431 -280 l 1,30,31
 532 -242 532 -242 622.5 -193.5 c 128,-1,32
 713 -145 713 -145 770 -70.5 c 128,-1,33
 827 4 827 4 827 118 c 2,34,-1
 827 912 l 1,35,-1
 458 912 l 1,36,-1
 458 146 l 1,37,-1
 635 146 l 1,38,-1
 635 0 l 1,39,-1
 93 0 l 1,40,-1
 93 146 l 1,41,-1
 272 146 l 1,42,-1
 272 912 l 1,43,-1
 103 912 l 1,44,-1
 103 1054 l 1,45,-1
 1015 1054 l 1,24,-1
EndSplineSet
Validated: 1
EndChar

StartChar: j
Encoding: 106 106 192
Width: 1200
GlyphClass: 2
Flags: W
AnchorPoint: "Neo-0" 736 1054 basechar 0
LayerCount: 2
Fore
SplineSet
734 1558 m 0,0,1
 794 1558 794 1558 831 1521 c 128,-1,2
 868 1484 868 1484 868 1431 c 0,3,4
 868 1376 868 1376 831 1338.5 c 128,-1,5
 794 1301 794 1301 734 1301 c 0,6,7
 676 1301 676 1301 639.5 1338.5 c 128,-1,8
 603 1376 603 1376 603 1431 c 0,9,10
 603 1484 603 1484 639.5 1521 c 128,-1,11
 676 1558 676 1558 734 1558 c 0,0,1
899 1054 m 1,12,-1
 899 192 l 2,13,14
 899 7 899 7 818.5 -116.5 c 128,-1,15
 738 -240 738 -240 585 -314.5 c 128,-1,16
 432 -389 432 -389 214 -427 c 1,17,-1
 183 -279 l 1,18,19
 339 -251 339 -251 457 -199 c 128,-1,20
 575 -147 575 -147 641 -56 c 128,-1,21
 707 35 707 35 707 179 c 2,22,-1
 707 908 l 1,23,-1
 278 908 l 1,24,-1
 278 1054 l 1,25,-1
 899 1054 l 1,12,-1
EndSplineSet
Validated: 1
Substitution2: "B+HqMA-ng ph+HuUA Thay th+Hr8A +AREBoQAA-n tra t+AOwA-m 348" f_j.liga.ss10
Substitution2: "B+HqMA-ng ph+HuUA Thay th+Hr8A +AREBoQAA-n tra t+AOwA-m 273" j.salt_low
AlternateSubs2: "B+HqMA-ng ph+HuUA 'aalt' Truy c+Hq0A-p +AREevwAA-n m+Hs0A-i +AREe0wAA xen k+Hr0A tra t+AOwA-m 1" j.salt_low f_j.liga.ss10
EndChar

StartChar: uni0237
Encoding: 567 567 193
Width: 1200
GlyphClass: 2
Flags: W
AnchorPoint: "Neo-0" 736 1054 basechar 0
LayerCount: 2
Fore
SplineSet
899 1054 m 1,0,-1
 899 192 l 2,1,2
 899 7 899 7 818.5 -116.5 c 128,-1,3
 738 -240 738 -240 585 -314.5 c 128,-1,4
 432 -389 432 -389 214 -427 c 1,5,-1
 183 -279 l 1,6,7
 339 -251 339 -251 457 -199 c 128,-1,8
 575 -147 575 -147 641 -56 c 128,-1,9
 707 35 707 35 707 179 c 2,10,-1
 707 908 l 1,11,-1
 278 908 l 1,12,-1
 278 1054 l 1,13,-1
 899 1054 l 1,0,-1
EndSplineSet
Validated: 1
EndChar

StartChar: k
Encoding: 107 107 195
Width: 1200
GlyphClass: 2
Flags: W
AnchorPoint: "Neo-1" 609 0 basechar 0
AnchorPoint: "Neo-0" 600 1478 basechar 0
LayerCount: 2
Fore
SplineSet
392 1501 m 1,0,-1
 392 0 l 1,1,-1
 200 0 l 1,2,-1
 200 1478 l 1,3,-1
 392 1501 l 1,0,-1
1094 1054 m 1,4,-1
 640 581 l 1,5,-1
 1144 0 l 1,6,-1
 901 0 l 1,7,-1
 410 576 l 1,8,-1
 857 1054 l 1,9,-1
 1094 1054 l 1,4,-1
EndSplineSet
Validated: 1048577
EndChar

StartChar: kgreenlandic
Encoding: 312 312 197
Width: 1200
GlyphClass: 2
Flags: W
AnchorPoint: "Neo-1" 600 0 basechar 0
AnchorPoint: "Neo-0" 600 1054 basechar 0
LayerCount: 2
Fore
SplineSet
1084 1054 m 1,0,-1
 627 576 l 1,1,-1
 1135 0 l 1,2,-1
 891 0 l 1,3,-1
 400 563 l 1,4,-1
 848 1054 l 1,5,-1
 1084 1054 l 1,0,-1
383 1054 m 1,6,-1
 383 0 l 1,7,-1
 191 0 l 1,8,-1
 191 1054 l 1,9,-1
 383 1054 l 1,6,-1
EndSplineSet
Validated: 1048577
EndChar

StartChar: l
Encoding: 108 108 198
Width: 1200
GlyphClass: 2
Flags: W
HStem: -25 158<666.652 973.737> 1332 146<111 432>
VStem: 432 192<170.992 1332>
AnchorPoint: "Neo-2" 1123 766 basechar 0
AnchorPoint: "Neo-1" 719 0 basechar 0
AnchorPoint: "Neo-0" 527 1478 basechar 0
LayerCount: 2
Fore
SplineSet
624 1478 m 1,0,-1
 624 272 l 2,1,2
 624 196 624 196 671 164.5 c 128,-1,3
 718 133 718 133 792 133 c 0,4,5
 839 133 839 133 881.5 142.5 c 128,-1,6
 924 152 924 152 965 169 c 1,7,-1
 1015 32 l 1,8,9
 971 9 971 9 905 -8 c 128,-1,10
 839 -25 839 -25 756 -25 c 0,11,12
 607 -25 607 -25 519.5 58 c 128,-1,13
 432 141 432 141 432 286 c 2,14,-1
 432 1332 l 1,15,-1
 111 1332 l 1,16,-1
 111 1478 l 1,17,-1
 624 1478 l 1,0,-1
EndSplineSet
Validated: 1
Substitution2: "B+HqMA-ng ph+HuUA 'cv10' Bi+Hr8A-n th+Hr8A k+AP0A t+HvEA 10 tra t+AOwA-m 370" l.cv10
Substitution2: "B+HqMA-ng ph+HuUA 'cv09' Bi+Hr8A-n th+Hr8A k+AP0A t+HvEA 09 tra t+AOwA-m 369" l.cv09
Substitution2: "B+HqMA-ng ph+HuUA 'cv08' Bi+Hr8A-n th+Hr8A k+AP0A t+HvEA 08 tra t+AOwA-m 368" l.cv08
Substitution2: "B+HqMA-ng ph+HuUA 'cv07' Bi+Hr8A-n th+Hr8A k+AP0A t+HvEA 07 tra t+AOwA-m 367" l.cv07
Substitution2: "B+HqMA-ng ph+HuUA Thay th+Hr8A +AREBoQAA-n tra t+AOwA-m 350" f_l.liga.ss10
Substitution2: "B+HqMA-ng ph+HuUA Thay th+Hr8A +AREBoQAA-n tra t+AOwA-m 344" F_l.liga.ss10
Substitution2: "B+HqMA-ng ph+HuUA Thay th+Hr8A +AREBoQAA-n tra t+AOwA-m 342" T_l.liga.ss10
Substitution2: "B+HqMA-ng ph+HuUA Thay th+Hr8A +AREBoQAA-n tra t+AOwA-m 273" l.salt_low
AlternateSubs2: "B+HqMA-ng ph+HuUA 'aalt' Truy c+Hq0A-p +AREevwAA-n m+Hs0A-i +AREe0wAA xen k+Hr0A tra t+AOwA-m 1" F_l.liga.ss10 T_l.liga.ss10 l.cv07 l.cv08 l.cv09 l.cv10 l.salt_low f_l.liga.ss10
EndChar

StartChar: lslash
Encoding: 322 322 203
Width: 1200
GlyphClass: 2
Flags: W
AnchorPoint: "Neo-2" 1123 766 basechar 0
AnchorPoint: "Neo-1" 719 0 basechar 0
AnchorPoint: "Neo-0" 527 1478 basechar 0
LayerCount: 2
Fore
SplineSet
793 987 m 1,0,-1
 871 867 l 1,1,-1
 624 716 l 1,2,-1
 624 272 l 2,3,4
 624 196 624 196 671 164.5 c 128,-1,5
 718 133 718 133 792 133 c 0,6,7
 839 133 839 133 881.5 142.5 c 128,-1,8
 924 152 924 152 965 169 c 1,9,-1
 1015 32 l 1,10,11
 971 9 971 9 905 -8 c 128,-1,12
 839 -25 839 -25 756 -25 c 0,13,14
 607 -25 607 -25 519.5 58 c 128,-1,15
 432 141 432 141 432 286 c 2,16,-1
 432 598 l 1,17,-1
 302 518 l 1,18,-1
 224 638 l 1,19,-1
 432 766 l 1,20,-1
 432 1332 l 1,21,-1
 111 1332 l 1,22,-1
 111 1478 l 1,23,-1
 624 1478 l 1,24,-1
 624 884 l 1,25,-1
 793 987 l 1,0,-1
EndSplineSet
Validated: 1
Substitution2: "B+HqMA-ng ph+HuUA 'cv10' Bi+Hr8A-n th+Hr8A k+AP0A t+HvEA 10 tra t+AOwA-m 370" lslash.cv10
Substitution2: "B+HqMA-ng ph+HuUA 'cv09' Bi+Hr8A-n th+Hr8A k+AP0A t+HvEA 09 tra t+AOwA-m 369" lslash.cv09
Substitution2: "B+HqMA-ng ph+HuUA 'cv08' Bi+Hr8A-n th+Hr8A k+AP0A t+HvEA 08 tra t+AOwA-m 368" lslash.cv08
Substitution2: "B+HqMA-ng ph+HuUA 'cv07' Bi+Hr8A-n th+Hr8A k+AP0A t+HvEA 07 tra t+AOwA-m 367" lslash.cv07
AlternateSubs2: "B+HqMA-ng ph+HuUA 'aalt' Truy c+Hq0A-p +AREevwAA-n m+Hs0A-i +AREe0wAA xen k+Hr0A tra t+AOwA-m 1" lslash.cv07 lslash.cv08 lslash.cv09 lslash.cv10
EndChar

StartChar: m
Encoding: 109 109 204
Width: 1200
GlyphClass: 2
Flags: W
HStem: 0 21G<93 268 516 684 932 1107> 929 150<349.072 504.577 759.769 920.076> 1034 20G<93 243.034>
VStem: 93 175<0 867.397> 93 148<936 1054> 516 168<0 866> 932 175<0 887.222>
AnchorPoint: "Neo-1" 600 0 basechar 0
AnchorPoint: "Neo-0" 600 1054 basechar 0
LayerCount: 2
Fore
SplineSet
900 1079 m 0,0,1
 954 1079 954 1079 1001.5 1055 c 128,-1,2
 1049 1031 1049 1031 1078 967.5 c 128,-1,3
 1107 904 1107 904 1107 784 c 2,4,-1
 1107 0 l 1,5,-1
 932 0 l 1,6,-1
 932 756 l 2,7,8
 932 848 932 848 920.5 888.5 c 128,-1,9
 909 929 909 929 856 929 c 0,10,11
 812 929 812 929 768.5 902 c 128,-1,12
 725 875 725 875 684 812 c 1,13,-1
 684 0 l 1,14,-1
 516 0 l 1,15,-1
 516 756 l 2,16,17
 516 848 516 848 504.5 888.5 c 128,-1,18
 493 929 493 929 440 929 c 0,19,20
 395 929 395 929 352 902 c 128,-1,21
 309 875 309 875 268 812 c 1,22,-1
 268 0 l 1,23,-1
 93 0 l 1,24,-1
 93 1054 l 1,25,-1
 241 1054 l 1,26,-1
 253 936 l 1,27,28
 297 997 297 997 350.5 1038 c 128,-1,29
 404 1079 404 1079 481 1079 c 0,30,31
 541 1079 541 1079 592.5 1050 c 128,-1,32
 644 1021 644 1021 668 942 c 1,33,34
 711 1003 711 1003 766 1041 c 128,-1,35
 821 1079 821 1079 900 1079 c 0,0,1
EndSplineSet
Validated: 9437185
EndChar

StartChar: n
Encoding: 110 110 205
Width: 1200
GlyphClass: 2
Flags: W
AnchorPoint: "Neo-1" 602 0 basechar 0
AnchorPoint: "Neo-0" 600 1054 basechar 0
LayerCount: 2
Fore
SplineSet
191 0 m 1,0,-1
 191 1054 l 1,1,-1
 356 1054 l 1,2,-1
 370 912 l 1,3,4
 435 993 435 993 528.5 1036 c 128,-1,5
 622 1079 622 1079 715 1079 c 0,6,7
 867 1079 867 1079 939 996.5 c 128,-1,8
 1011 914 1011 914 1011 767 c 2,9,-1
 1011 0 l 1,10,-1
 819 0 l 1,11,-1
 819 649 l 2,12,13
 819 749 819 749 807.5 811 c 128,-1,14
 796 873 796 873 760 901.5 c 128,-1,15
 724 930 724 930 651 930 c 0,16,17
 565 930 565 930 495 877 c 128,-1,18
 425 824 425 824 383 763 c 1,19,-1
 383 0 l 1,20,-1
 191 0 l 1,0,-1
EndSplineSet
Validated: 1048577
EndChar

StartChar: napostrophe
Encoding: 329 329 207
Width: 1200
GlyphClass: 2
Flags: W
AnchorPoint: "Neo-1" 623 0 basechar 0
AnchorPoint: "Neo-0" 621 1054 basechar 0
LayerCount: 2
Fore
SplineSet
126 1507 m 0,0,1
 175 1507 175 1507 208.5 1474.5 c 128,-1,2
 242 1442 242 1442 242 1393 c 0,3,4
 242 1367 242 1367 231.5 1335.5 c 128,-1,5
 221 1304 221 1304 190 1239 c 2,6,-1
 108 1068 l 1,7,-1
 -1 1068 l 1,8,-1
 56 1297 l 1,9,10
 35 1315 35 1315 21 1339.5 c 128,-1,11
 7 1364 7 1364 7 1393 c 0,12,13
 7 1442 7 1442 41.5 1474.5 c 128,-1,14
 76 1507 76 1507 126 1507 c 0,0,1
212 0 m 1,15,-1
 212 1054 l 1,16,-1
 377 1054 l 1,17,-1
 391 912 l 1,18,19
 456 993 456 993 549.5 1036 c 128,-1,20
 643 1079 643 1079 736 1079 c 0,21,22
 888 1079 888 1079 960 996.5 c 128,-1,23
 1032 914 1032 914 1032 767 c 2,24,-1
 1032 0 l 1,25,-1
 840 0 l 1,26,-1
 840 649 l 2,27,28
 840 749 840 749 828.5 811 c 128,-1,29
 817 873 817 873 781 901.5 c 128,-1,30
 745 930 745 930 672 930 c 0,31,32
 586 930 586 930 516 877 c 128,-1,33
 446 824 446 824 404 763 c 1,34,-1
 404 0 l 1,35,-1
 212 0 l 1,15,-1
EndSplineSet
Validated: 1048577
Ligature2: "B+HqMA-ng ph+HuUA 'locl' H+AOwA-nh +AREA4wAA +AREeywAA-a ph+AbABoQAA-ng ho+AOEA trong Ti+Hr8A-ng La-tinh tra t+AOwA-m 28" quotesingle n
Ligature2: "B+HqMA-ng ph+HuUA 'locl' H+AOwA-nh +AREA4wAA +AREeywAA-a ph+AbABoQAA-ng ho+AOEA trong Ti+Hr8A-ng La-tinh tra t+AOwA-m 28" quoteright n
EndChar

StartChar: eng
Encoding: 331 331 211
Width: 1200
GlyphClass: 1
Flags: W
LayerCount: 2
Fore
SplineSet
1011 67 m 2,0,1
 1011 -86 1011 -86 973.5 -176.5 c 128,-1,2
 936 -267 936 -267 863 -322.5 c 128,-1,3
 790 -378 790 -378 683 -425 c 1,4,-1
 612 -285 l 1,5,6
 681 -253 681 -253 727 -217.5 c 128,-1,7
 773 -182 773 -182 796 -119.5 c 128,-1,8
 819 -57 819 -57 819 55 c 2,9,-1
 819 649 l 2,10,11
 819 749 819 749 807.5 811 c 128,-1,12
 796 873 796 873 760 901.5 c 128,-1,13
 724 930 724 930 650 930 c 0,14,15
 566 930 566 930 495.5 877 c 128,-1,16
 425 824 425 824 383 762 c 1,17,-1
 383 0 l 1,18,-1
 191 0 l 1,19,-1
 191 1054 l 1,20,-1
 356 1054 l 1,21,-1
 370 912 l 1,22,23
 435 993 435 993 528.5 1036 c 128,-1,24
 622 1079 622 1079 715 1079 c 0,25,26
 867 1079 867 1079 939 996.5 c 128,-1,27
 1011 914 1011 914 1011 767 c 2,28,-1
 1011 67 l 2,0,1
EndSplineSet
Validated: 1
EndChar

StartChar: o
Encoding: 111 111 212
Width: 1200
GlyphClass: 2
Flags: W
AnchorPoint: "Neo-1" 600 0 basechar 0
AnchorPoint: "Neo-0" 600 1054 basechar 0
LayerCount: 2
Fore
SplineSet
602 1079 m 4,0,1
 828 1079 828 1079 945.5 929 c 132,-1,2
 1063 779 1063 779 1063 528 c 4,3,4
 1063 365 1063 365 1009.5 240 c 132,-1,5
 956 115 956 115 853 45 c 132,-1,6
 750 -25 750 -25 600 -25 c 4,7,8
 374 -25 374 -25 255.5 125 c 132,-1,9
 137 275 137 275 137 526 c 4,10,11
 137 690 137 690 190.5 814.5 c 132,-1,12
 244 939 244 939 347.5 1009 c 132,-1,13
 451 1079 451 1079 602 1079 c 4,0,1
602 926 m 4,14,15
 472 926 472 926 406 828.5 c 132,-1,16
 340 731 340 731 340 526 c 4,17,18
 340 323 340 323 405 225.5 c 132,-1,19
 470 128 470 128 600 128 c 260,20,21
 730 128 730 128 795 225.5 c 132,-1,22
 860 323 860 323 860 528 c 4,23,24
 860 732 860 732 795 829 c 132,-1,25
 730 926 730 926 602 926 c 4,14,15
EndSplineSet
Validated: 1048577
Substitution2: "B+HqMA-ng ph+HuUA Thay th+Hr8A +AREBoQAA-n tra t+AOwA-m 12" ordmasculine
Substitution2: "B+HqMA-ng ph+HuUA 'aalt' Truy c+Hq0A-p +AREevwAA-n m+Hs0A-i +AREe0wAA xen k+Hr0A tra t+AOwA-m 0" ordmasculine
EndChar

StartChar: oslash
Encoding: 248 248 220
Width: 1200
GlyphClass: 2
Flags: W
AnchorPoint: "Neo-0" 600 1054 basechar 0
LayerCount: 2
Fore
SplineSet
602 1079 m 0,0,1
 650 1079 650 1079 694 1071 c 1,2,-1
 770 1311 l 1,3,-1
 925 1266 l 1,4,-1
 842 1016 l 1,5,6
 949 951 949 951 1006 825 c 128,-1,7
 1063 699 1063 699 1063 528 c 0,8,9
 1063 365 1063 365 1009.5 240 c 128,-1,10
 956 115 956 115 853 45 c 128,-1,11
 750 -25 750 -25 600 -25 c 0,12,13
 551 -25 551 -25 505 -17 c 1,14,-1
 432 -263 l 1,15,-1
 277 -217 l 1,16,-1
 361 37 l 1,17,18
 253 102 253 102 195 228 c 128,-1,19
 137 354 137 354 137 526 c 0,20,21
 137 690 137 690 190.5 814.5 c 128,-1,22
 244 939 244 939 347.5 1009 c 128,-1,23
 451 1079 451 1079 602 1079 c 0,0,1
602 926 m 0,24,25
 472 926 472 926 406 829 c 128,-1,26
 340 732 340 732 340 526 c 0,27,28
 340 395 340 395 363 311.5 c 128,-1,29
 386 228 386 228 433 184 c 1,30,-1
 662 921 l 1,31,32
 634 926 634 926 602 926 c 0,24,25
860 528 m 0,33,34
 860 658 860 658 837.5 741.5 c 128,-1,35
 815 825 815 825 769 869 c 1,36,-1
 540 133 l 1,37,38
 568 128 568 128 600 128 c 0,39,40
 730 128 730 128 795 225.5 c 128,-1,41
 860 323 860 323 860 528 c 0,33,34
EndSplineSet
Validated: 1
EndChar

StartChar: oe
Encoding: 339 339 223
Width: 1200
GlyphClass: 1
Flags: W
LayerCount: 2
Fore
SplineSet
895 1079 m 0,0,1
 1071 1079 1071 1079 1149 940.5 c 128,-1,2
 1227 802 1227 802 1227 558 c 0,3,4
 1227 531 1227 531 1225.5 507 c 128,-1,5
 1224 483 1224 483 1223 463 c 1,6,-1
 706 463 l 1,7,8
 719 290 719 290 769 208.5 c 128,-1,9
 819 127 819 127 920 127 c 0,10,11
 975 127 975 127 1017.5 147 c 128,-1,12
 1060 167 1060 167 1109 204 c 1,13,-1
 1193 82 l 1,14,15
 1133 34 1133 34 1067.5 4.5 c 128,-1,16
 1002 -25 1002 -25 916 -25 c 0,17,18
 806 -25 806 -25 731 26.5 c 128,-1,19
 656 78 656 78 615 171 c 1,20,21
 578 83 578 83 515 29 c 128,-1,22
 452 -25 452 -25 337 -25 c 0,23,24
 159 -25 159 -25 76 125 c 128,-1,25
 -7 275 -7 275 -7 526 c 0,26,27
 -7 690 -7 690 29 814.5 c 128,-1,28
 65 939 65 939 141 1009 c 128,-1,29
 217 1079 217 1079 337 1079 c 256,30,31
 457 1079 457 1079 520 1024.5 c 128,-1,32
 583 970 583 970 618 879 c 1,33,34
 654 965 654 965 719.5 1022 c 128,-1,35
 785 1079 785 1079 895 1079 c 0,0,1
888 930 m 0,36,37
 803 930 803 930 760.5 857 c 128,-1,38
 718 784 718 784 706 601 c 1,39,-1
 1051 601 l 1,40,41
 1048 764 1048 764 1014.5 847 c 128,-1,42
 981 930 981 930 888 930 c 0,36,37
356 928 m 256,43,44
 264 928 264 928 225 830 c 128,-1,45
 186 732 186 732 186 526 c 0,46,47
 186 315 186 315 225 221.5 c 128,-1,48
 264 128 264 128 356 128 c 0,49,50
 449 128 449 128 486 218 c 128,-1,51
 523 308 523 308 523 528 c 0,52,53
 523 734 523 734 485.5 831 c 128,-1,54
 448 928 448 928 356 928 c 256,43,44
EndSplineSet
Validated: 1
EndChar

StartChar: p
Encoding: 112 112 224
Width: 1200
GlyphClass: 2
Flags: W
AnchorPoint: "Neo-1" 600 0 basechar 0
AnchorPoint: "Neo-0" 600 1054 basechar 0
LayerCount: 2
Fore
SplineSet
681 1079 m 0,0,1
 821 1079 821 1079 905 1010.5 c 128,-1,2
 989 942 989 942 1026 818.5 c 128,-1,3
 1063 695 1063 695 1063 528 c 0,4,5
 1063 368 1063 368 1018 243 c 128,-1,6
 973 118 973 118 883 46.5 c 128,-1,7
 793 -25 793 -25 657 -25 c 0,8,9
 487 -25 487 -25 383 95 c 1,10,-1
 383 -404 l 1,11,-1
 191 -427 l 1,12,-1
 191 1054 l 1,13,-1
 356 1054 l 1,14,-1
 370 912 l 1,15,16
 492 1079 492 1079 681 1079 c 0,0,1
632 928 m 0,17,18
 550 928 550 928 487 878.5 c 128,-1,19
 424 829 424 829 383 766 c 1,20,-1
 383 256 l 1,21,22
 423 197 423 197 481 163.5 c 128,-1,23
 539 130 539 130 610 130 c 0,24,25
 734 130 734 130 797 226.5 c 128,-1,26
 860 323 860 323 860 528 c 256,27,28
 860 733 860 733 804 830.5 c 128,-1,29
 748 928 748 928 632 928 c 0,17,18
EndSplineSet
Validated: 1048577
EndChar

StartChar: thorn
Encoding: 254 254 225
Width: 1200
GlyphClass: 2
Flags: W
AnchorPoint: "Neo-1" 600 -406 basechar 0
AnchorPoint: "Neo-0" 600 1478 basechar 0
LayerCount: 2
Fore
SplineSet
383 1501 m 1,0,-1
 383 928 l 1,1,2
 500 1079 500 1079 681 1079 c 0,3,4
 821 1079 821 1079 905 1010.5 c 128,-1,5
 989 942 989 942 1026 818.5 c 128,-1,6
 1063 695 1063 695 1063 528 c 0,7,8
 1063 368 1063 368 1018 243 c 128,-1,9
 973 118 973 118 883 46.5 c 128,-1,10
 793 -25 793 -25 657 -25 c 0,11,12
 487 -25 487 -25 383 95 c 1,13,-1
 383 -404 l 1,14,-1
 191 -427 l 1,15,-1
 191 1478 l 1,16,-1
 383 1501 l 1,0,-1
632 928 m 0,17,18
 550 928 550 928 487 878.5 c 128,-1,19
 424 829 424 829 383 766 c 1,20,-1
 383 256 l 1,21,22
 423 197 423 197 481 163.5 c 128,-1,23
 539 130 539 130 610 130 c 0,24,25
 734 130 734 130 797 226.5 c 128,-1,26
 860 323 860 323 860 528 c 256,27,28
 860 733 860 733 804 830.5 c 128,-1,29
 748 928 748 928 632 928 c 0,17,18
EndSplineSet
Validated: 1048577
EndChar

StartChar: q
Encoding: 113 113 226
Width: 1200
GlyphClass: 2
Flags: W
AnchorPoint: "Neo-1" 600 0 basechar 0
AnchorPoint: "Neo-0" 600 1054 basechar 0
LayerCount: 2
Fore
SplineSet
542 1079 m 0,0,1
 723 1079 723 1079 830 944 c 1,2,-1
 844 1054 l 1,3,-1
 1009 1054 l 1,4,-1
 1009 -427 l 1,5,-1
 817 -404 l 1,6,-1
 817 126 l 1,7,8
 761 49 761 49 686.5 12 c 128,-1,9
 612 -25 612 -25 525 -25 c 0,10,11
 384 -25 384 -25 298.5 43.5 c 128,-1,12
 213 112 213 112 175 236 c 128,-1,13
 137 360 137 360 137 526 c 0,14,15
 137 686 137 686 183.5 810.5 c 128,-1,16
 230 935 230 935 320 1007 c 128,-1,17
 410 1079 410 1079 542 1079 c 0,0,1
590 928 m 0,18,19
 340 928 340 928 340 526 c 0,20,21
 340 323 340 323 398 226.5 c 128,-1,22
 456 130 456 130 570 130 c 0,23,24
 652 130 652 130 714 176 c 128,-1,25
 776 222 776 222 817 286 c 1,26,-1
 817 801 l 1,27,28
 777 861 777 861 719 894.5 c 128,-1,29
 661 928 661 928 590 928 c 0,18,19
EndSplineSet
Validated: 1048577
EndChar

StartChar: r
Encoding: 114 114 227
Width: 1200
GlyphClass: 2
Flags: W
AnchorPoint: "Neo-1" 457 0 basechar 0
AnchorPoint: "Neo-0" 659 1054 basechar 0
LayerCount: 2
Fore
SplineSet
201 0 m 1,0,-1
 201 142 l 1,1,-1
 361 142 l 1,2,-1
 361 912 l 1,3,-1
 201 912 l 1,4,-1
 201 1054 l 1,5,-1
 508 1054 l 1,6,-1
 543 807 l 1,7,8
 603 938 603 938 690.5 1008.5 c 128,-1,9
 778 1079 778 1079 918 1079 c 0,10,11
 964 1079 964 1079 999.5 1072 c 128,-1,12
 1035 1065 1035 1065 1072 1054 c 1,13,-1
 1042 684 l 1,14,-1
 894 684 l 1,15,-1
 894 904 l 1,16,-1
 893 904 l 2,17,18
 656 904 656 904 553 565 c 1,19,-1
 553 142 l 1,20,-1
 767 142 l 1,21,-1
 767 0 l 1,22,-1
 201 0 l 1,0,-1
EndSplineSet
Validated: 1048577
Substitution2: "B+HqMA-ng ph+HuUA 'ss01' T+Hq0A-p ki+HsMA-u d+AOEA-ng 1 tra t+AOwA-m 317" r.ss01
Substitution2: "B+HqMA-ng ph+HuUA 'salt' +ARAe0wAA xen k+Hr0A ki+HsMA-u d+AOEA-ng tra t+AOwA-m 316" r.ss01
Substitution2: "B+HqMA-ng ph+HuUA 'aalt' Truy c+Hq0A-p +AREevwAA-n m+Hs0A-i +AREe0wAA xen k+Hr0A tra t+AOwA-m 0" r.ss01
EndChar

StartChar: s
Encoding: 115 115 231
Width: 1200
GlyphClass: 2
Flags: W
AnchorPoint: "Neo-1" 594 0 basechar 0
AnchorPoint: "Neo-0" 617 1054 basechar 0
LayerCount: 2
Fore
SplineSet
560 128 m 0,0,1
 675 128 675 128 741.5 170 c 128,-1,2
 808 212 808 212 808 284 c 0,3,4
 808 330 808 330 790.5 362.5 c 128,-1,5
 773 395 773 395 718.5 422.5 c 128,-1,6
 664 450 664 450 554 478 c 0,7,8
 446 505 446 505 366.5 541 c 128,-1,9
 287 577 287 577 243.5 635 c 128,-1,10
 200 693 200 693 200 785 c 0,11,12
 200 919 200 919 312 999 c 128,-1,13
 424 1079 424 1079 609 1079 c 0,14,15
 739 1079 739 1079 835 1044.5 c 128,-1,16
 931 1010 931 1010 999 960 c 1,17,-1
 917 835 l 1,18,19
 856 875 856 875 783.5 901.5 c 128,-1,20
 711 928 711 928 613 928 c 0,21,22
 496 928 496 928 446.5 892.5 c 128,-1,23
 397 857 397 857 397 799 c 0,24,25
 397 755 397 755 421.5 726.5 c 128,-1,26
 446 698 446 698 506 674.5 c 128,-1,27
 566 651 566 651 672 622 c 0,28,29
 775 594 775 594 852 556 c 128,-1,30
 929 518 929 518 971.5 456.5 c 128,-1,31
 1014 395 1014 395 1014 295 c 0,32,33
 1014 182 1014 182 949 111.5 c 128,-1,34
 884 41 884 41 780.5 8 c 128,-1,35
 677 -25 677 -25 560 -25 c 0,36,37
 416 -25 416 -25 312.5 17 c 128,-1,38
 209 59 209 59 139 120 c 1,39,-1
 245 242 l 1,40,41
 306 191 306 191 386.5 159.5 c 128,-1,42
 467 128 467 128 560 128 c 0,0,1
EndSplineSet
Validated: 1048577
EndChar

StartChar: germandbls
Encoding: 223 223 237
Width: 1200
GlyphClass: 1
Flags: W
LayerCount: 2
Fore
SplineSet
591 1501 m 0,0,1
 752 1501 752 1501 850 1419 c 128,-1,2
 948 1337 948 1337 948 1210 c 0,3,4
 948 1137 948 1137 915 1090 c 128,-1,5
 882 1043 882 1043 838.5 1008 c 128,-1,6
 795 973 795 973 762 939 c 128,-1,7
 729 905 729 905 729 858 c 0,8,9
 729 807 729 807 769 770 c 128,-1,10
 809 733 809 733 867.5 697.5 c 128,-1,11
 926 662 926 662 984.5 616 c 128,-1,12
 1043 570 1043 570 1082.5 503 c 128,-1,13
 1122 436 1122 436 1122 334 c 0,14,15
 1122 218 1122 218 1070.5 138 c 128,-1,16
 1019 58 1019 58 933 16.5 c 128,-1,17
 847 -25 847 -25 744 -25 c 0,18,19
 665 -25 665 -25 602.5 -7.5 c 128,-1,20
 540 10 540 10 487 43 c 1,21,-1
 560 174 l 1,22,23
 596 154 596 154 640 141.5 c 128,-1,24
 684 129 684 129 725 129 c 0,25,26
 819 129 819 129 872.5 178 c 128,-1,27
 926 227 926 227 926 326 c 0,28,29
 926 401 926 401 887.5 450.5 c 128,-1,30
 849 500 849 500 792 537.5 c 128,-1,31
 735 575 735 575 678.5 613 c 128,-1,32
 622 651 622 651 583.5 702.5 c 128,-1,33
 545 754 545 754 545 832 c 0,34,35
 545 903 545 903 578 948.5 c 128,-1,36
 611 994 611 994 654.5 1028.5 c 128,-1,37
 698 1063 698 1063 731.5 1100.5 c 128,-1,38
 765 1138 765 1138 765 1194 c 0,39,40
 765 1230 765 1230 748.5 1266.5 c 128,-1,41
 732 1303 732 1303 693.5 1327.5 c 128,-1,42
 655 1352 655 1352 589 1352 c 0,43,44
 483 1352 483 1352 427.5 1289 c 128,-1,45
 372 1226 372 1226 372 1078 c 2,46,-1
 372 0 l 1,47,-1
 180 0 l 1,48,-1
 180 1066 l 2,49,50
 180 1279 180 1279 288.5 1390 c 128,-1,51
 397 1501 397 1501 591 1501 c 0,0,1
EndSplineSet
Validated: 1
EndChar

StartChar: t
Encoding: 116 116 238
Width: 1200
GlyphClass: 2
Flags: W
HStem: -25 158<628.997 959.853> 910 144<152 391 583 921>
VStem: 391 192<180.272 910 1054 1292>
AnchorPoint: "Neo-2" 600 528 basechar 0
AnchorPoint: "Neo-1" 739 0 basechar 0
AnchorPoint: "Neo-0" 487 1304 basechar 0
LayerCount: 2
Fore
SplineSet
1047 54 m 1,0,1
 991 18 991 18 912.5 -3.5 c 128,-1,2
 834 -25 834 -25 754 -25 c 0,3,4
 578 -25 578 -25 484.5 67 c 128,-1,5
 391 159 391 159 391 306 c 2,6,-1
 391 910 l 1,7,-1
 152 910 l 1,8,-1
 152 1054 l 1,9,-1
 391 1054 l 1,10,-1
 391 1292 l 1,11,-1
 583 1315 l 1,12,-1
 583 1054 l 1,13,-1
 943 1054 l 1,14,-1
 921 910 l 1,15,-1
 583 910 l 1,16,-1
 583 308 l 2,17,18
 583 221 583 221 627.5 177 c 128,-1,19
 672 133 672 133 776 133 c 0,20,21
 834 133 834 133 883.5 146.5 c 128,-1,22
 933 160 933 160 975 183 c 1,23,-1
 1047 54 l 1,0,1
EndSplineSet
Validated: 1
Substitution2: "B+HqMA-ng ph+HuUA Thay th+Hr8A +AREBoQAA-n tra t+AOwA-m 352" f_t.liga.ss10
Substitution2: "B+HqMA-ng ph+HuUA 'aalt' Truy c+Hq0A-p +AREevwAA-n m+Hs0A-i +AREe0wAA xen k+Hr0A tra t+AOwA-m 0" f_t.liga.ss10
EndChar

StartChar: tbar
Encoding: 359 359 239
Width: 1200
GlyphClass: 2
Flags: W
AnchorPoint: "Neo-2" 600 528 basechar 0
AnchorPoint: "Neo-1" 739 0 basechar 0
AnchorPoint: "Neo-0" 487 1304 basechar 0
LayerCount: 2
Fore
SplineSet
1047 54 m 1,0,1
 991 18 991 18 912.5 -3.5 c 128,-1,2
 834 -25 834 -25 754 -25 c 0,3,4
 578 -25 578 -25 484.5 67 c 128,-1,5
 391 159 391 159 391 306 c 2,6,-1
 391 567 l 1,7,-1
 174 567 l 1,8,-1
 174 707 l 1,9,-1
 391 707 l 1,10,-1
 391 910 l 1,11,-1
 152 910 l 1,12,-1
 152 1054 l 1,13,-1
 391 1054 l 1,14,-1
 391 1292 l 1,15,-1
 583 1315 l 1,16,-1
 583 1054 l 1,17,-1
 943 1054 l 1,18,-1
 921 910 l 1,19,-1
 583 910 l 1,20,-1
 583 707 l 1,21,-1
 923 707 l 1,22,-1
 923 567 l 1,23,-1
 583 567 l 1,24,-1
 583 308 l 2,25,26
 583 221 583 221 627.5 177 c 128,-1,27
 672 133 672 133 776 133 c 0,28,29
 834 133 834 133 883.5 146.5 c 128,-1,30
 933 160 933 160 975 183 c 1,31,-1
 1047 54 l 1,0,1
EndSplineSet
Validated: 1
EndChar

StartChar: u
Encoding: 117 117 243
Width: 1200
GlyphClass: 2
Flags: W
AnchorPoint: "Neo-0" 600 1054 basechar 0
LayerCount: 2
Fore
SplineSet
383 1054 m 5,0,-1
 383 312 l 6,1,2
 383 212 383 212 423.5 168.5 c 132,-1,3
 464 125 464 125 549 125 c 4,4,5
 629 125 629 125 702.5 172 c 132,-1,6
 776 219 776 219 817 284 c 5,7,-1
 817 1054 l 5,8,-1
 1009 1054 l 5,9,-1
 1009 0 l 5,10,-1
 844 0 l 5,11,-1
 830 139 l 5,12,13
 769 59 769 59 678.5 17 c 132,-1,14
 588 -25 588 -25 495 -25 c 4,15,16
 342 -25 342 -25 266.5 58 c 132,-1,17
 191 141 191 141 191 288 c 6,18,-1
 191 1054 l 5,19,-1
 383 1054 l 5,0,-1
EndSplineSet
Validated: 1
EndChar

StartChar: v
Encoding: 118 118 254
Width: 1200
GlyphClass: 2
Flags: W
AnchorPoint: "Neo-1" 600 0 basechar 0
AnchorPoint: "Neo-0" 600 1054 basechar 0
LayerCount: 2
Fore
SplineSet
1089 1054 m 1,0,-1
 711 0 l 1,1,-1
 487 0 l 1,2,-1
 111 1054 l 1,3,-1
 315 1054 l 1,4,-1
 604 167 l 1,5,-1
 892 1054 l 1,6,-1
 1089 1054 l 1,0,-1
EndSplineSet
Validated: 1048577
EndChar

StartChar: w
Encoding: 119 119 255
Width: 1200
GlyphClass: 2
Flags: W
AnchorPoint: "Neo-1" 600 0 basechar 0
AnchorPoint: "Neo-0" 600 1054 basechar 0
LayerCount: 2
Fore
SplineSet
991 0 m 1,0,-1
 735 0 l 1,1,-1
 606 763 l 1,2,-1
 467 0 l 1,3,-1
 217 0 l 1,4,-1
 30 1054 l 1,5,-1
 221 1054 l 1,6,-1
 345 119 l 1,7,-1
 504 920 l 1,8,-1
 714 920 l 1,9,-1
 863 119 l 1,10,-1
 987 1054 l 1,11,-1
 1170 1054 l 1,12,-1
 991 0 l 1,0,-1
EndSplineSet
Validated: 1048577
Substitution2: "B+HqMA-ng ph+HuUA Thay th+Hr8A +AREBoQAA-n tra t+AOwA-m 134" w.spacer
Substitution2: "B+HqMA-ng ph+HuUA Thay th+Hr8A +AREBoQAA-n tra t+AOwA-m 133" w.spacer
Substitution2: "B+HqMA-ng ph+HuUA Thay th+Hr8A +AREBoQAA-n tra t+AOwA-m 132" w_w_w.liga
AlternateSubs2: "B+HqMA-ng ph+HuUA 'aalt' Truy c+Hq0A-p +AREevwAA-n m+Hs0A-i +AREe0wAA xen k+Hr0A tra t+AOwA-m 1" w.spacer w_w_w.liga
EndChar

StartChar: x
Encoding: 120 120 260
Width: 1200
GlyphClass: 2
Flags: W
AnchorPoint: "Neo-1" 600 0 basechar 0
AnchorPoint: "Neo-0" 600 1054 basechar 0
LayerCount: 2
Fore
SplineSet
316 0 m 1,0,-1
 100 0 l 1,1,-1
 485 556 l 1,2,-1
 146 1054 l 1,3,-1
 370 1054 l 1,4,-1
 602 671 l 1,5,-1
 836 1054 l 1,6,-1
 1051 1054 l 1,7,-1
 715 564 l 1,8,-1
 1100 0 l 1,9,-1
 869 0 l 1,10,-1
 594 443 l 1,11,-1
 316 0 l 1,0,-1
EndSplineSet
Validated: 1048577
Substitution2: "B+HqMA-ng ph+HuUA Thay th+Hr8A +AREBoQAA-n tra t+AOwA-m 259" x.multiply.tosf
Substitution2: "B+HqMA-ng ph+HuUA Thay th+Hr8A +AREBoQAA-n tra t+AOwA-m 258" x.multiply
Substitution2: "B+HqMA-ng ph+HuUA Thay th+Hr8A +AREBoQAA-n tra t+AOwA-m 257" x.multiply.tosf
Substitution2: "B+HqMA-ng ph+HuUA Thay th+Hr8A +AREBoQAA-n tra t+AOwA-m 256" x.multiply
AlternateSubs2: "B+HqMA-ng ph+HuUA 'aalt' Truy c+Hq0A-p +AREevwAA-n m+Hs0A-i +AREe0wAA xen k+Hr0A tra t+AOwA-m 1" x.multiply x.multiply.tosf
EndChar

StartChar: y
Encoding: 121 121 261
Width: 1200
GlyphClass: 2
Flags: W
AnchorPoint: "Neo-0" 600 1054 basechar 0
LayerCount: 2
Fore
SplineSet
1088 1054 m 1,0,-1
 720 -6 l 2,1,2
 682 -118 682 -118 622 -208.5 c 128,-1,3
 562 -299 562 -299 467.5 -356 c 128,-1,4
 373 -413 373 -413 230 -427 c 1,5,-1
 203 -278 l 1,6,7
 311 -261 311 -261 374.5 -226 c 128,-1,8
 438 -191 438 -191 474.5 -135 c 128,-1,9
 511 -79 511 -79 540 0 c 1,10,-1
 475 0 l 1,11,-1
 112 1054 l 1,12,-1
 317 1054 l 1,13,-1
 604 140 l 1,14,-1
 890 1054 l 1,15,-1
 1088 1054 l 1,0,-1
EndSplineSet
Validated: 1
EndChar

StartChar: z
Encoding: 122 122 266
Width: 1200
GlyphClass: 2
Flags: W
AnchorPoint: "Neo-1" 600 0 basechar 0
AnchorPoint: "Neo-0" 620 1054 basechar 0
LayerCount: 2
Fore
SplineSet
428 159 m 1,0,-1
 1005 159 l 1,1,-1
 982 0 l 1,2,-1
 195 0 l 1,3,-1
 195 143 l 1,4,-1
 770 894 l 1,5,-1
 241 894 l 1,6,-1
 241 1054 l 1,7,-1
 999 1054 l 1,8,-1
 999 910 l 1,9,-1
 428 159 l 1,0,-1
EndSplineSet
Validated: 1048577
EndChar

StartChar: a.cv01
Encoding: 1114123 -1 270
Width: 1200
GlyphClass: 2
Flags: W
AnchorPoint: "Neo-1" 600 0 basechar 0
AnchorPoint: "Neo-0" 584 1054 basechar 0
LayerCount: 2
Fore
SplineSet
840 1054 m 1,0,-1
 1009 1054 l 1,1,-1
 1009 228 l 1,2,3
 1013 125 1013 125 1093 108 c 1,4,-1
 1048 -24 l 1,5,6
 983 -16 983 -16 920 22 c 128,-1,7
 857 60 857 60 824 135 c 1,8,9
 712 -25 712 -25 526 -25 c 0,10,11
 390 -25 390 -25 301.5 44.5 c 128,-1,12
 213 114 213 114 170 238 c 128,-1,13
 127 362 127 362 127 526 c 0,14,15
 127 686 127 686 176.5 810.5 c 128,-1,16
 226 935 226 935 318.5 1007 c 128,-1,17
 411 1079 411 1079 542 1079 c 0,18,19
 719 1079 719 1079 824 959 c 1,20,-1
 840 1054 l 1,0,-1
592 928 m 0,21,22
 468 928 468 928 400.5 829 c 128,-1,23
 333 730 333 730 333 526 c 0,24,25
 333 323 333 323 394.5 225 c 128,-1,26
 456 127 456 127 572 127 c 0,27,28
 655 127 655 127 715.5 174.5 c 128,-1,29
 776 222 776 222 817 286 c 1,30,-1
 817 801 l 1,31,32
 776 861 776 861 718.5 894.5 c 128,-1,33
 661 928 661 928 592 928 c 0,21,22
EndSplineSet
Validated: 1048577
EndChar

StartChar: g.cv02
Encoding: 1114133 -1 280
Width: 1200
GlyphClass: 2
Flags: W
AnchorPoint: "Neo-1" 600 0 basechar 0
AnchorPoint: "Neo-0" 590 1054 basechar 0
LayerCount: 2
Fore
SplineSet
840 1054 m 1,0,-1
 1009 1054 l 1,1,-1
 1009 228 l 1,2,-1
 1012 26 l 2,3,4
 1013 -100 1013 -100 967 -186.5 c 128,-1,5
 921 -273 921 -273 849 -326 c 128,-1,6
 777 -379 777 -379 698 -403 c 128,-1,7
 619 -427 619 -427 555 -427 c 0,8,9
 402 -427 402 -427 307.5 -378 c 128,-1,10
 213 -329 213 -329 133 -253 c 1,11,-1
 249 -142 l 1,12,13
 296 -190 296 -190 359.5 -229 c 128,-1,14
 423 -268 423 -268 547 -269 c 0,15,16
 639 -270 639 -270 700.5 -230 c 128,-1,17
 762 -190 762 -190 793 -122.5 c 128,-1,18
 824 -55 824 -55 824 26 c 2,19,-1
 824 135 l 1,20,21
 712 -25 712 -25 526 -25 c 0,22,23
 390 -25 390 -25 301.5 44.5 c 128,-1,24
 213 114 213 114 170 238 c 128,-1,25
 127 362 127 362 127 526 c 0,26,27
 127 686 127 686 176.5 810.5 c 128,-1,28
 226 935 226 935 318.5 1007 c 128,-1,29
 411 1079 411 1079 542 1079 c 0,30,31
 719 1079 719 1079 824 959 c 1,32,-1
 840 1054 l 1,0,-1
592 928 m 0,33,34
 468 928 468 928 400.5 829 c 128,-1,35
 333 730 333 730 333 526 c 0,36,37
 333 323 333 323 394.5 225 c 128,-1,38
 456 127 456 127 572 127 c 0,39,40
 655 127 655 127 715.5 174.5 c 128,-1,41
 776 222 776 222 817 286 c 1,42,-1
 817 801 l 1,43,44
 776 861 776 861 718.5 894.5 c 128,-1,45
 661 928 661 928 592 928 c 0,33,34
EndSplineSet
Validated: 1048609
EndChar

StartChar: dotlessi.cv03
Encoding: 1114139 -1 286
Width: 1200
GlyphClass: 2
Flags: W
AnchorPoint: "Neo-0" 600 1054 basechar 0
LayerCount: 2
Fore
SplineSet
696 1054 m 1,0,-1
 696 0 l 1,1,-1
 504 0 l 1,2,-1
 504 1054 l 1,3,-1
 696 1054 l 1,0,-1
EndSplineSet
Validated: 1
EndChar

StartChar: dotlessi.cv04
Encoding: 1114150 -1 297
Width: 1200
GlyphClass: 2
Flags: W
AnchorPoint: "Neo-0" 602 1054 basechar 0
LayerCount: 2
Fore
SplineSet
743 1054 m 1,0,-1
 743 0 l 1,1,-1
 551 0 l 1,2,-1
 551 908 l 1,3,-1
 240 908 l 1,4,-1
 240 1054 l 1,5,-1
 743 1054 l 1,0,-1
EndSplineSet
Validated: 1
EndChar

StartChar: dotlessi.cv05
Encoding: 1114161 -1 308
Width: 1200
GlyphClass: 2
Flags: W
AnchorPoint: "Neo-0" 602 1054 basechar 0
LayerCount: 2
Fore
SplineSet
743 1054 m 1,0,-1
 743 146 l 1,1,-1
 1036 146 l 1,2,-1
 1036 0 l 1,3,-1
 551 0 l 1,4,-1
 551 908 l 1,5,-1
 240 908 l 1,6,-1
 240 1054 l 1,7,-1
 743 1054 l 1,0,-1
EndSplineSet
Validated: 1
EndChar

StartChar: dotlessi.cv06
Encoding: 1114172 -1 319
Width: 1200
GlyphClass: 2
Flags: W
AnchorPoint: "Neo-1" 838 0 basechar 0
AnchorPoint: "Neo-0" 646 1054 basechar 0
LayerCount: 2
Fore
SplineSet
743 1054 m 1,0,-1
 743 272 l 2,1,2
 743 196 743 196 790 164.5 c 128,-1,3
 837 133 837 133 911 133 c 0,4,5
 957 133 957 133 1000 142.5 c 128,-1,6
 1043 152 1043 152 1084 169 c 1,7,-1
 1134 32 l 1,8,9
 1090 9 1090 9 1024 -8 c 128,-1,10
 958 -25 958 -25 875 -25 c 0,11,12
 726 -25 726 -25 638.5 58 c 128,-1,13
 551 141 551 141 551 286 c 2,14,-1
 551 908 l 1,15,-1
 230 908 l 1,16,-1
 230 1054 l 1,17,-1
 743 1054 l 1,0,-1
EndSplineSet
Validated: 1048577
EndChar

StartChar: l.cv07
Encoding: 1114182 -1 329
Width: 1200
GlyphClass: 2
Flags: W
AnchorPoint: "Neo-2" 1123 766 basechar 0
AnchorPoint: "Neo-1" 600 0 basechar 0
AnchorPoint: "Neo-0" 607 1478 basechar 0
LayerCount: 2
Fore
SplineSet
696 1478 m 1,0,-1
 696 0 l 1,1,-1
 504 0 l 1,2,-1
 504 1478 l 1,3,-1
 696 1478 l 1,0,-1
EndSplineSet
Validated: 1
EndChar

StartChar: lslash.cv07
Encoding: 1114187 -1 334
Width: 1200
GlyphClass: 2
Flags: W
AnchorPoint: "Neo-2" 1123 766 basechar 0
AnchorPoint: "Neo-1" 600 0 basechar 0
AnchorPoint: "Neo-0" 607 1478 basechar 0
LayerCount: 2
Fore
SplineSet
864 987 m 1,0,-1
 943 867 l 1,1,-1
 696 716 l 1,2,-1
 696 0 l 1,3,-1
 504 0 l 1,4,-1
 504 598 l 1,5,-1
 374 518 l 1,6,-1
 296 638 l 1,7,-1
 504 766 l 1,8,-1
 504 1478 l 1,9,-1
 696 1478 l 1,10,-1
 696 884 l 1,11,-1
 864 987 l 1,0,-1
EndSplineSet
Validated: 1
EndChar

StartChar: l.cv08
Encoding: 1114188 -1 335
Width: 1200
GlyphClass: 2
Flags: W
AnchorPoint: "Neo-2" 1123 766 basechar 0
AnchorPoint: "Neo-1" 729 0 basechar 0
AnchorPoint: "Neo-0" 599 1478 basechar 0
LayerCount: 2
Fore
SplineSet
696 1478 m 1,0,-1
 696 0 l 1,1,-1
 504 0 l 1,2,-1
 504 1332 l 1,3,-1
 183 1332 l 1,4,-1
 183 1478 l 1,5,-1
 696 1478 l 1,0,-1
EndSplineSet
Validated: 1
EndChar

StartChar: lslash.cv08
Encoding: 1114193 -1 340
Width: 1200
GlyphClass: 2
Flags: W
AnchorPoint: "Neo-2" 1123 766 basechar 0
AnchorPoint: "Neo-1" 729 0 basechar 0
AnchorPoint: "Neo-0" 599 1478 basechar 0
LayerCount: 2
Fore
SplineSet
864 987 m 1,0,-1
 943 867 l 1,1,-1
 696 716 l 1,2,-1
 696 0 l 1,3,-1
 504 0 l 1,4,-1
 504 598 l 1,5,-1
 374 518 l 1,6,-1
 296 638 l 1,7,-1
 504 766 l 1,8,-1
 504 1332 l 1,9,-1
 183 1332 l 1,10,-1
 183 1478 l 1,11,-1
 696 1478 l 1,12,-1
 696 884 l 1,13,-1
 864 987 l 1,0,-1
EndSplineSet
Validated: 1
EndChar

StartChar: l.cv09
Encoding: 1114194 -1 341
Width: 1200
GlyphClass: 2
Flags: W
AnchorPoint: "Neo-2" 1123 766 basechar 0
AnchorPoint: "Neo-1" 719 0 basechar 0
AnchorPoint: "Neo-0" 527 1478 basechar 0
LayerCount: 2
Fore
SplineSet
624 1478 m 1,0,-1
 624 146 l 1,1,-1
 983 146 l 1,2,-1
 983 0 l 1,3,-1
 432 0 l 1,4,-1
 432 1332 l 1,5,-1
 111 1332 l 1,6,-1
 111 1478 l 1,7,-1
 624 1478 l 1,0,-1
EndSplineSet
Validated: 1
EndChar

StartChar: lslash.cv09
Encoding: 1114199 -1 346
Width: 1200
GlyphClass: 2
Flags: W
AnchorPoint: "Neo-2" 1123 766 basechar 0
AnchorPoint: "Neo-1" 719 0 basechar 0
AnchorPoint: "Neo-0" 527 1478 basechar 0
LayerCount: 2
Fore
SplineSet
793 987 m 1,0,-1
 871 867 l 1,1,-1
 624 716 l 1,2,-1
 624 146 l 1,3,-1
 983 146 l 1,4,-1
 983 0 l 1,5,-1
 432 0 l 1,6,-1
 432 598 l 1,7,-1
 302 518 l 1,8,-1
 224 638 l 1,9,-1
 432 766 l 1,10,-1
 432 1332 l 1,11,-1
 111 1332 l 1,12,-1
 111 1478 l 1,13,-1
 624 1478 l 1,14,-1
 624 884 l 1,15,-1
 793 987 l 1,0,-1
EndSplineSet
Validated: 1
EndChar

StartChar: l.cv10
Encoding: 1114200 -1 347
Width: 1200
GlyphClass: 2
Flags: W
AnchorPoint: "Neo-2" 1123 766 basechar 0
AnchorPoint: "Neo-1" 647 0 basechar 0
AnchorPoint: "Neo-0" 646 1478 basechar 0
LayerCount: 2
Fore
SplineSet
743 1478 m 1,0,-1
 743 146 l 1,1,-1
 1036 146 l 1,2,-1
 1036 0 l 1,3,-1
 230 0 l 1,4,-1
 230 146 l 1,5,-1
 551 146 l 1,6,-1
 551 1332 l 1,7,-1
 240 1332 l 1,8,-1
 240 1478 l 1,9,-1
 743 1478 l 1,0,-1
EndSplineSet
Validated: 1
EndChar

StartChar: lslash.cv10
Encoding: 1114205 -1 352
Width: 1200
GlyphClass: 2
Flags: W
AnchorPoint: "Neo-2" 1123 766 basechar 0
AnchorPoint: "Neo-1" 647 0 basechar 0
AnchorPoint: "Neo-0" 646 1478 basechar 0
LayerCount: 2
Fore
SplineSet
912 987 m 1,0,-1
 990 867 l 1,1,-1
 743 716 l 1,2,-1
 743 146 l 1,3,-1
 1036 146 l 1,4,-1
 1036 0 l 1,5,-1
 230 0 l 1,6,-1
 230 146 l 1,7,-1
 551 146 l 1,8,-1
 551 598 l 1,9,-1
 421 518 l 1,10,-1
 343 638 l 1,11,-1
 551 766 l 1,12,-1
 551 1332 l 1,13,-1
 240 1332 l 1,14,-1
 240 1478 l 1,15,-1
 743 1478 l 1,16,-1
 743 884 l 1,17,-1
 912 987 l 1,0,-1
EndSplineSet
Validated: 1
EndChar

StartChar: x.multiply
Encoding: 1114211 -1 358
Width: 1200
GlyphClass: 1
Flags: W
LayerCount: 2
Fore
SplineSet
890 1058 m 1,0,-1
 1008 940 l 1,1,-1
 717 650 l 1,2,-1
 1008 356 l 1,3,-1
 890 238 l 1,4,-1
 600 533 l 1,5,-1
 306 238 l 1,6,-1
 188 356 l 1,7,-1
 483 650 l 1,8,-1
 188 940 l 1,9,-1
 306 1058 l 1,10,-1
 600 768 l 1,11,-1
 890 1058 l 1,0,-1
EndSplineSet
Validated: 1
Substitution2: "B+HqMA-ng ph+HuUA 'onum' H+AOwA-nh ki+HsMA-u c+AWkA tra t+AOwA-m 15" x.multiply.tosf
Substitution2: "B+HqMA-ng ph+HuUA 'aalt' Truy c+Hq0A-p +AREevwAA-n m+Hs0A-i +AREe0wAA xen k+Hr0A tra t+AOwA-m 0" x.multiply.tosf
EndChar

StartChar: r.ss01
Encoding: 1114215 -1 362
Width: 1200
GlyphClass: 2
Flags: W
AnchorPoint: "Neo-1" 457 0 basechar 0
AnchorPoint: "Neo-0" 659 1054 basechar 0
LayerCount: 2
Fore
SplineSet
201 0 m 1,0,-1
 201 142 l 1,1,-1
 361 142 l 1,2,-1
 361 912 l 1,3,-1
 201 912 l 1,4,-1
 201 1054 l 1,5,-1
 508 1054 l 1,6,-1
 543 807 l 1,7,8
 603 938 603 938 690.5 1008.5 c 128,-1,9
 778 1079 778 1079 918 1079 c 0,10,11
 964 1079 964 1079 999.5 1072 c 128,-1,12
 1035 1065 1035 1065 1072 1054 c 1,13,-1
 1015 886 l 1,14,15
 982 895 982 895 954.5 899.5 c 128,-1,16
 927 904 927 904 893 904 c 0,17,18
 656 904 656 904 553 565 c 1,19,-1
 553 142 l 1,20,-1
 767 142 l 1,21,-1
 767 0 l 1,22,-1
 201 0 l 1,0,-1
EndSplineSet
Validated: 1048577
EndChar

StartChar: i.salt_low
Encoding: 1114217 -1 364
Width: 1200
GlyphClass: 2
Flags: W
AnchorPoint: "Neo-1" 600 0 basechar 0
LayerCount: 2
Fore
SplineSet
600 1489 m 0,0,1
 660 1489 660 1489 696.5 1452 c 128,-1,2
 733 1415 733 1415 733 1362 c 0,3,4
 733 1306 733 1306 696.5 1269 c 128,-1,5
 660 1232 660 1232 600 1232 c 0,6,7
 541 1232 541 1232 504.5 1269 c 128,-1,8
 468 1306 468 1306 468 1362 c 0,9,10
 468 1415 468 1415 504.5 1452 c 128,-1,11
 541 1489 541 1489 600 1489 c 0,0,1
743 975 m 1,12,-1
 743 146 l 1,13,-1
 1036 146 l 1,14,-1
 1036 0 l 1,15,-1
 230 0 l 1,16,-1
 230 146 l 1,17,-1
 551 146 l 1,18,-1
 551 829 l 1,19,-1
 240 829 l 1,20,-1
 240 975 l 1,21,-1
 743 975 l 1,12,-1
EndSplineSet
Validated: 1048577
Substitution2: "B+HqMA-ng ph+HuUA Thay th+Hr8A +AREBoQAA-n tra t+AOwA-m 346" f_i.liga.ss10
Substitution2: "B+HqMA-ng ph+HuUA 'aalt' Truy c+Hq0A-p +AREevwAA-n m+Hs0A-i +AREe0wAA xen k+Hr0A tra t+AOwA-m 0" f_i.liga.ss10
EndChar

StartChar: j.salt_low
Encoding: 1114218 -1 365
Width: 1200
GlyphClass: 2
Flags: W
AnchorPoint: "Neo-0" 736 1054 basechar 0
LayerCount: 2
Fore
SplineSet
734 1489 m 0,0,1
 794 1489 794 1489 831 1452 c 128,-1,2
 868 1415 868 1415 868 1362 c 0,3,4
 868 1306 868 1306 831 1269 c 128,-1,5
 794 1232 794 1232 734 1232 c 0,6,7
 676 1232 676 1232 639.5 1269 c 128,-1,8
 603 1306 603 1306 603 1362 c 0,9,10
 603 1415 603 1415 639.5 1452 c 128,-1,11
 676 1489 676 1489 734 1489 c 0,0,1
899 975 m 1,12,-1
 899 192 l 2,13,14
 899 7 899 7 818.5 -116.5 c 128,-1,15
 738 -240 738 -240 585 -314.5 c 128,-1,16
 432 -389 432 -389 214 -427 c 1,17,-1
 183 -279 l 1,18,19
 339 -251 339 -251 457 -199 c 128,-1,20
 575 -147 575 -147 641 -56 c 128,-1,21
 707 35 707 35 707 179 c 2,22,-1
 707 829 l 1,23,-1
 278 829 l 1,24,-1
 278 975 l 1,25,-1
 899 975 l 1,12,-1
EndSplineSet
Validated: 1
Substitution2: "B+HqMA-ng ph+HuUA Thay th+Hr8A +AREBoQAA-n tra t+AOwA-m 348" f_j.liga.ss10
Substitution2: "B+HqMA-ng ph+HuUA 'aalt' Truy c+Hq0A-p +AREevwAA-n m+Hs0A-i +AREe0wAA xen k+Hr0A tra t+AOwA-m 0" f_j.liga.ss10
EndChar

StartChar: l.salt_low
Encoding: 1114219 -1 366
Width: 1200
GlyphClass: 2
Flags: W
AnchorPoint: "Neo-2" 1123 766 basechar 0
AnchorPoint: "Neo-1" 719 0 basechar 0
AnchorPoint: "Neo-0" 527 1378 basechar 0
LayerCount: 2
Fore
SplineSet
624 1378 m 1,0,-1
 624 272 l 2,1,2
 624 196 624 196 671 164.5 c 128,-1,3
 718 133 718 133 792 133 c 0,4,5
 839 133 839 133 881.5 142.5 c 128,-1,6
 924 152 924 152 965 169 c 1,7,-1
 1015 32 l 1,8,9
 971 9 971 9 905 -8 c 128,-1,10
 839 -25 839 -25 756 -25 c 0,11,12
 607 -25 607 -25 519.5 58 c 128,-1,13
 432 141 432 141 432 286 c 2,14,-1
 432 1213 l 1,15,-1
 111 1213 l 1,16,-1
 111 1378 l 1,17,-1
 624 1378 l 1,0,-1
EndSplineSet
Validated: 1
Substitution2: "B+HqMA-ng ph+HuUA Thay th+Hr8A +AREBoQAA-n tra t+AOwA-m 344" F_l.liga.ss10
Substitution2: "B+HqMA-ng ph+HuUA Thay th+Hr8A +AREBoQAA-n tra t+AOwA-m 342" T_l.liga.ss10
AlternateSubs2: "B+HqMA-ng ph+HuUA 'aalt' Truy c+Hq0A-p +AREevwAA-n m+Hs0A-i +AREe0wAA xen k+Hr0A tra t+AOwA-m 1" F_l.liga.ss10 T_l.liga.ss10
EndChar

StartChar: w_w_w.liga
Encoding: 1114220 -1 367
Width: 1200
GlyphClass: 3
Flags: W
LayerCount: 2
Fore
SplineSet
828 1054 m 1,0,-1
 1010 1054 l 1,1,-1
 832 0 l 1,2,-1
 576 0 l 1,3,-1
 446 763 l 1,4,-1
 286 0 l 1,5,-1
 41 0 l 1,6,-1
 -84 763 l 1,7,-1
 -211 0 l 1,8,-1
 -462 0 l 1,9,-1
 -594 763 l 1,10,-1
 -735 0 l 1,11,-1
 -981 0 l 1,12,-1
 -1114 763 l 1,13,-1
 -1252 0 l 1,14,-1
 -1503 0 l 1,15,-1
 -1634 763 l 1,16,-1
 -1774 0 l 1,17,-1
 -2024 0 l 1,18,-1
 -2210 1054 l 1,19,-1
 -2020 1054 l 1,20,-1
 -1895 119 l 1,21,-1
 -1736 920 l 1,22,-1
 -1526 920 l 1,23,-1
 -1376 119 l 1,24,-1
 -1218 920 l 1,25,-1
 -1004 920 l 1,26,-1
 -857 119 l 1,27,-1
 -696 920 l 1,28,-1
 -487 920 l 1,29,-1
 -335 119 l 1,30,-1
 -188 920 l 1,31,-1
 26 920 l 1,32,-1
 166 119 l 1,33,-1
 344 920 l 1,34,-1
 554 920 l 1,35,-1
 703 119 l 1,36,-1
 828 1054 l 1,0,-1
EndSplineSet
Validated: 1
EndChar

StartChar: f_i.liga.ss10
Encoding: 1114221 -1 368
Width: 1200
GlyphClass: 3
Flags: W
LayerCount: 2
Fore
SplineSet
600 1506 m 0,0,1
 660 1506 660 1506 696.5 1469.5 c 128,-1,2
 733 1433 733 1433 733 1379 c 0,3,4
 733 1324 733 1324 696.5 1286.5 c 128,-1,5
 660 1249 660 1249 600 1249 c 0,6,7
 541 1249 541 1249 504.5 1286.5 c 128,-1,8
 468 1324 468 1324 468 1379 c 0,9,10
 468 1433 468 1433 504.5 1469.5 c 128,-1,11
 541 1506 541 1506 600 1506 c 0,0,1
743 975 m 1,12,-1
 743 146 l 1,13,-1
 1036 146 l 1,14,-1
 1036 0 l 1,15,-1
 230 0 l 1,16,-1
 230 146 l 1,17,-1
 551 146 l 1,18,-1
 551 829 l 1,19,-1
 -580 829 l 1,20,-1
 -580 0 l 1,21,-1
 -771 0 l 1,22,-1
 -771 829 l 1,23,-1
 -1018 829 l 1,24,-1
 -1018 975 l 1,25,-1
 -771 975 l 1,26,-1
 -771 1176 l 2,27,28
 -771 1274 -771 1274 -720.5 1347 c 128,-1,29
 -670 1420 -670 1420 -581.5 1460.5 c 128,-1,30
 -493 1501 -493 1501 -378 1501 c 0,31,32
 -288 1501 -288 1501 -216 1485.5 c 128,-1,33
 -144 1470 -144 1470 -80 1442 c 1,34,-1
 -140 1304 l 1,35,36
 -191 1327 -191 1327 -248.5 1337.5 c 128,-1,37
 -306 1348 -306 1348 -366 1348 c 0,38,39
 -580 1348 -580 1348 -580 1177 c 2,40,-1
 -580 975 l 1,41,-1
 743 975 l 1,12,-1
EndSplineSet
Validated: 1
EndChar

StartChar: f_j.liga.ss10
Encoding: 1114222 -1 369
Width: 1200
GlyphClass: 3
Flags: W
LayerCount: 2
Fore
SplineSet
899 975 m 1,0,-1
 899 192 l 2,1,2
 899 7 899 7 818.5 -116.5 c 128,-1,3
 738 -240 738 -240 585 -314.5 c 128,-1,4
 432 -389 432 -389 214 -427 c 1,5,-1
 183 -279 l 1,6,7
 339 -251 339 -251 457 -199 c 128,-1,8
 575 -147 575 -147 641 -56 c 128,-1,9
 707 35 707 35 707 179 c 2,10,-1
 707 829 l 1,11,-1
 -580 829 l 1,12,-1
 -580 0 l 1,13,-1
 -771 0 l 1,14,-1
 -771 829 l 1,15,-1
 -1018 829 l 1,16,-1
 -1018 975 l 1,17,-1
 -771 975 l 1,18,-1
 -771 1176 l 2,19,20
 -771 1274 -771 1274 -720.5 1347 c 128,-1,21
 -670 1420 -670 1420 -581.5 1460.5 c 128,-1,22
 -493 1501 -493 1501 -378 1501 c 0,23,24
 -288 1501 -288 1501 -216 1485.5 c 128,-1,25
 -144 1470 -144 1470 -80 1442 c 1,26,-1
 -140 1304 l 1,27,28
 -191 1327 -191 1327 -248.5 1337.5 c 128,-1,29
 -306 1348 -306 1348 -366 1348 c 0,30,31
 -580 1348 -580 1348 -580 1177 c 2,32,-1
 -580 975 l 1,33,-1
 899 975 l 1,0,-1
734 1477 m 0,34,35
 794 1477 794 1477 831 1440.5 c 128,-1,36
 868 1404 868 1404 868 1350 c 0,37,38
 868 1295 868 1295 831 1257.5 c 128,-1,39
 794 1220 794 1220 734 1220 c 0,40,41
 676 1220 676 1220 639.5 1257.5 c 128,-1,42
 603 1295 603 1295 603 1350 c 0,43,44
 603 1404 603 1404 639.5 1440.5 c 128,-1,45
 676 1477 676 1477 734 1477 c 0,34,35
EndSplineSet
Validated: 1
EndChar

StartChar: f_l.liga.ss10
Encoding: 1114223 -1 370
Width: 1200
GlyphClass: 3
Flags: W
LayerCount: 2
Fore
SplineSet
624 1479 m 1,0,-1
 624 272 l 2,1,2
 624 196 624 196 671 164.5 c 128,-1,3
 718 133 718 133 792 133 c 0,4,5
 839 133 839 133 881.5 142.5 c 128,-1,6
 924 152 924 152 965 169 c 1,7,-1
 1015 32 l 1,8,9
 971 9 971 9 905 -8 c 128,-1,10
 839 -25 839 -25 756 -25 c 0,11,12
 607 -25 607 -25 519.5 58 c 128,-1,13
 432 141 432 141 432 286 c 2,14,-1
 432 1327 l 1,15,-1
 -366 1327 l 2,16,17
 -580 1327 -580 1327 -580 1156 c 2,18,-1
 -580 975 l 1,19,-1
 -224 975 l 1,20,-1
 -245 829 l 1,21,-1
 -580 829 l 1,22,-1
 -580 0 l 1,23,-1
 -771 0 l 1,24,-1
 -771 829 l 1,25,-1
 -1018 829 l 1,26,-1
 -1018 975 l 1,27,-1
 -771 975 l 1,28,-1
 -771 1155 l 2,29,30
 -771 1253 -771 1253 -720.5 1326 c 128,-1,31
 -670 1399 -670 1399 -581.5 1439 c 128,-1,32
 -493 1479 -493 1479 -378 1479 c 2,33,-1
 624 1479 l 1,0,-1
EndSplineSet
Validated: 1
EndChar

StartChar: f_t.liga.ss10
Encoding: 1114224 -1 371
Width: 1200
GlyphClass: 3
Flags: W
LayerCount: 2
Fore
SplineSet
391 975 m 1,0,-1
 391 1292 l 1,1,-1
 583 1315 l 1,2,-1
 583 975 l 1,3,-1
 943 975 l 1,4,-1
 921 829 l 1,5,-1
 583 829 l 1,6,-1
 583 308 l 2,7,8
 583 221 583 221 627.5 177 c 128,-1,9
 672 133 672 133 776 133 c 0,10,11
 834 133 834 133 883.5 146.5 c 128,-1,12
 933 160 933 160 975 183 c 1,13,-1
 1047 54 l 1,14,15
 991 18 991 18 912.5 -3.5 c 128,-1,16
 834 -25 834 -25 754 -25 c 0,17,18
 578 -25 578 -25 484.5 67 c 128,-1,19
 391 159 391 159 391 306 c 2,20,-1
 391 829 l 1,21,-1
 -580 829 l 1,22,-1
 -580 0 l 1,23,-1
 -771 0 l 1,24,-1
 -771 829 l 1,25,-1
 -1018 829 l 1,26,-1
 -1018 975 l 1,27,-1
 -771 975 l 1,28,-1
 -771 1176 l 2,29,30
 -771 1274 -771 1274 -720.5 1347 c 128,-1,31
 -670 1420 -670 1420 -581.5 1460.5 c 128,-1,32
 -493 1501 -493 1501 -378 1501 c 0,33,34
 -288 1501 -288 1501 -216 1485.5 c 128,-1,35
 -144 1470 -144 1470 -80 1442 c 1,36,-1
 -140 1304 l 1,37,38
 -191 1327 -191 1327 -248.5 1337.5 c 128,-1,39
 -306 1348 -306 1348 -366 1348 c 0,40,41
 -580 1348 -580 1348 -580 1177 c 2,42,-1
 -580 975 l 1,43,-1
 391 975 l 1,0,-1
EndSplineSet
Validated: 1
EndChar

StartChar: uni207F
Encoding: 8319 8319 372
Width: 1200
GlyphClass: 1
Flags: W
LayerCount: 2
Fore
SplineSet
670 1446 m 0,0,1
 774 1446 774 1446 823 1392 c 128,-1,2
 872 1338 872 1338 872 1240 c 2,3,-1
 872 756 l 1,4,-1
 715 756 l 1,5,-1
 715 1167 l 2,6,7
 715 1250 715 1250 700 1286.5 c 128,-1,8
 685 1323 685 1323 630 1323 c 0,9,10
 589 1323 589 1323 551 1295 c 128,-1,11
 513 1267 513 1267 487 1232 c 1,12,-1
 487 756 l 1,13,-1
 330 756 l 1,14,-1
 330 1432 l 1,15,-1
 470 1432 l 1,16,-1
 477 1352 l 1,17,18
 517 1402 517 1402 569.5 1424 c 128,-1,19
 622 1446 622 1446 670 1446 c 0,0,1
EndSplineSet
Validated: 1
EndChar

StartChar: ordfeminine
Encoding: 170 170 373
Width: 1200
GlyphClass: 1
Flags: W
LayerCount: 2
Fore
SplineSet
580 1501 m 0,0,1
 755 1501 755 1501 838 1426 c 128,-1,2
 921 1351 921 1351 921 1218 c 2,3,-1
 921 833 l 2,4,5
 921 788 921 788 937.5 766 c 128,-1,6
 954 744 954 744 986 734 c 1,7,-1
 945 614 l 1,8,9
 879 621 879 621 836 648.5 c 128,-1,10
 793 676 793 676 770 732 c 1,11,12
 721 675 721 675 650 644.5 c 128,-1,13
 579 614 579 614 502 614 c 0,14,15
 366 614 366 614 282 687 c 128,-1,16
 198 760 198 760 198 880 c 0,17,18
 198 1014 198 1014 313 1085.5 c 128,-1,19
 428 1157 428 1157 632 1157 c 2,20,-1
 747 1157 l 1,21,-1
 747 1212 l 2,22,23
 747 1294 747 1294 697.5 1327.5 c 128,-1,24
 648 1361 648 1361 555 1361 c 0,25,26
 514 1361 514 1361 450 1350 c 128,-1,27
 386 1339 386 1339 314 1314 c 1,28,-1
 265 1441 l 1,29,30
 354 1474 354 1474 433.5 1487.5 c 128,-1,31
 513 1501 513 1501 580 1501 c 0,0,1
747 1037 m 1,32,-1
 640 1037 l 2,33,34
 506 1037 506 1037 446 998.5 c 128,-1,35
 386 960 386 960 386 888 c 256,36,37
 386 816 386 816 428 779.5 c 128,-1,38
 470 743 470 743 546 743 c 0,39,40
 604 743 604 743 657 772.5 c 128,-1,41
 710 802 710 802 747 852 c 1,42,-1
 747 1037 l 1,32,-1
1002 162 m 1,43,-1
 1002 0 l 1,44,-1
 209 0 l 1,45,-1
 209 162 l 1,46,-1
 1002 162 l 1,43,-1
EndSplineSet
Validated: 1
EndChar

StartChar: ordmasculine
Encoding: 186 186 374
Width: 1200
GlyphClass: 1
Flags: W
LayerCount: 2
Fore
SplineSet
600 1501 m 0,0,1
 790 1501 790 1501 901 1380 c 128,-1,2
 1012 1259 1012 1259 1012 1058 c 0,3,4
 1012 927 1012 927 961.5 827 c 128,-1,5
 911 727 911 727 818.5 670.5 c 128,-1,6
 726 614 726 614 600 614 c 0,7,8
 473 614 473 614 380 669 c 128,-1,9
 287 724 287 724 236.5 824 c 128,-1,10
 186 924 186 924 186 1058 c 0,11,12
 186 1188 186 1188 237 1288 c 128,-1,13
 288 1388 288 1388 381 1444.5 c 128,-1,14
 474 1501 474 1501 600 1501 c 0,0,1
600 1361 m 256,15,16
 495 1361 495 1361 433.5 1288 c 128,-1,17
 372 1215 372 1215 372 1058 c 256,18,19
 372 901 372 901 433.5 827 c 128,-1,20
 495 753 495 753 600 753 c 256,21,22
 705 753 705 753 765.5 827 c 128,-1,23
 826 901 826 901 826 1058 c 256,24,25
 826 1215 826 1215 765.5 1288 c 128,-1,26
 705 1361 705 1361 600 1361 c 256,15,16
997 162 m 1,27,-1
 997 0 l 1,28,-1
 205 0 l 1,29,-1
 205 162 l 1,30,-1
 997 162 l 1,27,-1
EndSplineSet
Validated: 1
EndChar

StartChar: uni0411
Encoding: 1041 1041 376
Width: 1200
GlyphClass: 2
Flags: W
AnchorPoint: "Neo-1" 600 0 basechar 0
AnchorPoint: "Neo-0" 600 1378 basechar 0
LayerCount: 2
Fore
SplineSet
973 1378 m 1,0,-1
 954 1217 l 1,1,-1
 386 1217 l 1,2,-1
 386 848 l 1,3,-1
 554 848 l 2,4,5
 805 848 805 848 949 749.5 c 128,-1,6
 1093 651 1093 651 1093 433 c 0,7,8
 1093 277 1093 277 1024.5 181.5 c 128,-1,9
 956 86 956 86 835.5 43 c 128,-1,10
 715 0 715 0 559 0 c 2,11,-1
 187 0 l 1,12,-1
 187 1378 l 1,13,-1
 973 1378 l 1,0,-1
571 695 m 2,14,-1
 386 695 l 1,15,-1
 386 158 l 1,16,-1
 572 158 l 2,17,18
 664 158 664 158 735 180.5 c 128,-1,19
 806 203 806 203 846 262 c 128,-1,20
 886 321 886 321 886 431 c 0,21,22
 886 576 886 576 798.5 635.5 c 128,-1,23
 711 695 711 695 571 695 c 2,14,-1
EndSplineSet
Validated: 1048577
EndChar

StartChar: uni0413
Encoding: 1043 1043 378
Width: 1200
GlyphClass: 2
Flags: W
AnchorPoint: "Neo-1" 357 0 basechar 0
AnchorPoint: "Neo-0" 692 1378 basechar 0
LayerCount: 2
Fore
SplineSet
1094 1378 m 1,0,-1
 1073 1209 l 1,1,-1
 455 1209 l 1,2,-1
 455 0 l 1,3,-1
 257 0 l 1,4,-1
 257 1378 l 1,5,-1
 1094 1378 l 1,0,-1
EndSplineSet
Validated: 1048577
EndChar

StartChar: uni0490
Encoding: 1168 1168 380
Width: 1200
GlyphClass: 2
Flags: W
AnchorPoint: "Neo-1" 357 0 basechar 0
AnchorPoint: "Neo-0" 692 1378 basechar 0
LayerCount: 2
Fore
SplineSet
1094 1378 m 1,0,-1
 1073 1209 l 1,1,-1
 455 1209 l 1,2,-1
 455 0 l 1,3,-1
 257 0 l 1,4,-1
 257 1378 l 1,5,-1
 902 1378 l 1,6,-1
 902 1673 l 1,7,-1
 1094 1673 l 1,8,-1
 1094 1378 l 1,0,-1
EndSplineSet
Validated: 1048577
EndChar

StartChar: uni04F6
Encoding: 1270 1270 381
Width: 1200
GlyphClass: 2
Flags: W
AnchorPoint: "Neo-1" 357 0 basechar 0
AnchorPoint: "Neo-0" 692 1378 basechar 0
LayerCount: 2
Fore
SplineSet
577 161 m 1,0,-1
 577 -303 l 1,1,-1
 421 -303 l 1,2,-1
 390 0 l 1,3,-1
 257 0 l 1,4,-1
 257 1378 l 1,5,-1
 1094 1378 l 1,6,-1
 1073 1209 l 1,7,-1
 455 1209 l 1,8,-1
 455 161 l 1,9,-1
 577 161 l 1,0,-1
EndSplineSet
Validated: 1048577
EndChar

StartChar: uni0492
Encoding: 1170 1170 382
Width: 1200
GlyphClass: 2
Flags: W
AnchorPoint: "Neo-1" 416 0 basechar 0
AnchorPoint: "Neo-0" 751 1378 basechar 0
LayerCount: 2
Fore
SplineSet
825 866 m 1,0,-1
 825 723 l 1,1,-1
 514 723 l 1,2,-1
 514 0 l 1,3,-1
 316 0 l 1,4,-1
 316 723 l 1,5,-1
 123 723 l 1,6,-1
 123 866 l 1,7,-1
 316 866 l 1,8,-1
 316 1378 l 1,9,-1
 1153 1378 l 1,10,-1
 1132 1209 l 1,11,-1
 514 1209 l 1,12,-1
 514 866 l 1,13,-1
 825 866 l 1,0,-1
EndSplineSet
Validated: 1048577
EndChar

StartChar: uni0494
Encoding: 1172 1172 383
Width: 1200
GlyphClass: 2
Flags: W
AnchorPoint: "Neo-1" 600 -406 basechar 0
AnchorPoint: "Neo-0" 600 1378 basechar 0
LayerCount: 2
Fore
SplineSet
796 -428 m 0,0,1
 716 -428 716 -428 659 -404 c 128,-1,2
 602 -380 602 -380 564 -351 c 1,3,-1
 638 -225 l 1,4,5
 672 -245 672 -245 704 -257.5 c 128,-1,6
 736 -270 736 -270 785 -270 c 0,7,8
 843 -270 843 -270 874.5 -235 c 128,-1,9
 906 -200 906 -200 906 -123 c 2,10,-1
 906 2 l 1,11,-1
 906 2 l 1,12,-1
 906 468 l 2,13,14
 906 739 906 739 667 739 c 0,15,16
 562 739 562 739 489 700.5 c 128,-1,17
 416 662 416 662 354 594 c 1,18,-1
 354 0 l 1,19,-1
 156 0 l 1,20,-1
 156 1378 l 1,21,-1
 944 1378 l 1,22,-1
 919 1217 l 1,23,-1
 354 1217 l 1,24,-1
 354 762 l 1,25,26
 421 831 421 831 506.5 868.5 c 128,-1,27
 592 906 592 906 706 906 c 0,28,29
 891 906 891 906 997.5 790.5 c 128,-1,30
 1104 675 1104 675 1104 470 c 2,31,-1
 1104 0 l 1,32,-1
 1104 0 l 1,33,-1
 1104 -110 l 2,34,35
 1104 -269 1104 -269 1020.5 -348.5 c 128,-1,36
 937 -428 937 -428 796 -428 c 0,0,1
EndSplineSet
Validated: 1048577
EndChar

StartChar: uni0414
Encoding: 1044 1044 384
Width: 1200
GlyphClass: 2
Flags: W
AnchorPoint: "Neo-1" 600 -406 basechar 0
AnchorPoint: "Neo-0" 600 1378 basechar 0
LayerCount: 2
Fore
SplineSet
-3 161 m 1,0,-1
 81 161 l 1,1,2
 121 201 121 201 146.5 254 c 128,-1,3
 172 307 172 307 191.5 394.5 c 128,-1,4
 211 482 211 482 230.5 622.5 c 128,-1,5
 250 763 250 763 277 976 c 2,6,-1
 327 1378 l 1,7,-1
 1031 1378 l 1,8,-1
 1031 161 l 1,9,-1
 1133 161 l 1,10,-1
 1133 -303 l 1,11,-1
 977 -303 l 1,12,-1
 946 0 l 1,13,-1
 184 0 l 1,14,-1
 153 -303 l 1,15,-1
 -3 -303 l 1,16,-1
 -3 161 l 1,0,-1
834 1218 m 1,17,-1
 499 1218 l 1,18,-1
 472 970 l 2,19,20
 450 768 450 768 431 631 c 128,-1,21
 412 494 412 494 391 405 c 128,-1,22
 370 316 370 316 339.5 259 c 128,-1,23
 309 202 309 202 263 161 c 1,24,-1
 834 161 l 1,25,-1
 834 1218 l 1,17,-1
EndSplineSet
Validated: 1048577
EndChar

StartChar: uni0416
Encoding: 1046 1046 388
Width: 1200
GlyphClass: 2
Flags: W
AnchorPoint: "Neo-1" 600 0 basechar 0
AnchorPoint: "Neo-0" 600 1378 basechar 0
LayerCount: 2
Fore
SplineSet
519 651 m 1,0,-1
 406 651 l 1,1,-1
 207 0 l 1,2,-1
 21 0 l 1,3,-1
 261 734 l 1,4,-1
 48 1378 l 1,5,-1
 232 1378 l 1,6,-1
 408 796 l 1,7,-1
 519 796 l 1,8,-1
 519 1378 l 1,9,-1
 681 1378 l 1,10,-1
 681 796 l 1,11,-1
 792 796 l 1,12,-1
 970 1378 l 1,13,-1
 1152 1378 l 1,14,-1
 939 734 l 1,15,-1
 1179 0 l 1,16,-1
 989 0 l 1,17,-1
 792 651 l 1,18,-1
 681 651 l 1,19,-1
 681 0 l 1,20,-1
 519 0 l 1,21,-1
 519 651 l 1,0,-1
EndSplineSet
Validated: 1048577
EndChar

StartChar: uni0417
Encoding: 1047 1047 389
Width: 1200
GlyphClass: 2
Flags: W
AnchorPoint: "Neo-1" 585 0 basechar 0
AnchorPoint: "Neo-0" 593 1378 basechar 0
LayerCount: 2
Fore
SplineSet
562 1403 m 0,0,1
 710 1403 710 1403 817.5 1357 c 128,-1,2
 925 1311 925 1311 984 1230 c 128,-1,3
 1043 1149 1043 1149 1043 1043 c 0,4,5
 1043 915 1043 915 959 840.5 c 128,-1,6
 875 766 875 766 753 747 c 1,7,8
 842 739 842 739 918.5 699 c 128,-1,9
 995 659 995 659 1041.5 586 c 128,-1,10
 1088 513 1088 513 1088 407 c 0,11,12
 1088 283 1088 283 1023.5 185.5 c 128,-1,13
 959 88 959 88 839 31.5 c 128,-1,14
 719 -25 719 -25 553 -25 c 0,15,16
 403 -25 403 -25 277 26 c 128,-1,17
 151 77 151 77 61 172 c 1,18,-1
 178 279 l 1,19,20
 257 211 257 211 350.5 173.5 c 128,-1,21
 444 136 444 136 553 136 c 0,22,23
 708 136 708 136 793.5 208 c 128,-1,24
 879 280 879 280 879 404 c 0,25,26
 879 538 879 538 790.5 597.5 c 128,-1,27
 702 657 702 657 566 657 c 2,28,-1
 324 657 l 1,29,-1
 347 818 l 1,30,-1
 554 818 l 2,31,32
 630 818 630 818 695.5 840.5 c 128,-1,33
 761 863 761 863 801 911 c 128,-1,34
 841 959 841 959 841 1035 c 0,35,36
 841 1140 841 1140 759.5 1193 c 128,-1,37
 678 1246 678 1246 555 1246 c 0,38,39
 443 1246 443 1246 358 1211.5 c 128,-1,40
 273 1177 273 1177 197 1117 c 1,41,-1
 89 1231 l 1,42,43
 191 1317 191 1317 308 1360 c 128,-1,44
 425 1403 425 1403 562 1403 c 0,0,1
EndSplineSet
Validated: 1048577
EndChar

StartChar: uni0418
Encoding: 1048 1048 390
Width: 1200
GlyphClass: 2
Flags: W
HStem: 0 21G<157 414.007 850 1043> 1358 20G<157 350 789.987 1043>
VStem: 157 193<177.406 1378> 850 193<0 1174.94>
AnchorPoint: "Neo-1" 600 0 basechar 0
AnchorPoint: "Neo-0" 600 1378 basechar 0
LayerCount: 2
Fore
SplineSet
157 0 m 1,0,-1
 157 1378 l 1,1,-1
 350 1378 l 1,2,-1
 350 719 l 2,3,4
 350 594 350 594 346 500.5 c 128,-1,5
 342 407 342 407 334.5 329.5 c 128,-1,6
 327 252 327 252 316 175 c 1,7,-1
 798 1378 l 1,8,-1
 1043 1378 l 1,9,-1
 1043 0 l 1,10,-1
 850 0 l 1,11,-1
 850 659 l 2,12,13
 850 823 850 823 860.5 958.5 c 128,-1,14
 871 1094 871 1094 884 1194 c 1,15,-1
 406 0 l 1,16,-1
 157 0 l 1,0,-1
EndSplineSet
Validated: 1048577
EndChar

StartChar: uni048A
Encoding: 1162 1162 393
Width: 1200
GlyphClass: 2
Flags: W
AnchorPoint: "Neo-1" 600 0 basechar 0
AnchorPoint: "Neo-0" 600 1378 basechar 0
LayerCount: 2
Fore
SplineSet
596 1534 m 0,0,1
 473 1534 473 1534 389 1597.5 c 128,-1,2
 305 1661 305 1661 293 1773 c 1,3,-1
 419 1799 l 1,4,5
 439 1735 439 1735 482.5 1707 c 128,-1,6
 526 1679 526 1679 596 1679 c 0,7,8
 667 1679 667 1679 713 1707 c 128,-1,9
 759 1735 759 1735 779 1799 c 1,10,-1
 904 1773 l 1,11,12
 892 1661 892 1661 806 1597.5 c 128,-1,13
 720 1534 720 1534 596 1534 c 0,0,1
157 0 m 1,14,-1
 157 1378 l 1,15,-1
 350 1378 l 1,16,-1
 350 719 l 2,17,18
 350 594 350 594 346 500.5 c 128,-1,19
 342 407 342 407 334.5 329.5 c 128,-1,20
 327 252 327 252 316 175 c 1,21,-1
 798 1378 l 1,22,-1
 1043 1378 l 1,23,-1
 1043 165 l 1,24,-1
 1223 165 l 1,25,-1
 1061 -303 l 1,26,-1
 904 -303 l 1,27,-1
 974 0 l 1,28,-1
 850 0 l 1,29,-1
 850 659 l 2,30,31
 850 823 850 823 860.5 958.5 c 128,-1,32
 871 1094 871 1094 884 1194 c 1,33,-1
 406 0 l 1,34,-1
 157 0 l 1,14,-1
EndSplineSet
Validated: 1048577
EndChar

StartChar: uni041A
Encoding: 1050 1050 394
Width: 1200
GlyphClass: 2
Flags: W
AnchorPoint: "Neo-1" 600 0 basechar 0
AnchorPoint: "Neo-0" 640 1378 basechar 0
LayerCount: 2
Fore
SplineSet
528 643 m 1,0,-1
 374 643 l 1,1,-1
 374 0 l 1,2,-1
 175 0 l 1,3,-1
 175 1378 l 1,4,-1
 374 1378 l 1,5,-1
 374 804 l 1,6,-1
 530 804 l 1,7,-1
 933 1378 l 1,8,-1
 1142 1378 l 1,9,-1
 696 734 l 1,10,-1
 1180 0 l 1,11,-1
 946 0 l 1,12,-1
 528 643 l 1,0,-1
EndSplineSet
Validated: 1048577
EndChar

StartChar: uni041B
Encoding: 1051 1051 396
Width: 1200
GlyphClass: 2
Flags: W
AnchorPoint: "Neo-1" 600 0 basechar 0
AnchorPoint: "Neo-0" 600 1378 basechar 0
LayerCount: 2
Fore
SplineSet
1043 1378 m 1,0,-1
 1043 0 l 1,1,-1
 845 0 l 1,2,-1
 845 1213 l 1,3,-1
 499 1213 l 1,4,-1
 455 835 l 2,5,6
 433 643 433 643 408.5 510.5 c 128,-1,7
 384 378 384 378 355.5 291 c 128,-1,8
 327 204 327 204 291.5 147.5 c 128,-1,9
 256 91 256 91 210 51.5 c 128,-1,10
 164 12 164 12 106 -25 c 1,11,-1
 21 118 l 1,12,13
 57 148 57 148 88.5 183 c 128,-1,14
 120 218 120 218 148.5 285 c 128,-1,15
 177 352 177 352 203 474 c 128,-1,16
 229 596 229 596 254 799 c 2,17,-1
 326 1378 l 1,18,-1
 1043 1378 l 1,0,-1
EndSplineSet
Validated: 1048577
EndChar

StartChar: uni041F
Encoding: 1055 1055 400
Width: 1200
GlyphClass: 2
Flags: W
HStem: 0 21G<157 355 845 1043> 1211 167<355 845>
VStem: 157 198<0 1211> 845 198<0 1211>
AnchorPoint: "Neo-1" 600 0 basechar 0
AnchorPoint: "Neo-0" 600 1378 basechar 0
LayerCount: 2
Fore
SplineSet
845 0 m 1,0,-1
 845 1211 l 1,1,-1
 355 1211 l 1,2,-1
 355 0 l 1,3,-1
 157 0 l 1,4,-1
 157 1378 l 1,5,-1
 1043 1378 l 1,6,-1
 1043 0 l 1,7,-1
 845 0 l 1,0,-1
EndSplineSet
Validated: 1048577
EndChar

StartChar: uni0423
Encoding: 1059 1059 404
Width: 1200
GlyphClass: 2
Flags: W
AnchorPoint: "Neo-1" 600 0 basechar 0
AnchorPoint: "Neo-0" 620 1378 basechar 0
LayerCount: 2
Fore
SplineSet
1169 1378 m 1,0,-1
 759 378 l 2,1,2
 708 253 708 253 645.5 170.5 c 128,-1,3
 583 88 583 88 487 40.5 c 128,-1,4
 391 -7 391 -7 238 -25 c 1,5,-1
 209 128 l 1,6,7
 314 142 314 142 379 169 c 128,-1,8
 444 196 444 196 487 245.5 c 128,-1,9
 530 295 530 295 568 377 c 1,10,-1
 493 377 l 1,11,-1
 43 1378 l 1,12,-1
 249 1378 l 1,13,-1
 626 501 l 1,14,-1
 968 1378 l 1,15,-1
 1169 1378 l 1,0,-1
EndSplineSet
Validated: 1048577
EndChar

StartChar: uni0424
Encoding: 1060 1060 406
Width: 1200
GlyphClass: 2
Flags: W
AnchorPoint: "Neo-1" 600 0 basechar 0
AnchorPoint: "Neo-0" 600 1378 basechar 0
LayerCount: 2
Fore
SplineSet
690 1439 m 1,0,-1
 690 1318 l 1,1,2
 938 1300 938 1300 1057.5 1145 c 128,-1,3
 1177 990 1177 990 1177 694 c 0,4,5
 1177 391 1177 391 1051 234 c 128,-1,6
 925 77 925 77 690 65 c 1,7,-1
 690 -61 l 1,8,-1
 510 -61 l 1,9,-1
 510 65 l 1,10,11
 273 75 273 75 148 232 c 128,-1,12
 23 389 23 389 23 694 c 0,13,14
 23 990 23 990 142.5 1145 c 128,-1,15
 262 1300 262 1300 510 1318 c 1,16,-1
 510 1439 l 1,17,-1
 690 1439 l 1,0,-1
515 1181 m 1,18,19
 363 1175 363 1175 291.5 1065.5 c 128,-1,20
 220 956 220 956 220 694 c 0,21,22
 220 446 220 446 288.5 330.5 c 128,-1,23
 357 215 357 215 515 202 c 1,24,-1
 515 1181 l 1,18,19
685 1181 m 1,25,-1
 685 202 l 1,26,27
 843 215 843 215 911.5 330.5 c 128,-1,28
 980 446 980 446 980 694 c 0,29,30
 980 956 980 956 908.5 1065.5 c 128,-1,31
 837 1175 837 1175 685 1181 c 1,25,-1
EndSplineSet
Validated: 1048577
EndChar

StartChar: uni0427
Encoding: 1063 1063 408
Width: 1200
GlyphClass: 2
Flags: W
AnchorPoint: "Neo-1" 600 0 basechar 0
AnchorPoint: "Neo-0" 578 1378 basechar 0
LayerCount: 2
Fore
SplineSet
292 1378 m 1,0,-1
 292 863 l 2,1,2
 292 726 292 726 358 662.5 c 128,-1,3
 424 599 424 599 549 599 c 0,4,5
 653 599 653 599 725 631.5 c 128,-1,6
 797 664 797 664 845 711 c 1,7,-1
 845 1378 l 1,8,-1
 1043 1378 l 1,9,-1
 1043 0 l 1,10,-1
 845 0 l 1,11,-1
 845 551 l 1,12,13
 761 489 761 489 682.5 460.5 c 128,-1,14
 604 432 604 432 499 432 c 0,15,16
 314 432 314 432 203.5 544 c 128,-1,17
 93 656 93 656 93 849 c 2,18,-1
 93 1378 l 1,19,-1
 292 1378 l 1,0,-1
EndSplineSet
Validated: 1048577
EndChar

StartChar: uni0426
Encoding: 1062 1062 409
Width: 1200
GlyphClass: 2
Flags: W
AnchorPoint: "Neo-1" 600 0 basechar 0
LayerCount: 2
Fore
SplineSet
157 0 m 1,0,-1
 157 1378 l 1,1,-1
 355 1378 l 1,2,-1
 355 162 l 1,3,-1
 845 162 l 1,4,-1
 845 1378 l 1,5,-1
 1043 1378 l 1,6,-1
 1043 161 l 1,7,-1
 1162 161 l 1,8,-1
 1162 -303 l 1,9,-1
 1006 -303 l 1,10,-1
 975 0 l 1,11,-1
 157 0 l 1,0,-1
EndSplineSet
Validated: 1048577
EndChar

StartChar: uni0428
Encoding: 1064 1064 410
Width: 1200
GlyphClass: 2
Flags: W
HStem: 0 158<268 516 684 932> 1358 20G<89 268 516 684 932 1111>
VStem: 89 179<158 1378> 516 168<158 1378> 932 179<158 1378>
CounterMasks: 1 38
AnchorPoint: "Neo-1" 600 0 basechar 0
AnchorPoint: "Neo-0" 600 1378 basechar 0
LayerCount: 2
Fore
SplineSet
1111 1378 m 1,0,-1
 1111 0 l 1,1,-1
 89 0 l 1,2,-1
 89 1378 l 1,3,-1
 268 1378 l 1,4,-1
 268 158 l 1,5,-1
 516 158 l 1,6,-1
 516 1378 l 1,7,-1
 684 1378 l 1,8,-1
 684 158 l 1,9,-1
 932 158 l 1,10,-1
 932 1378 l 1,11,-1
 1111 1378 l 1,0,-1
EndSplineSet
Validated: 1048577
EndChar

StartChar: uni0429
Encoding: 1065 1065 411
Width: 1200
GlyphClass: 2
Flags: W
AnchorPoint: "Neo-1" 600 0 basechar 0
AnchorPoint: "Neo-0" 600 1378 basechar 0
LayerCount: 2
Fore
SplineSet
1230 161 m 1,0,-1
 1230 -303 l 1,1,-1
 1074 -303 l 1,2,-1
 1043 0 l 1,3,-1
 89 0 l 1,4,-1
 89 1378 l 1,5,-1
 268 1378 l 1,6,-1
 268 158 l 1,7,-1
 516 158 l 1,8,-1
 516 1378 l 1,9,-1
 684 1378 l 1,10,-1
 684 158 l 1,11,-1
 932 158 l 1,12,-1
 932 1378 l 1,13,-1
 1111 1378 l 1,14,-1
 1111 161 l 1,15,-1
 1230 161 l 1,0,-1
EndSplineSet
Validated: 1048577
EndChar

StartChar: uni040F
Encoding: 1039 1039 412
Width: 1200
GlyphClass: 2
Flags: W
AnchorPoint: "Neo-1" 600 0 basechar 0
LayerCount: 2
Fore
SplineSet
157 0 m 1,0,-1
 157 1378 l 1,1,-1
 355 1378 l 1,2,-1
 355 162 l 1,3,-1
 845 162 l 1,4,-1
 845 1378 l 1,5,-1
 1043 1378 l 1,6,-1
 1043 0 l 1,7,-1
 695 0 l 1,8,-1
 675 -303 l 1,9,-1
 525 -303 l 1,10,-1
 505 0 l 1,11,-1
 157 0 l 1,0,-1
EndSplineSet
Validated: 1048577
EndChar

StartChar: uni042C
Encoding: 1068 1068 413
Width: 1200
GlyphClass: 2
Flags: W
AnchorPoint: "Neo-1" 600 0 basechar 0
AnchorPoint: "Neo-0" 600 1378 basechar 0
LayerCount: 2
Fore
SplineSet
374 1378 m 1,0,-1
 374 875 l 1,1,-1
 570 875 l 2,2,3
 822 875 822 875 966.5 773 c 128,-1,4
 1111 671 1111 671 1111 448 c 0,5,6
 1111 288 1111 288 1042.5 189.5 c 128,-1,7
 974 91 974 91 853 45.5 c 128,-1,8
 732 0 732 0 575 0 c 2,9,-1
 176 0 l 1,10,-1
 176 1378 l 1,11,-1
 374 1378 l 1,0,-1
588 722 m 2,12,-1
 374 722 l 1,13,-1
 374 157 l 1,14,-1
 589 157 l 2,15,16
 679 157 679 157 749.5 181.5 c 128,-1,17
 820 206 820 206 860 268.5 c 128,-1,18
 900 331 900 331 900 446 c 0,19,20
 900 597 900 597 813 659.5 c 128,-1,21
 726 722 726 722 588 722 c 2,12,-1
EndSplineSet
Validated: 1048577
EndChar

StartChar: uni042B
Encoding: 1067 1067 414
Width: 1200
GlyphClass: 2
Flags: W
AnchorPoint: "Neo-1" 600 0 basechar 0
AnchorPoint: "Neo-0" 600 1378 basechar 0
LayerCount: 2
Fore
SplineSet
250 1378 m 1,0,-1
 250 875 l 1,1,-1
 358 875 l 2,2,3
 608 875 608 875 732.5 765.5 c 128,-1,4
 857 656 857 656 857 448 c 0,5,6
 857 220 857 220 726.5 110 c 128,-1,7
 596 0 596 0 362 0 c 2,8,-1
 59 0 l 1,9,-1
 59 1378 l 1,10,-1
 250 1378 l 1,0,-1
1141 1378 m 1,11,-1
 1141 0 l 1,12,-1
 950 0 l 1,13,-1
 950 1378 l 1,14,-1
 1141 1378 l 1,11,-1
379 728 m 2,15,-1
 250 728 l 1,16,-1
 250 153 l 1,17,-1
 377 153 l 2,18,19
 512 153 512 153 585 219 c 128,-1,20
 658 285 658 285 658 446 c 0,21,22
 658 728 658 728 379 728 c 2,15,-1
EndSplineSet
Validated: 1048577
EndChar

StartChar: uni042A
Encoding: 1066 1066 415
Width: 1200
GlyphClass: 1
Flags: W
LayerCount: 2
Fore
SplineSet
430 1378 m 1,0,-1
 430 875 l 1,1,-1
 624 875 l 2,2,3
 876 875 876 875 1020.5 773 c 128,-1,4
 1165 671 1165 671 1165 448 c 0,5,6
 1165 286 1165 286 1096 187.5 c 128,-1,7
 1027 89 1027 89 906.5 44.5 c 128,-1,8
 786 0 786 0 629 0 c 2,9,-1
 233 0 l 1,10,-1
 233 1212 l 1,11,-1
 0 1212 l 1,12,-1
 0 1378 l 1,13,-1
 430 1378 l 1,0,-1
646 722 m 2,14,-1
 430 722 l 1,15,-1
 430 157 l 1,16,-1
 644 157 l 2,17,18
 735 157 735 157 806 181 c 128,-1,19
 877 205 877 205 917.5 267 c 128,-1,20
 958 329 958 329 958 446 c 0,21,22
 958 597 958 597 871 659.5 c 128,-1,23
 784 722 784 722 646 722 c 2,14,-1
EndSplineSet
Validated: 1
EndChar

StartChar: uni0409
Encoding: 1033 1033 416
Width: 1200
GlyphClass: 2
Flags: W
AnchorPoint: "Neo-1" 600 0 basechar 0
AnchorPoint: "Neo-0" 600 1378 basechar 0
LayerCount: 2
Fore
SplineSet
713 1378 m 1,0,-1
 713 875 l 1,1,2
 955 875 955 875 1077.5 771.5 c 128,-1,3
 1200 668 1200 668 1200 448 c 0,4,5
 1200 209 1200 209 1072.5 104.5 c 128,-1,6
 945 0 945 0 726 0 c 2,7,-1
 529 0 l 1,8,-1
 529 1225 l 1,9,-1
 353 1225 l 1,10,-1
 310 619 l 2,11,12
 297 436 297 436 278.5 324.5 c 128,-1,13
 260 213 260 213 234.5 149 c 128,-1,14
 209 85 209 85 173.5 47.5 c 128,-1,15
 138 10 138 10 92 -25 c 1,16,-1
 -2 101 l 1,17,18
 21 125 21 125 40 157 c 128,-1,19
 59 189 59 189 75 243.5 c 128,-1,20
 91 298 91 298 104.5 390.5 c 128,-1,21
 118 483 118 483 129 629 c 2,22,-1
 186 1378 l 1,23,-1
 713 1378 l 1,0,-1
742 729 m 2,24,-1
 713 729 l 1,25,-1
 713 152 l 1,26,-1
 743 152 l 2,27,28
 870 152 870 152 937.5 212.5 c 128,-1,29
 1005 273 1005 273 1005 446 c 0,30,31
 1005 599 1005 599 938.5 664 c 128,-1,32
 872 729 872 729 742 729 c 2,24,-1
EndSplineSet
Validated: 1048577
EndChar

StartChar: uni040A
Encoding: 1034 1034 417
Width: 1200
GlyphClass: 2
Flags: W
AnchorPoint: "Neo-1" 600 0 basechar 0
AnchorPoint: "Neo-0" 600 1378 basechar 0
LayerCount: 2
Fore
SplineSet
714 1378 m 1,0,-1
 714 834 l 1,1,2
 955 834 955 834 1077.5 737 c 128,-1,3
 1200 640 1200 640 1200 430 c 0,4,5
 1200 196 1200 196 1073 98 c 128,-1,6
 946 0 946 0 726 0 c 2,7,-1
 529 0 l 1,8,-1
 529 689 l 1,9,-1
 263 689 l 1,10,-1
 263 0 l 1,11,-1
 79 0 l 1,12,-1
 79 1378 l 1,13,-1
 263 1378 l 1,14,-1
 263 834 l 1,15,-1
 529 834 l 1,16,-1
 529 1378 l 1,17,-1
 714 1378 l 1,0,-1
742 689 m 2,18,-1
 714 689 l 1,19,-1
 714 151 l 1,20,-1
 742 151 l 2,21,22
 827 151 827 151 886 173 c 128,-1,23
 945 195 945 195 975.5 255 c 128,-1,24
 1006 315 1006 315 1006 428 c 0,25,26
 1006 575 1006 575 939 632 c 128,-1,27
 872 689 872 689 742 689 c 2,18,-1
EndSplineSet
Validated: 1048577
EndChar

StartChar: uni0404
Encoding: 1028 1028 419
Width: 1200
GlyphClass: 2
Flags: W
AnchorPoint: "Neo-1" 600 0 basechar 0
AnchorPoint: "Neo-0" 600 1378 basechar 0
LayerCount: 2
Fore
SplineSet
707 1403 m 0,0,1
 843 1403 843 1403 937 1367 c 128,-1,2
 1031 1331 1031 1331 1113 1266 c 1,3,-1
 1014 1148 l 1,4,5
 877 1246 877 1246 719 1246 c 0,6,7
 617 1246 617 1246 530 1201.5 c 128,-1,8
 443 1157 443 1157 385.5 1056.5 c 128,-1,9
 328 956 328 956 316 789 c 1,10,-1
 908 789 l 1,11,-1
 908 627 l 1,12,-1
 312 627 l 1,13,14
 320 454 320 454 375 346 c 128,-1,15
 430 238 430 238 519 187.5 c 128,-1,16
 608 137 608 137 717 137 c 0,17,18
 830 137 830 137 905 173 c 128,-1,19
 980 209 980 209 1032 254 c 1,20,-1
 1133 131 l 1,21,22
 1068 70 1068 70 963.5 22.5 c 128,-1,23
 859 -25 859 -25 708 -25 c 0,24,25
 533 -25 533 -25 397.5 57 c 128,-1,26
 262 139 262 139 184.5 298.5 c 128,-1,27
 107 458 107 458 107 690 c 256,28,29
 107 922 107 922 189 1081 c 128,-1,30
 271 1240 271 1240 407 1321.5 c 128,-1,31
 543 1403 543 1403 707 1403 c 0,0,1
EndSplineSet
Validated: 1048577
EndChar

StartChar: uni042D
Encoding: 1069 1069 420
Width: 1200
GlyphClass: 2
Flags: W
AnchorPoint: "Neo-1" 600 0 basechar 0
AnchorPoint: "Neo-0" 575 1378 basechar 0
LayerCount: 2
Fore
SplineSet
535 1403 m 0,0,1
 789 1403 789 1403 936.5 1229.5 c 128,-1,2
 1084 1056 1084 1056 1084 706 c 0,3,4
 1084 344 1084 344 930 159.5 c 128,-1,5
 776 -25 776 -25 516 -25 c 0,6,7
 379 -25 379 -25 266.5 23 c 128,-1,8
 154 71 154 71 75 151 c 1,9,-1
 188 264 l 1,10,11
 258 202 258 202 334.5 169.5 c 128,-1,12
 411 137 411 137 506 137 c 0,13,14
 679 137 679 137 773.5 255 c 128,-1,15
 868 373 868 373 880 628 c 1,16,-1
 289 628 l 1,17,-1
 289 788 l 1,18,-1
 880 788 l 1,19,20
 867 1038 867 1038 775 1142 c 128,-1,21
 683 1246 683 1246 524 1246 c 0,22,23
 411 1246 411 1246 334 1207 c 128,-1,24
 257 1168 257 1168 196 1119 c 1,25,-1
 91 1233 l 1,26,27
 171 1303 171 1303 279.5 1353 c 128,-1,28
 388 1403 388 1403 535 1403 c 0,0,1
EndSplineSet
Validated: 1048577
EndChar

StartChar: uni040B
Encoding: 1035 1035 424
Width: 1200
GlyphClass: 1
Flags: W
LayerCount: 2
Fore
SplineSet
835 1378 m 1,0,-1
 814 1220 l 1,1,-1
 500 1220 l 1,2,-1
 500 792 l 1,3,4
 554 842 554 842 622.5 874 c 128,-1,5
 691 906 691 906 782 906 c 0,6,7
 961 906 961 906 1049.5 801.5 c 128,-1,8
 1138 697 1138 697 1138 495 c 2,9,-1
 1138 0 l 1,10,-1
 942 0 l 1,11,-1
 942 489 l 2,12,13
 942 624 942 624 895 683 c 128,-1,14
 848 742 848 742 735 742 c 0,15,16
 649 742 649 742 593 709 c 128,-1,17
 537 676 537 676 500 642 c 1,18,-1
 500 0 l 1,19,-1
 305 0 l 1,20,-1
 305 1220 l 1,21,-1
 -10 1220 l 1,22,-1
 -10 1378 l 1,23,-1
 835 1378 l 1,0,-1
EndSplineSet
Validated: 1
EndChar

StartChar: uni042E
Encoding: 1070 1070 425
Width: 1200
GlyphClass: 2
Flags: W
AnchorPoint: "Neo-1" 600 0 basechar 0
AnchorPoint: "Neo-0" 600 1378 basechar 0
LayerCount: 2
Fore
SplineSet
779 1403 m 0,0,1
 995 1403 995 1403 1078 1222 c 128,-1,2
 1161 1041 1161 1041 1161 688 c 0,3,4
 1161 342 1161 342 1073 158.5 c 128,-1,5
 985 -25 985 -25 779 -25 c 0,6,7
 636 -25 636 -25 553.5 56.5 c 128,-1,8
 471 138 471 138 435.5 286.5 c 128,-1,9
 400 435 400 435 396 636 c 1,10,-1
 269 636 l 1,11,-1
 269 0 l 1,12,-1
 88 0 l 1,13,-1
 88 1378 l 1,14,-1
 269 1378 l 1,15,-1
 269 792 l 1,16,-1
 398 792 l 1,17,18
 410 1087 410 1087 496 1245 c 128,-1,19
 582 1403 582 1403 779 1403 c 0,0,1
779 1249 m 0,20,21
 709 1249 709 1249 667.5 1197.5 c 128,-1,22
 626 1146 626 1146 607.5 1024 c 128,-1,23
 589 902 589 902 589 690 c 0,24,25
 589 479 589 479 607.5 356 c 128,-1,26
 626 233 626 233 667.5 181 c 128,-1,27
 709 129 709 129 779 129 c 0,28,29
 844 129 844 129 886 180.5 c 128,-1,30
 928 232 928 232 948 354.5 c 128,-1,31
 968 477 968 477 968 688 c 0,32,33
 968 900 968 900 948 1022.5 c 128,-1,34
 928 1145 928 1145 886.5 1197 c 128,-1,35
 845 1249 845 1249 779 1249 c 0,20,21
EndSplineSet
Validated: 1048577
EndChar

StartChar: uni042F
Encoding: 1071 1071 426
Width: 1200
GlyphClass: 2
Flags: W
AnchorPoint: "Neo-1" 600 0 basechar 0
AnchorPoint: "Neo-0" 600 1378 basechar 0
LayerCount: 2
Fore
SplineSet
1043 1378 m 1,0,-1
 1043 0 l 1,1,-1
 845 0 l 1,2,-1
 845 545 l 1,3,-1
 560 545 l 1,4,-1
 277 0 l 1,5,-1
 57 0 l 1,6,-1
 378 588 l 1,7,8
 258 642 258 642 198 739 c 128,-1,9
 138 836 138 836 138 965 c 0,10,11
 138 1163 138 1163 272.5 1270.5 c 128,-1,12
 407 1378 407 1378 666 1378 c 2,13,-1
 1043 1378 l 1,0,-1
845 1226 m 1,14,-1
 650 1226 l 2,15,16
 498 1226 498 1226 423 1162.5 c 128,-1,17
 348 1099 348 1099 348 964 c 0,18,19
 348 828 348 828 418 764 c 128,-1,20
 488 700 488 700 620 700 c 2,21,-1
 845 700 l 1,22,-1
 845 1226 l 1,14,-1
EndSplineSet
Validated: 1048577
EndChar

StartChar: uni0402
Encoding: 1026 1026 427
Width: 1200
GlyphClass: 2
Flags: W
AnchorPoint: "Neo-1" 600 -406 basechar 0
AnchorPoint: "Neo-0" 600 1378 basechar 0
LayerCount: 2
Fore
SplineSet
500 1220 m 1,0,-1
 500 792 l 1,1,2
 554 839 554 839 624 872.5 c 128,-1,3
 694 906 694 906 782 906 c 0,4,5
 961 906 961 906 1049.5 801.5 c 128,-1,6
 1138 697 1138 697 1138 495 c 2,7,-1
 1138 192 l 2,8,9
 1138 49 1138 49 1094.5 -42 c 128,-1,10
 1051 -133 1051 -133 970.5 -189 c 128,-1,11
 890 -245 890 -245 780 -282 c 1,12,-1
 730 -129 l 1,13,14
 816 -94 816 -94 862 -53.5 c 128,-1,15
 908 -13 908 -13 925 45.5 c 128,-1,16
 942 104 942 104 942 193 c 2,17,-1
 942 489 l 2,18,19
 942 624 942 624 895 683 c 128,-1,20
 848 742 848 742 735 742 c 0,21,22
 649 742 649 742 593 709 c 128,-1,23
 537 676 537 676 500 642 c 1,24,-1
 500 0 l 1,25,-1
 305 0 l 1,26,-1
 305 1220 l 1,27,-1
 -10 1220 l 1,28,-1
 -10 1378 l 1,29,-1
 835 1378 l 1,30,-1
 814 1220 l 1,31,-1
 500 1220 l 1,0,-1
EndSplineSet
Validated: 1048577
EndChar

StartChar: uni0460
Encoding: 1120 1120 428
Width: 1200
GlyphClass: 1
Flags: W
LayerCount: 2
Fore
SplineSet
1026 1378 m 1,0,1
 1054 1304 1054 1304 1087.5 1196 c 128,-1,2
 1121 1088 1121 1088 1145.5 940 c 128,-1,3
 1170 792 1170 792 1170 599 c 0,4,5
 1170 372 1170 372 1128.5 235 c 128,-1,6
 1087 98 1087 98 1013 36.5 c 128,-1,7
 939 -25 939 -25 843 -25 c 0,8,9
 745 -25 745 -25 688 28.5 c 128,-1,10
 631 82 631 82 602 180 c 1,11,12
 570 82 570 82 515 28.5 c 128,-1,13
 460 -25 460 -25 363 -25 c 0,14,15
 280 -25 280 -25 204 34.5 c 128,-1,16
 128 94 128 94 79.5 230.5 c 128,-1,17
 31 367 31 367 31 599 c 0,18,19
 31 792 31 792 56 940 c 128,-1,20
 81 1088 81 1088 115 1196 c 128,-1,21
 149 1304 149 1304 176 1378 c 1,22,-1
 359 1378 l 1,23,24
 319 1267 319 1267 288 1152 c 128,-1,25
 257 1037 257 1037 239.5 903.5 c 128,-1,26
 222 770 222 770 222 604 c 0,27,28
 222 428 222 428 244 325.5 c 128,-1,29
 266 223 266 223 304.5 179 c 128,-1,30
 343 135 343 135 394 135 c 0,31,32
 440 135 440 135 475 179 c 128,-1,33
 510 223 510 223 510 335 c 2,34,-1
 510 796 l 1,35,-1
 692 796 l 1,36,-1
 692 337 l 2,37,38
 692 228 692 228 729.5 181.5 c 128,-1,39
 767 135 767 135 820 135 c 0,40,41
 864 135 864 135 900.5 171 c 128,-1,42
 937 207 937 207 958.5 307.5 c 128,-1,43
 980 408 980 408 980 601 c 0,44,45
 980 769 980 769 961.5 903 c 128,-1,46
 943 1037 943 1037 911.5 1152.5 c 128,-1,47
 880 1268 880 1268 843 1378 c 1,48,-1
 1026 1378 l 1,0,1
EndSplineSet
Validated: 1
EndChar

StartChar: uni0462
Encoding: 1122 1122 429
Width: 1200
GlyphClass: 2
Flags: W
AnchorPoint: "Neo-1" 600 0 basechar 0
AnchorPoint: "Neo-0" 600 1378 basechar 0
LayerCount: 2
Fore
SplineSet
299 0 m 1,0,-1
 299 1057 l 1,1,-1
 20 1057 l 1,2,-1
 20 1196 l 1,3,-1
 299 1196 l 1,4,-1
 299 1378 l 1,5,-1
 497 1378 l 1,6,-1
 497 1196 l 1,7,-1
 794 1196 l 1,8,-1
 794 1057 l 1,9,-1
 497 1057 l 1,10,-1
 497 862 l 1,11,-1
 627 862 l 2,12,13
 859 862 859 862 1000.5 758.5 c 128,-1,14
 1142 655 1142 655 1142 445 c 0,15,16
 1142 289 1142 289 1073.5 190.5 c 128,-1,17
 1005 92 1005 92 884.5 46 c 128,-1,18
 764 0 764 0 609 0 c 2,19,-1
 299 0 l 1,0,-1
497 157 m 1,20,-1
 623 157 l 2,21,22
 712 157 712 157 782 182.5 c 128,-1,23
 852 208 852 208 892 269.5 c 128,-1,24
 932 331 932 331 932 441 c 0,25,26
 932 588 932 588 850 648 c 128,-1,27
 768 708 768 708 628 708 c 2,28,-1
 497 708 l 1,29,-1
 497 157 l 1,20,-1
EndSplineSet
Validated: 1048577
EndChar

StartChar: uni0464
Encoding: 1124 1124 430
Width: 1200
GlyphClass: 2
Flags: W
AnchorPoint: "Neo-1" 600 0 basechar 0
AnchorPoint: "Neo-0" 600 1378 basechar 0
LayerCount: 2
Fore
SplineSet
1193 68 m 1,0,1
 1139 28 1139 28 1071.5 1.5 c 128,-1,2
 1004 -25 1004 -25 901 -25 c 0,3,4
 679 -25 679 -25 548 142 c 128,-1,5
 417 309 417 309 404 627 c 1,6,-1
 271 627 l 1,7,-1
 271 0 l 1,8,-1
 74 0 l 1,9,-1
 74 1379 l 1,10,-1
 271 1379 l 1,11,-1
 271 792 l 1,12,-1
 406 792 l 1,13,14
 427 1091 427 1091 562.5 1247 c 128,-1,15
 698 1403 698 1403 914 1403 c 0,16,17
 1005 1403 1005 1403 1065 1383 c 128,-1,18
 1125 1363 1125 1363 1182 1324 c 1,19,-1
 1095 1198 l 1,20,21
 1052 1223 1052 1223 1012.5 1235 c 128,-1,22
 973 1247 973 1247 918 1247 c 0,23,24
 790 1247 790 1247 707.5 1143 c 128,-1,25
 625 1039 625 1039 606 788 c 1,26,-1
 1040 788 l 1,27,-1
 1040 628 l 1,28,-1
 602 628 l 1,29,30
 613 368 613 368 694.5 252 c 128,-1,31
 776 136 776 136 910 136 c 0,32,33
 980 136 980 136 1026 155 c 128,-1,34
 1072 174 1072 174 1111 196 c 1,35,-1
 1193 68 l 1,0,1
EndSplineSet
Validated: 1048577
EndChar

StartChar: uni0466
Encoding: 1126 1126 431
Width: 1200
GlyphClass: 2
Flags: W
AnchorPoint: "Neo-1" 600 0 basechar 0
AnchorPoint: "Neo-0" 600 1378 basechar 0
LayerCount: 2
Fore
SplineSet
31 0 m 1,0,-1
 475 1378 l 1,1,-1
 725 1378 l 1,2,-1
 1170 0 l 1,3,-1
 963 0 l 1,4,-1
 793 565 l 1,5,-1
 684 565 l 1,6,-1
 684 0 l 1,7,-1
 508 0 l 1,8,-1
 508 565 l 1,9,-1
 399 565 l 1,10,-1
 229 0 l 1,11,-1
 31 0 l 1,0,-1
596 1221 m 1,12,-1
 447 725 l 1,13,-1
 745 725 l 1,14,-1
 596 1221 l 1,12,-1
EndSplineSet
Validated: 1048577
EndChar

StartChar: uni0468
Encoding: 1128 1128 432
Width: 1200
GlyphClass: 2
Flags: W
AnchorPoint: "Neo-1" 600 0 basechar 0
AnchorPoint: "Neo-0" 600 1378 basechar 0
LayerCount: 2
Fore
SplineSet
310 0 m 1,0,-1
 445 573 l 1,1,-1
 246 573 l 1,2,-1
 246 0 l 1,3,-1
 62 0 l 1,4,-1
 62 1378 l 1,5,-1
 246 1378 l 1,6,-1
 246 720 l 1,7,-1
 479 720 l 1,8,-1
 634 1378 l 1,9,-1
 883 1378 l 1,10,-1
 1207 0 l 1,11,-1
 1022 0 l 1,12,-1
 899 573 l 1,13,-1
 832 573 l 1,14,-1
 832 0 l 1,15,-1
 677 0 l 1,16,-1
 677 573 l 1,17,-1
 610 573 l 1,18,-1
 487 0 l 1,19,-1
 310 0 l 1,0,-1
754 1242 m 1,20,-1
 642 720 l 1,21,-1
 867 720 l 1,22,-1
 754 1242 l 1,20,-1
EndSplineSet
Validated: 1048577
EndChar

StartChar: uni046A
Encoding: 1130 1130 433
Width: 1200
GlyphClass: 2
Flags: W
AnchorPoint: "Neo-1" 600 0 basechar 0
AnchorPoint: "Neo-0" 600 1378 basechar 0
LayerCount: 2
Fore
SplineSet
64 0 m 1,0,-1
 288 764 l 1,1,-1
 432 764 l 1,2,-1
 177 1253 l 1,3,-1
 177 1378 l 1,4,-1
 1029 1378 l 1,5,-1
 1029 1253 l 1,6,-1
 767 764 l 1,7,-1
 924 764 l 1,8,-1
 1136 0 l 1,9,-1
 958 0 l 1,10,-1
 797 622 l 1,11,-1
 692 622 l 1,12,-1
 692 0 l 1,13,-1
 510 0 l 1,14,-1
 510 622 l 1,15,-1
 405 622 l 1,16,-1
 242 0 l 1,17,-1
 64 0 l 1,0,-1
606 764 m 1,18,-1
 842 1243 l 1,19,-1
 370 1243 l 1,20,-1
 606 764 l 1,18,-1
EndSplineSet
Validated: 1048577
EndChar

StartChar: uni046C
Encoding: 1132 1132 434
Width: 1200
GlyphClass: 2
Flags: W
AnchorPoint: "Neo-1" 600 0 basechar 0
AnchorPoint: "Neo-0" 600 1378 basechar 0
LayerCount: 2
Fore
SplineSet
33 0 m 1,0,-1
 33 1378 l 1,1,-1
 217 1378 l 1,2,-1
 217 764 l 1,3,-1
 600 764 l 1,4,-1
 380 1253 l 1,5,-1
 380 1378 l 1,6,-1
 1148 1378 l 1,7,-1
 1148 1253 l 1,8,-1
 920 764 l 1,9,-1
 1065 764 l 1,10,-1
 1250 0 l 1,11,-1
 1074 0 l 1,12,-1
 938 622 l 1,13,-1
 852 622 l 1,14,-1
 852 0 l 1,15,-1
 671 0 l 1,16,-1
 671 622 l 1,17,-1
 585 622 l 1,18,-1
 447 0 l 1,19,-1
 271 0 l 1,20,-1
 432 622 l 1,21,-1
 217 622 l 1,22,-1
 217 0 l 1,23,-1
 33 0 l 1,0,-1
766 764 m 1,24,-1
 970 1244 l 1,25,-1
 563 1244 l 1,26,-1
 766 764 l 1,24,-1
EndSplineSet
Validated: 1048577
EndChar

StartChar: uni046E
Encoding: 1134 1134 435
Width: 1200
GlyphClass: 2
Flags: W
AnchorPoint: "Neo-0" 566 1378 basechar 0
LayerCount: 2
Fore
SplineSet
821 1822 m 1,0,-1
 901 1730 l 1,1,-1
 630 1508 l 1,2,-1
 504 1508 l 1,3,-1
 231 1730 l 1,4,-1
 313 1822 l 1,5,-1
 566 1660 l 1,6,-1
 821 1822 l 1,0,-1
455 -431 m 1,7,8
 183 -318 183 -318 183 -147 c 0,9,10
 183 -46 183 -46 262.5 10.5 c 128,-1,11
 342 67 342 67 514 89 c 0,12,13
 666 108 666 108 751 171.5 c 128,-1,14
 836 235 836 235 836 363 c 0,15,16
 836 498 836 498 763 555.5 c 128,-1,17
 690 613 690 613 547 613 c 2,18,-1
 329 613 l 1,19,-1
 329 750 l 1,20,-1
 742 1217 l 1,21,-1
 158 1217 l 1,22,-1
 158 1378 l 1,23,-1
 974 1378 l 1,24,-1
 974 1220 l 1,25,-1
 546 755 l 1,26,-1
 591 755 l 2,27,28
 815 755 815 755 928.5 650 c 128,-1,29
 1042 545 1042 545 1042 360 c 0,30,31
 1042 233 1042 233 984 145 c 128,-1,32
 926 57 926 57 830 7 c 128,-1,33
 734 -43 734 -43 620 -58 c 0,34,35
 523 -70 523 -70 471 -84 c 128,-1,36
 419 -98 419 -98 399 -116.5 c 128,-1,37
 379 -135 379 -135 379 -164 c 0,38,39
 379 -203 379 -203 416.5 -237 c 128,-1,40
 454 -271 454 -271 525 -307 c 1,41,-1
 455 -431 l 1,7,8
EndSplineSet
Validated: 1
EndChar

StartChar: uni0474
Encoding: 1140 1140 438
Width: 1200
GlyphClass: 2
Flags: W
AnchorPoint: "Neo-1" 600 0 basechar 0
AnchorPoint: "Neo-0" 581 1378 basechar 0
LayerCount: 2
Fore
SplineSet
1135 1240 m 1,0,1
 1119 1246 1119 1246 1104.5 1250 c 128,-1,2
 1090 1254 1090 1254 1073 1254 c 0,3,4
 1036 1254 1036 1254 1015 1229.5 c 128,-1,5
 994 1205 994 1205 979 1152 c 2,6,-1
 674 0 l 1,7,-1
 449 0 l 1,8,-1
 50 1378 l 1,9,-1
 263 1378 l 1,10,-1
 561 209 l 1,11,-1
 799 1176 l 2,12,13
 829 1297 829 1297 888 1350 c 128,-1,14
 947 1403 947 1403 1047 1403 c 0,15,16
 1090 1403 1090 1403 1124.5 1394 c 128,-1,17
 1159 1385 1159 1385 1188 1370 c 1,18,-1
 1135 1240 l 1,0,1
EndSplineSet
Validated: 1048577
EndChar

StartChar: uni0478
Encoding: 1144 1144 440
Width: 1200
GlyphClass: 1
Flags: W
LayerCount: 2
Fore
SplineSet
325 -25 m 0,0,1
 155 -25 155 -25 83.5 162.5 c 128,-1,2
 12 350 12 350 12 686 c 0,3,4
 12 906 12 906 43 1067 c 128,-1,5
 74 1228 74 1228 142.5 1315.5 c 128,-1,6
 211 1403 211 1403 325 1403 c 0,7,8
 496 1403 496 1403 566.5 1213.5 c 128,-1,9
 637 1024 637 1024 637 688 c 0,10,11
 637 351 637 351 566.5 163 c 128,-1,12
 496 -25 496 -25 325 -25 c 0,0,1
325 119 m 0,13,14
 408 119 408 119 437 254 c 128,-1,15
 466 389 466 389 466 688 c 256,16,17
 466 987 466 987 437 1123.5 c 128,-1,18
 408 1260 408 1260 325 1260 c 0,19,20
 241 1260 241 1260 212 1122.5 c 128,-1,21
 183 985 183 985 183 686 c 256,22,23
 183 387 183 387 214.5 253 c 128,-1,24
 246 119 246 119 325 119 c 0,13,14
698 -427 m 1,25,-1
 670 -296 l 1,26,27
 758 -268 758 -268 810 -201.5 c 128,-1,28
 862 -135 862 -135 883 0 c 1,29,-1
 807 0 l 1,30,-1
 645 1054 l 1,31,-1
 803 1054 l 1,32,-1
 919 140 l 1,33,-1
 1028 1054 l 1,34,-1
 1188 1054 l 1,35,-1
 1025 -6 l 2,36,37
 996 -193 996 -193 911 -291.5 c 128,-1,38
 826 -390 826 -390 698 -427 c 1,25,-1
EndSplineSet
Validated: 1
EndChar

StartChar: uni0496
Encoding: 1174 1174 441
Width: 1200
GlyphClass: 2
Flags: W
AnchorPoint: "Neo-1" 600 0 basechar 0
AnchorPoint: "Neo-0" 600 1378 basechar 0
LayerCount: 2
Fore
SplineSet
519 651 m 1,0,-1
 406 651 l 1,1,-1
 207 0 l 1,2,-1
 21 0 l 1,3,-1
 261 734 l 1,4,-1
 48 1378 l 1,5,-1
 232 1378 l 1,6,-1
 408 796 l 1,7,-1
 519 796 l 1,8,-1
 519 1378 l 1,9,-1
 681 1378 l 1,10,-1
 681 796 l 1,11,-1
 792 796 l 1,12,-1
 970 1378 l 1,13,-1
 1152 1378 l 1,14,-1
 939 734 l 1,15,-1
 1126 161 l 1,16,-1
 1222 161 l 1,17,-1
 1222 -303 l 1,18,-1
 1074 -303 l 1,19,-1
 1045 0 l 1,20,-1
 989 0 l 1,21,-1
 792 651 l 1,22,-1
 681 651 l 1,23,-1
 681 0 l 1,24,-1
 519 0 l 1,25,-1
 519 651 l 1,0,-1
EndSplineSet
Validated: 1048577
EndChar

StartChar: uni049A
Encoding: 1178 1178 443
Width: 1200
GlyphClass: 2
Flags: W
AnchorPoint: "Neo-1" 600 0 basechar 0
AnchorPoint: "Neo-0" 640 1378 basechar 0
LayerCount: 2
Fore
SplineSet
528 643 m 1,0,-1
 374 643 l 1,1,-1
 374 0 l 1,2,-1
 175 0 l 1,3,-1
 175 1378 l 1,4,-1
 374 1378 l 1,5,-1
 374 804 l 1,6,-1
 530 804 l 1,7,-1
 933 1378 l 1,8,-1
 1142 1378 l 1,9,-1
 696 734 l 1,10,-1
 1074 161 l 1,11,-1
 1181 161 l 1,12,-1
 1181 -303 l 1,13,-1
 1025 -303 l 1,14,-1
 994 0 l 1,15,-1
 946 0 l 1,16,-1
 528 643 l 1,0,-1
EndSplineSet
Validated: 1048577
EndChar

StartChar: uni049C
Encoding: 1180 1180 444
Width: 1200
GlyphClass: 2
Flags: W
AnchorPoint: "Neo-1" 600 0 basechar 0
AnchorPoint: "Neo-0" 600 1378 basechar 0
LayerCount: 2
Fore
SplineSet
459 300 m 1,0,-1
 459 646 l 1,1,-1
 366 646 l 1,2,-1
 366 0 l 1,3,-1
 175 0 l 1,4,-1
 175 1378 l 1,5,-1
 366 1378 l 1,6,-1
 366 802 l 1,7,-1
 459 802 l 1,8,-1
 459 1140 l 1,9,-1
 567 1140 l 1,10,-1
 567 802 l 1,11,-1
 616 802 l 1,12,-1
 939 1378 l 1,13,-1
 1142 1378 l 1,14,-1
 770 734 l 1,15,-1
 1180 0 l 1,16,-1
 962 0 l 1,17,-1
 616 646 l 1,18,-1
 567 646 l 1,19,-1
 567 300 l 1,20,-1
 459 300 l 1,0,-1
EndSplineSet
Validated: 1048577
EndChar

StartChar: uni049E
Encoding: 1182 1182 445
Width: 1200
GlyphClass: 1
Flags: W
LayerCount: 2
Fore
SplineSet
562 643 m 1,0,-1
 408 643 l 1,1,-1
 408 0 l 1,2,-1
 209 0 l 1,3,-1
 209 1057 l 1,4,-1
 65 1057 l 1,5,-1
 65 1198 l 1,6,-1
 209 1198 l 1,7,-1
 209 1378 l 1,8,-1
 408 1378 l 1,9,-1
 408 1198 l 1,10,-1
 626 1198 l 1,11,-1
 626 1057 l 1,12,-1
 408 1057 l 1,13,-1
 408 804 l 1,14,-1
 563 804 l 1,15,-1
 927 1378 l 1,16,-1
 1136 1378 l 1,17,-1
 730 734 l 1,18,-1
 1174 0 l 1,19,-1
 940 0 l 1,20,-1
 562 643 l 1,0,-1
EndSplineSet
Validated: 1
EndChar

StartChar: uni04A0
Encoding: 1184 1184 446
Width: 1200
GlyphClass: 1
Flags: W
LayerCount: 2
Fore
SplineSet
584 644 m 1,0,-1
 449 644 l 1,1,-1
 449 0 l 1,2,-1
 252 0 l 1,3,-1
 252 1212 l 1,4,-1
 19 1212 l 1,5,-1
 19 1378 l 1,6,-1
 449 1378 l 1,7,-1
 449 804 l 1,8,-1
 585 804 l 1,9,-1
 954 1378 l 1,10,-1
 1163 1378 l 1,11,-1
 751 734 l 1,12,-1
 1201 0 l 1,13,-1
 967 0 l 1,14,-1
 584 644 l 1,0,-1
EndSplineSet
Validated: 1
EndChar

StartChar: uni04A2
Encoding: 1186 1186 447
Width: 1200
GlyphClass: 2
Flags: W
AnchorPoint: "Neo-2" 599 690 basechar 0
AnchorPoint: "Neo-1" 599 0 basechar 0
AnchorPoint: "Neo-0" 599 1378 basechar 0
LayerCount: 2
Fore
SplineSet
844 0 m 1,0,-1
 844 642 l 1,1,-1
 354 642 l 1,2,-1
 354 0 l 1,3,-1
 156 0 l 1,4,-1
 156 1378 l 1,5,-1
 354 1378 l 1,6,-1
 354 805 l 1,7,-1
 844 805 l 1,8,-1
 844 1378 l 1,9,-1
 1042 1378 l 1,10,-1
 1042 161 l 1,11,-1
 1162 161 l 1,12,-1
 1162 -303 l 1,13,-1
 1006 -303 l 1,14,-1
 975 0 l 1,15,-1
 844 0 l 1,0,-1
EndSplineSet
Validated: 1
EndChar

StartChar: uni04A4
Encoding: 1188 1188 448
Width: 1200
GlyphClass: 1
Flags: W
LayerCount: 2
Fore
SplineSet
732 0 m 1,0,-1
 732 642 l 1,1,-1
 323 642 l 1,2,-1
 323 0 l 1,3,-1
 124 0 l 1,4,-1
 124 1378 l 1,5,-1
 323 1378 l 1,6,-1
 323 805 l 1,7,-1
 732 805 l 1,8,-1
 732 1378 l 1,9,-1
 1214 1378 l 1,10,-1
 1192 1216 l 1,11,-1
 930 1216 l 1,12,-1
 930 0 l 1,13,-1
 732 0 l 1,0,-1
EndSplineSet
Validated: 1
EndChar

StartChar: uni04A6
Encoding: 1190 1190 449
Width: 1200
GlyphClass: 2
Flags: W
AnchorPoint: "Neo-1" 600 -406 basechar 0
AnchorPoint: "Neo-0" 600 1378 basechar 0
LayerCount: 2
Fore
SplineSet
513 0 m 1,0,-1
 513 1213 l 1,1,-1
 243 1213 l 1,2,-1
 243 0 l 1,3,-1
 54 0 l 1,4,-1
 54 1378 l 1,5,-1
 702 1378 l 1,6,-1
 702 827 l 1,7,8
 741 863 741 863 789.5 884 c 128,-1,9
 838 905 838 905 901 905 c 0,10,11
 1032 905 1032 905 1107.5 819.5 c 128,-1,12
 1183 734 1183 734 1183 594 c 2,13,-1
 1183 -113 l 2,14,15
 1183 -268 1183 -268 1098 -348 c 128,-1,16
 1013 -428 1013 -428 884 -428 c 0,17,18
 804 -428 804 -428 747 -404 c 128,-1,19
 690 -380 690 -380 652 -351 c 1,20,-1
 726 -228 l 1,21,22
 760 -249 760 -249 792 -261.5 c 128,-1,23
 824 -274 824 -274 873 -274 c 0,24,25
 931 -274 931 -274 962.5 -239 c 128,-1,26
 994 -204 994 -204 994 -127 c 2,27,-1
 994 593 l 2,28,29
 994 669 994 669 959 705.5 c 128,-1,30
 924 742 924 742 863 742 c 0,31,32
 780 742 780 742 702 674 c 1,33,-1
 702 0 l 1,34,-1
 513 0 l 1,0,-1
EndSplineSet
Validated: 1048577
EndChar

StartChar: uni0524
Encoding: 1316 1316 450
Width: 1200
GlyphClass: 2
Flags: W
AnchorPoint: "Neo-1" 600 0 basechar 0
AnchorPoint: "Neo-0" 600 1378 basechar 0
LayerCount: 2
Fore
SplineSet
845 0 m 1,0,-1
 845 1211 l 1,1,-1
 355 1211 l 1,2,-1
 355 0 l 1,3,-1
 157 0 l 1,4,-1
 157 1378 l 1,5,-1
 1043 1378 l 1,6,-1
 1043 161 l 1,7,-1
 1162 161 l 1,8,-1
 1162 -303 l 1,9,-1
 1006 -303 l 1,10,-1
 975 0 l 1,11,-1
 845 0 l 1,0,-1
EndSplineSet
Validated: 1048577
EndChar

StartChar: uni04A8
Encoding: 1192 1192 451
Width: 1200
GlyphClass: 2
Flags: W
AnchorPoint: "Neo-1" 600 -406 basechar 0
AnchorPoint: "Neo-0" 600 1378 basechar 0
LayerCount: 2
Fore
SplineSet
625 -25 m 0,0,1
 458 -25 458 -25 332.5 57 c 128,-1,2
 207 139 207 139 137 298.5 c 128,-1,3
 67 458 67 458 67 690 c 0,4,5
 67 923 67 923 142.5 1082 c 128,-1,6
 218 1241 218 1241 342 1322 c 128,-1,7
 466 1403 466 1403 610 1403 c 0,8,9
 737 1403 737 1403 821 1367.5 c 128,-1,10
 905 1332 905 1332 987 1266 c 1,11,-1
 885 1140 l 1,12,13
 758 1242 758 1242 616 1242 c 0,14,15
 530 1242 530 1242 452.5 1190 c 128,-1,16
 375 1138 375 1138 327 1017 c 128,-1,17
 279 896 279 896 279 690 c 0,18,19
 279 492 279 492 323.5 370.5 c 128,-1,20
 368 249 368 249 447.5 194 c 128,-1,21
 527 139 527 139 631 139 c 0,22,23
 643 139 643 139 654 139 c 1,24,25
 594 233 594 233 557.5 325 c 128,-1,26
 521 417 521 417 521 514 c 0,27,28
 521 614 521 614 561.5 692.5 c 128,-1,29
 602 771 602 771 674.5 816.5 c 128,-1,30
 747 862 747 862 842 862 c 0,31,32
 993 862 993 862 1078.5 769 c 128,-1,33
 1164 676 1164 676 1164 524 c 0,34,35
 1164 387 1164 387 1099 257 c 128,-1,36
 1034 127 1034 127 909 51 c 1,37,38
 945 4 945 4 985 -47 c 128,-1,39
 1025 -98 1025 -98 1067 -155 c 1,40,-1
 944 -247 l 1,41,42
 896 -184 896 -184 849.5 -125 c 128,-1,43
 803 -66 803 -66 760 -10 c 1,44,45
 696 -25 696 -25 625 -25 c 0,0,1
702 516 m 0,46,47
 702 421 702 421 732.5 340.5 c 128,-1,48
 763 260 763 260 815 181 c 1,49,50
 975 271 975 271 974 526 c 0,51,52
 974 713 974 713 842 713 c 0,53,54
 772 713 772 713 737 660 c 128,-1,55
 702 607 702 607 702 516 c 0,46,47
EndSplineSet
Validated: 1048609
EndChar

StartChar: uni04AA
Encoding: 1194 1194 452
Width: 1200
GlyphClass: 2
Flags: W
AnchorPoint: "Neo-1" 700 0 basechar 0
AnchorPoint: "Neo-0" 730 1378 basechar 0
LayerCount: 2
Fore
SplineSet
716 1403 m 0,0,1
 853 1403 853 1403 946.5 1368 c 128,-1,2
 1040 1333 1040 1333 1122 1266 c 1,3,-1
 1015 1140 l 1,4,5
 951 1193 951 1193 879 1217.5 c 128,-1,6
 807 1242 807 1242 728 1242 c 0,7,8
 619 1242 619 1242 527 1189 c 128,-1,9
 435 1136 435 1136 379 1015 c 128,-1,10
 323 894 323 894 323 690 c 0,11,12
 323 491 323 491 376.5 370.5 c 128,-1,13
 430 250 430 250 521.5 195.5 c 128,-1,14
 613 141 613 141 726 141 c 256,15,16
 839 141 839 141 913.5 176.5 c 128,-1,17
 988 212 988 212 1043 258 c 1,18,-1
 1142 131 l 1,19,20
 1085 75 1085 75 999 32 c 128,-1,21
 913 -11 913 -11 793 -22 c 1,22,23
 862 -66 862 -66 902 -125.5 c 128,-1,24
 942 -185 942 -185 942 -259 c 0,25,26
 942 -360 942 -360 872 -422 c 128,-1,27
 802 -484 802 -484 683 -484 c 0,28,29
 615 -484 615 -484 567.5 -469 c 128,-1,30
 520 -454 520 -454 486 -434 c 1,31,-1
 533 -323 l 1,32,33
 556 -335 556 -335 588.5 -347 c 128,-1,34
 621 -359 621 -359 670 -359 c 0,35,36
 727 -359 727 -359 755.5 -328.5 c 128,-1,37
 784 -298 784 -298 784 -247 c 0,38,39
 784 -188 784 -188 748 -129 c 128,-1,40
 712 -70 712 -70 634 -19 c 1,41,42
 485 0 485 0 368 87.5 c 128,-1,43
 251 175 251 175 184 326.5 c 128,-1,44
 117 478 117 478 117 690 c 0,45,46
 117 922 117 922 198.5 1081 c 128,-1,47
 280 1240 280 1240 416.5 1321.5 c 128,-1,48
 553 1403 553 1403 716 1403 c 0,0,1
EndSplineSet
Validated: 1048577
EndChar

StartChar: uni04AC
Encoding: 1196 1196 453
Width: 1200
GlyphClass: 2
Flags: W
AnchorPoint: "Neo-2" 600 690 basechar 0
AnchorPoint: "Neo-1" 598 0 basechar 0
AnchorPoint: "Neo-0" 598 1378 basechar 0
LayerCount: 2
Fore
SplineSet
815 161 m 1,0,-1
 815 -303 l 1,1,-1
 659 -303 l 1,2,-1
 628 0 l 1,3,-1
 498 0 l 1,4,-1
 498 1213 l 1,5,-1
 74 1213 l 1,6,-1
 74 1378 l 1,7,-1
 1127 1378 l 1,8,-1
 1106 1213 l 1,9,-1
 696 1213 l 1,10,-1
 696 161 l 1,11,-1
 815 161 l 1,0,-1
EndSplineSet
Validated: 1
EndChar

StartChar: Ustraitstrokecy
Encoding: 1200 1200 455
Width: 1200
GlyphClass: 2
Flags: W
AnchorPoint: "Neo-1" 600 0 basechar 0
AnchorPoint: "Neo-0" 606 1378 basechar 0
LayerCount: 2
Fore
SplineSet
953 629 m 1,0,-1
 953 487 l 1,1,-1
 700 487 l 1,2,-1
 700 0 l 1,3,-1
 500 0 l 1,4,-1
 500 487 l 1,5,-1
 247 487 l 1,6,-1
 247 629 l 1,7,-1
 444 629 l 1,8,-1
 37 1378 l 1,9,-1
 256 1378 l 1,10,-1
 604 704 l 1,11,-1
 956 1378 l 1,12,-1
 1163 1378 l 1,13,-1
 755 629 l 1,14,-1
 953 629 l 1,0,-1
EndSplineSet
Validated: 1048577
EndChar

StartChar: uni04B2
Encoding: 1202 1202 456
Width: 1200
GlyphClass: 2
Flags: W
AnchorPoint: "Neo-1" 600 0 basechar 0
AnchorPoint: "Neo-0" 600 1378 basechar 0
LayerCount: 2
Fore
SplineSet
1157 161 m 1,0,-1
 1157 -303 l 1,1,-1
 1001 -303 l 1,2,-1
 970 0 l 1,3,-1
 923 0 l 1,4,-1
 923 0 l 1,5,-1
 596 607 l 1,6,-1
 266 0 l 1,7,-1
 53 0 l 1,8,-1
 479 734 l 1,9,-1
 89 1378 l 1,10,-1
 313 1378 l 1,11,-1
 600 863 l 1,12,-1
 889 1378 l 1,13,-1
 1102 1378 l 1,14,-1
 715 744 l 1,15,-1
 1053 161 l 1,16,-1
 1157 161 l 1,0,-1
EndSplineSet
Validated: 1048581
EndChar

StartChar: uni04B4
Encoding: 1204 1204 457
Width: 1200
GlyphClass: 2
Flags: W
AnchorPoint: "Neo-1" 600 -406 basechar 0
AnchorPoint: "Neo-0" 600 1378 basechar 0
LayerCount: 2
Fore
SplineSet
244 0 m 1,0,-1
 244 1225 l 1,1,-1
 0 1225 l 1,2,-1
 0 1378 l 1,3,-1
 686 1378 l 1,4,-1
 665 1225 l 1,5,-1
 440 1225 l 1,6,-1
 440 162 l 1,7,-1
 832 162 l 1,8,-1
 832 1378 l 1,9,-1
 1028 1378 l 1,10,-1
 1028 161 l 1,11,-1
 1128 161 l 1,12,-1
 1128 -303 l 1,13,-1
 974 -303 l 1,14,-1
 944 0 l 1,15,-1
 244 0 l 1,0,-1
EndSplineSet
Validated: 1048577
EndChar

StartChar: uni04B6
Encoding: 1206 1206 458
Width: 1200
GlyphClass: 2
Flags: W
AnchorPoint: "Neo-1" 600 0 basechar 0
AnchorPoint: "Neo-0" 578 1378 basechar 0
LayerCount: 2
Fore
SplineSet
1162 161 m 1,0,-1
 1162 -303 l 1,1,-1
 1006 -303 l 1,2,-1
 975 0 l 1,3,-1
 845 0 l 1,4,-1
 845 551 l 1,5,6
 761 489 761 489 682.5 460.5 c 128,-1,7
 604 432 604 432 499 432 c 0,8,9
 314 432 314 432 203.5 544 c 128,-1,10
 93 656 93 656 93 849 c 2,11,-1
 93 1378 l 1,12,-1
 292 1378 l 1,13,-1
 292 863 l 2,14,15
 292 726 292 726 358 662.5 c 128,-1,16
 424 599 424 599 549 599 c 0,17,18
 653 599 653 599 725 631.5 c 128,-1,19
 797 664 797 664 845 711 c 1,20,-1
 845 1378 l 1,21,-1
 1043 1378 l 1,22,-1
 1043 161 l 1,23,-1
 1162 161 l 1,0,-1
EndSplineSet
Validated: 1048577
EndChar

StartChar: uni04B8
Encoding: 1208 1208 459
Width: 1200
GlyphClass: 2
Flags: W
AnchorPoint: "Neo-1" 600 0 basechar 0
AnchorPoint: "Neo-0" 578 1378 basechar 0
LayerCount: 2
Fore
SplineSet
639 1082 m 1,0,-1
 639 607 l 1,1,2
 707 619 707 619 757.5 647 c 128,-1,3
 808 675 808 675 845 711 c 1,4,-1
 845 1378 l 1,5,-1
 1043 1378 l 1,6,-1
 1043 0 l 1,7,-1
 845 0 l 1,8,-1
 845 551 l 1,9,10
 792 512 792 512 742.5 486.5 c 128,-1,11
 693 461 693 461 639 447 c 1,12,-1
 639 241 l 1,13,-1
 520 241 l 1,14,-1
 520 432 l 1,15,16
 510 432 510 432 499 432 c 0,17,18
 314 432 314 432 203.5 544 c 128,-1,19
 93 656 93 656 93 849 c 2,20,-1
 93 1378 l 1,21,-1
 292 1378 l 1,22,-1
 292 863 l 2,23,24
 292 734 292 734 350.5 670.5 c 128,-1,25
 409 607 409 607 520 600 c 1,26,-1
 520 1082 l 1,27,-1
 639 1082 l 1,0,-1
EndSplineSet
Validated: 1048577
EndChar

StartChar: uni04BA
Encoding: 1210 1210 460
Width: 1200
GlyphClass: 2
Flags: W
AnchorPoint: "Neo-1" 600 0 basechar 0
AnchorPoint: "Neo-0" 600 1378 basechar 0
LayerCount: 2
Fore
SplineSet
707 906 m 0,0,1
 892 906 892 906 998.5 790.5 c 128,-1,2
 1105 675 1105 675 1105 470 c 2,3,-1
 1105 0 l 1,4,-1
 907 0 l 1,5,-1
 907 468 l 2,6,7
 907 739 907 739 668 739 c 0,8,9
 563 739 563 739 490 700.5 c 128,-1,10
 417 662 417 662 355 594 c 1,11,-1
 355 0 l 1,12,-1
 157 0 l 1,13,-1
 157 1378 l 1,14,-1
 355 1378 l 1,15,-1
 355 762 l 1,16,17
 422 831 422 831 507.5 868.5 c 128,-1,18
 593 906 593 906 707 906 c 0,0,1
EndSplineSet
Validated: 1048577
EndChar

StartChar: uni0526
Encoding: 1318 1318 461
Width: 1200
GlyphClass: 1
Flags: W
LayerCount: 2
Fore
SplineSet
685 906 m 0,0,1
 876 906 876 906 982 790.5 c 128,-1,2
 1088 675 1088 675 1088 470 c 2,3,-1
 1088 161 l 1,4,-1
 1202 161 l 1,5,-1
 1202 -303 l 1,6,-1
 1046 -303 l 1,7,-1
 1015 0 l 1,8,-1
 889 0 l 1,9,-1
 889 468 l 2,10,11
 889 601 889 601 828.5 670 c 128,-1,12
 768 739 768 739 638 739 c 0,13,14
 544 739 544 739 476.5 701 c 128,-1,15
 409 663 409 663 355 597 c 1,16,-1
 355 0 l 1,17,-1
 157 0 l 1,18,-1
 157 1378 l 1,19,-1
 355 1378 l 1,20,-1
 355 771 l 1,21,22
 415 833 415 833 496 869.5 c 128,-1,23
 577 906 577 906 685 906 c 0,0,1
EndSplineSet
Validated: 1
EndChar

StartChar: uni04BC
Encoding: 1212 1212 462
Width: 1200
GlyphClass: 2
Flags: W
AnchorPoint: "Neo-1" 600 0 basechar 0
AnchorPoint: "Neo-0" 600 1378 basechar 0
LayerCount: 2
Fore
SplineSet
-1 850 m 0,0,1
 -1 916 -1 916 22.5 966 c 128,-1,2
 46 1016 46 1016 74 1057 c 1,3,-1
 197 1002 l 1,4,5
 181 967 181 967 169.5 934 c 128,-1,6
 158 901 158 901 158 864 c 0,7,8
 158 761 158 761 260 761 c 2,9,-1
 269 761 l 1,10,11
 286 1064 286 1064 407.5 1233.5 c 128,-1,12
 529 1403 529 1403 722 1403 c 256,13,14
 915 1403 915 1403 1026 1228.5 c 128,-1,15
 1137 1054 1137 1054 1137 714 c 0,16,17
 1137 694 1137 694 1135.5 665.5 c 128,-1,18
 1134 637 1134 637 1131 610 c 1,19,-1
 461 610 l 1,20,21
 464 436 464 436 502 330.5 c 128,-1,22
 540 225 540 225 603 177.5 c 128,-1,23
 666 130 666 130 743 130 c 0,24,25
 831 130 831 130 887 158 c 128,-1,26
 943 186 943 186 991 219 c 1,27,-1
 1079 106 l 1,28,29
 1021 56 1021 56 939 15.5 c 128,-1,30
 857 -25 857 -25 742 -25 c 0,31,32
 533 -25 533 -25 406.5 134 c 128,-1,33
 280 293 280 293 268 610 c 1,34,35
 135 611 135 611 67 681 c 128,-1,36
 -1 751 -1 751 -1 850 c 0,0,1
721 1251 m 0,37,38
 610 1251 610 1251 542 1135.5 c 128,-1,39
 474 1020 474 1020 461 761 c 1,40,-1
 955 761 l 1,41,42
 947 1030 947 1030 885.5 1140.5 c 128,-1,43
 824 1251 824 1251 721 1251 c 0,37,38
EndSplineSet
Validated: 1048577
EndChar

StartChar: uni04C3
Encoding: 1219 1219 466
Width: 1200
GlyphClass: 2
Flags: W
AnchorPoint: "Neo-1" 600 -406 basechar 0
AnchorPoint: "Neo-0" 600 1378 basechar 0
LayerCount: 2
Fore
SplineSet
157 0 m 1,0,-1
 157 1378 l 1,1,-1
 355 1378 l 1,2,-1
 355 779 l 1,3,-1
 541 779 l 1,4,-1
 879 1378 l 1,5,-1
 1086 1378 l 1,6,-1
 726 772 l 1,7,8
 908 748 908 748 992 640.5 c 128,-1,9
 1076 533 1076 533 1076 351 c 2,10,-1
 1076 -110 l 2,11,12
 1076 -269 1076 -269 992.5 -348.5 c 128,-1,13
 909 -428 909 -428 768 -428 c 0,14,15
 688 -428 688 -428 631 -404 c 128,-1,16
 574 -380 574 -380 536 -351 c 1,17,-1
 610 -225 l 1,18,19
 644 -245 644 -245 676 -257.5 c 128,-1,20
 708 -270 708 -270 757 -270 c 0,21,22
 815 -270 815 -270 846.5 -235 c 128,-1,23
 878 -200 878 -200 878 -123 c 2,24,-1
 878 349 l 2,25,26
 878 486 878 486 812.5 552 c 128,-1,27
 747 618 747 618 588 618 c 2,28,-1
 355 618 l 1,29,-1
 355 0 l 1,30,-1
 157 0 l 1,0,-1
EndSplineSet
Validated: 1048577
EndChar

StartChar: uni04C5
Encoding: 1221 1221 467
Width: 1200
GlyphClass: 1
Flags: W
LayerCount: 2
Fore
SplineSet
1171 165 m 1,0,-1
 1009 -303 l 1,1,-1
 852 -303 l 1,2,-1
 922 0 l 1,3,-1
 793 0 l 1,4,-1
 793 1213 l 1,5,-1
 507 1213 l 1,6,-1
 463 835 l 2,7,8
 440 643 440 643 416 510.5 c 128,-1,9
 392 378 392 378 363.5 291 c 128,-1,10
 335 204 335 204 299.5 147.5 c 128,-1,11
 264 91 264 91 218 51.5 c 128,-1,12
 172 12 172 12 114 -25 c 1,13,-1
 29 118 l 1,14,15
 65 148 65 148 96.5 183 c 128,-1,16
 128 218 128 218 156.5 285 c 128,-1,17
 185 352 185 352 211 474 c 128,-1,18
 237 596 237 596 262 799 c 2,19,-1
 334 1378 l 1,20,-1
 991 1378 l 1,21,-1
 991 165 l 1,22,-1
 1171 165 l 1,0,-1
EndSplineSet
Validated: 1
EndChar

StartChar: uni04C7
Encoding: 1223 1223 468
Width: 1200
GlyphClass: 2
Flags: W
AnchorPoint: "Neo-2" 600 690 basechar 0
AnchorPoint: "Neo-1" 600 0 basechar 0
AnchorPoint: "Neo-0" 600 1378 basechar 0
LayerCount: 2
Fore
SplineSet
735 -428 m 0,0,1
 655 -428 655 -428 598 -404 c 128,-1,2
 541 -380 541 -380 503 -351 c 1,3,-1
 577 -225 l 1,4,5
 612 -245 612 -245 643.5 -257.5 c 128,-1,6
 675 -270 675 -270 724 -270 c 0,7,8
 782 -270 782 -270 813.5 -235 c 128,-1,9
 845 -200 845 -200 845 -123 c 2,10,-1
 845 642 l 1,11,-1
 355 642 l 1,12,-1
 355 0 l 1,13,-1
 157 0 l 1,14,-1
 157 1378 l 1,15,-1
 355 1378 l 1,16,-1
 355 805 l 1,17,-1
 845 805 l 1,18,-1
 845 1378 l 1,19,-1
 1043 1378 l 1,20,-1
 1043 -110 l 2,21,22
 1043 -269 1043 -269 959.5 -348.5 c 128,-1,23
 876 -428 876 -428 735 -428 c 0,0,1
EndSplineSet
Validated: 1
EndChar

StartChar: uni04C9
Encoding: 1225 1225 469
Width: 1200
GlyphClass: 1
Flags: W
LayerCount: 2
Fore
SplineSet
782 0 m 1,0,-1
 782 642 l 1,1,-1
 333 642 l 1,2,-1
 333 0 l 1,3,-1
 135 0 l 1,4,-1
 135 1378 l 1,5,-1
 333 1378 l 1,6,-1
 333 805 l 1,7,-1
 782 805 l 1,8,-1
 782 1378 l 1,9,-1
 980 1378 l 1,10,-1
 980 165 l 1,11,-1
 1160 165 l 1,12,-1
 998 -303 l 1,13,-1
 841 -303 l 1,14,-1
 911 0 l 1,15,-1
 782 0 l 1,0,-1
EndSplineSet
Validated: 1
EndChar

StartChar: uni04CB
Encoding: 1227 1227 470
Width: 1200
GlyphClass: 2
Flags: W
AnchorPoint: "Neo-1" 600 0 basechar 0
AnchorPoint: "Neo-0" 578 1378 basechar 0
LayerCount: 2
Fore
SplineSet
702 161 m 1,0,-1
 845 161 l 1,1,-1
 845 551 l 1,2,3
 761 489 761 489 682.5 460.5 c 128,-1,4
 604 432 604 432 499 432 c 0,5,6
 314 432 314 432 203.5 544 c 128,-1,7
 93 656 93 656 93 849 c 2,8,-1
 93 1378 l 1,9,-1
 292 1378 l 1,10,-1
 292 863 l 2,11,12
 292 726 292 726 358 662.5 c 128,-1,13
 424 599 424 599 549 599 c 0,14,15
 653 599 653 599 725 631.5 c 128,-1,16
 797 664 797 664 845 711 c 1,17,-1
 845 1378 l 1,18,-1
 1043 1378 l 1,19,-1
 1043 0 l 1,20,-1
 889 0 l 1,21,-1
 858 -303 l 1,22,-1
 702 -303 l 1,23,-1
 702 161 l 1,0,-1
EndSplineSet
Validated: 1048577
EndChar

StartChar: uni04CD
Encoding: 1229 1229 471
Width: 1200
GlyphClass: 1
Flags: W
LayerCount: 2
Fore
SplineSet
1217 165 m 1,0,-1
 1054 -303 l 1,1,-1
 900 -303 l 1,2,-1
 970 0 l 1,3,-1
 877 0 l 1,4,-1
 839 699 l 2,5,6
 834 797 834 797 832 895.5 c 128,-1,7
 830 994 830 994 830.5 1072.5 c 128,-1,8
 831 1151 831 1151 832 1191 c 1,9,-1
 643 245 l 1,10,-1
 457 245 l 1,11,-1
 256 1191 l 1,12,13
 257 1150 257 1150 258 1068 c 128,-1,14
 259 986 259 986 258 887.5 c 128,-1,15
 257 789 257 789 253 699 c 2,16,-1
 221 0 l 1,17,-1
 38 0 l 1,18,-1
 116 1378 l 1,19,-1
 373 1378 l 1,20,-1
 555 443 l 1,21,-1
 727 1378 l 1,22,-1
 986 1378 l 1,23,-1
 1055 165 l 1,24,-1
 1217 165 l 1,0,-1
EndSplineSet
Validated: 33
EndChar

StartChar: uni04D8
Encoding: 1240 1240 476
Width: 1200
GlyphClass: 2
Flags: W
AnchorPoint: "Neo-1" 600 0 basechar 0
AnchorPoint: "Neo-0" 586 1379 basechar 0
LayerCount: 2
Fore
SplineSet
81 665 m 0,0,1
 81 685 81 685 82.5 713 c 128,-1,2
 84 741 84 741 88 768 c 1,3,-1
 909 768 l 1,4,5
 900 1027 900 1027 813.5 1137.5 c 128,-1,6
 727 1248 727 1248 577 1248 c 0,7,8
 477 1248 477 1248 405 1214.5 c 128,-1,9
 333 1181 333 1181 266 1132 c 1,10,-1
 167 1246 l 1,11,12
 249 1316 249 1316 350.5 1359.5 c 128,-1,13
 452 1403 452 1403 586 1403 c 0,14,15
 841 1403 841 1403 976 1228 c 128,-1,16
 1111 1053 1111 1053 1111 706 c 0,17,18
 1111 476 1111 476 1048.5 312 c 128,-1,19
 986 148 986 148 870 61.5 c 128,-1,20
 754 -25 754 -25 594 -25 c 0,21,22
 353 -25 353 -25 217 150 c 128,-1,23
 81 325 81 325 81 665 c 0,0,1
596 132 m 0,24,25
 735 132 735 132 815 246.5 c 128,-1,26
 895 361 895 361 909 612 c 1,27,-1
 273 612 l 1,28,29
 283 352 283 352 363.5 242 c 128,-1,30
 444 132 444 132 596 132 c 0,24,25
EndSplineSet
Validated: 1048577
EndChar

StartChar: uni04E0
Encoding: 1248 1248 480
Width: 1200
GlyphClass: 1
Flags: W
LayerCount: 2
Fore
SplineSet
564 -25 m 256,0,1
 409 -25 409 -25 311.5 16.5 c 128,-1,2
 214 58 214 58 131 129 c 1,3,-1
 230 248 l 1,4,5
 304 197 304 197 377.5 166.5 c 128,-1,6
 451 136 451 136 563 136 c 0,7,8
 708 136 708 136 785.5 209.5 c 128,-1,9
 863 283 863 283 863 414 c 0,10,11
 863 541 863 541 789 597 c 128,-1,12
 715 653 715 653 584 653 c 2,13,-1
 350 653 l 1,14,-1
 350 790 l 1,15,-1
 782 1217 l 1,16,-1
 188 1217 l 1,17,-1
 188 1378 l 1,18,-1
 1008 1378 l 1,19,-1
 1008 1220 l 1,20,-1
 577 800 l 1,21,-1
 608 800 l 2,22,23
 852 800 852 800 960.5 694 c 128,-1,24
 1069 588 1069 588 1069 413 c 0,25,26
 1069 284 1069 284 1007.5 185 c 128,-1,27
 946 86 946 86 832.5 30.5 c 128,-1,28
 719 -25 719 -25 564 -25 c 256,0,1
EndSplineSet
Validated: 1
EndChar

StartChar: uni04E8
Encoding: 1256 1256 484
Width: 1200
GlyphClass: 2
Flags: W
AnchorPoint: "Neo-1" 600 0 basechar 0
AnchorPoint: "Neo-0" 600 1378 basechar 0
LayerCount: 2
Fore
SplineSet
1115 688 m 0,0,1
 1115 478 1115 478 1057 317 c 128,-1,2
 999 156 999 156 884.5 65.5 c 128,-1,3
 770 -25 770 -25 600 -25 c 256,4,5
 430 -25 430 -25 315.5 63.5 c 128,-1,6
 201 152 201 152 143 312 c 128,-1,7
 85 472 85 472 85 686 c 0,8,9
 85 897 85 897 143 1058.5 c 128,-1,10
 201 1220 201 1220 315.5 1311.5 c 128,-1,11
 430 1403 430 1403 600 1403 c 256,12,13
 770 1403 770 1403 884.5 1314 c 128,-1,14
 999 1225 999 1225 1057 1064 c 128,-1,15
 1115 903 1115 903 1115 688 c 0,0,1
600 1242 m 256,16,17
 450 1242 450 1242 377.5 1124 c 128,-1,18
 305 1006 305 1006 293 774 c 1,19,-1
 905 774 l 1,20,21
 894 1006 894 1006 822 1124 c 128,-1,22
 750 1242 750 1242 600 1242 c 256,16,17
600 136 m 0,23,24
 758 136 758 136 829.5 262 c 128,-1,25
 901 388 901 388 907 630 c 1,26,-1
 291 630 l 1,27,28
 297 388 297 388 371 262 c 128,-1,29
 445 136 445 136 600 136 c 0,23,24
EndSplineSet
Validated: 1048577
EndChar

StartChar: uni04FA
Encoding: 1274 1274 492
Width: 1200
GlyphClass: 2
Flags: W
AnchorPoint: "Neo-1" 444 0 basechar 0
AnchorPoint: "Neo-0" 779 1378 basechar 0
LayerCount: 2
Fore
SplineSet
358 -428 m 0,0,1
 278 -428 278 -428 221 -404 c 128,-1,2
 164 -380 164 -380 126 -351 c 1,3,-1
 200 -225 l 1,4,5
 235 -245 235 -245 266.5 -257.5 c 128,-1,6
 298 -270 298 -270 347 -270 c 0,7,8
 405 -270 405 -270 436.5 -235 c 128,-1,9
 468 -200 468 -200 468 -123 c 2,10,-1
 468 0 l 1,11,-1
 344 0 l 1,12,-1
 344 723 l 1,13,-1
 151 723 l 1,14,-1
 151 866 l 1,15,-1
 344 866 l 1,16,-1
 344 1378 l 1,17,-1
 1181 1378 l 1,18,-1
 1160 1209 l 1,19,-1
 542 1209 l 1,20,-1
 542 866 l 1,21,-1
 853 866 l 1,22,-1
 853 723 l 1,23,-1
 542 723 l 1,24,-1
 542 161 l 1,25,-1
 666 161 l 1,26,-1
 666 -110 l 2,27,28
 666 -269 666 -269 582.5 -348.5 c 128,-1,29
 499 -428 499 -428 358 -428 c 0,0,1
EndSplineSet
Validated: 1048577
EndChar

StartChar: uni04FC
Encoding: 1276 1276 493
Width: 1200
GlyphClass: 2
Flags: W
AnchorPoint: "Neo-1" 571 0 basechar 0
AnchorPoint: "Neo-0" 571 1378 basechar 0
LayerCount: 2
Fore
SplineSet
856 -428 m 0,0,1
 776 -428 776 -428 719 -404 c 128,-1,2
 662 -380 662 -380 624 -351 c 1,3,-1
 698 -225 l 1,4,5
 732 -245 732 -245 764 -257.5 c 128,-1,6
 796 -270 796 -270 845 -270 c 0,7,8
 903 -270 903 -270 934.5 -235 c 128,-1,9
 966 -200 966 -200 966 -123 c 2,10,-1
 966 0 l 1,11,-1
 894 0 l 1,12,-1
 567 607 l 1,13,-1
 237 0 l 1,14,-1
 24 0 l 1,15,-1
 450 734 l 1,16,-1
 60 1378 l 1,17,-1
 284 1378 l 1,18,-1
 571 863 l 1,19,-1
 860 1378 l 1,20,-1
 1073 1378 l 1,21,-1
 686 744 l 1,22,-1
 1024 161 l 1,23,-1
 1164 161 l 1,24,-1
 1164 -110 l 2,25,26
 1164 -269 1164 -269 1080.5 -348.5 c 128,-1,27
 997 -428 997 -428 856 -428 c 0,0,1
EndSplineSet
Validated: 1048577
EndChar

StartChar: uni0500
Encoding: 1280 1280 495
Width: 1200
GlyphClass: 2
Flags: W
AnchorPoint: "Neo-1" 600 0 basechar 0
AnchorPoint: "Neo-0" 600 1378 basechar 0
LayerCount: 2
Fore
SplineSet
606 0 m 2,0,1
 457 0 457 0 340.5 46 c 128,-1,2
 224 92 224 92 156.5 186.5 c 128,-1,3
 89 281 89 281 89 426 c 0,4,5
 89 634 89 634 232 749 c 128,-1,6
 375 864 375 864 618 864 c 2,7,-1
 826 864 l 1,8,-1
 826 1378 l 1,9,-1
 1024 1378 l 1,10,-1
 1024 0 l 1,11,-1
 606 0 l 2,0,1
611 157 m 2,12,-1
 826 157 l 1,13,-1
 826 710 l 1,14,-1
 617 710 l 2,15,16
 467 710 467 710 383.5 642 c 128,-1,17
 300 574 300 574 300 426 c 0,18,19
 300 275 300 275 388 216 c 128,-1,20
 476 157 476 157 611 157 c 2,12,-1
EndSplineSet
Validated: 1048577
EndChar

StartChar: uni0502
Encoding: 1282 1282 496
Width: 1200
GlyphClass: 2
Flags: W
AnchorPoint: "Neo-1" 600 0 basechar 0
AnchorPoint: "Neo-0" 600 1378 basechar 0
LayerCount: 2
Fore
SplineSet
331 -28 m 0,0,1
 249 -28 249 -28 177.5 18 c 128,-1,2
 106 64 106 64 62 156 c 128,-1,3
 18 248 18 248 18 386 c 0,4,5
 18 608 18 608 130.5 733 c 128,-1,6
 243 858 243 858 458 858 c 2,7,-1
 547 858 l 1,8,-1
 547 1378 l 1,9,-1
 733 1378 l 1,10,-1
 733 304 l 2,11,12
 733 124 733 124 839 124 c 0,13,14
 878 124 878 124 911 158 c 128,-1,15
 944 192 944 192 964 273 c 128,-1,16
 984 354 984 354 984 496 c 0,17,18
 984 569 984 569 981 630 c 128,-1,19
 978 691 978 691 974 754 c 1,20,-1
 1160 754 l 1,21,22
 1164 696 1164 696 1167 634 c 128,-1,23
 1170 572 1170 572 1170 500 c 0,24,25
 1170 314 1170 314 1126 197.5 c 128,-1,26
 1082 81 1082 81 1006 26.5 c 128,-1,27
 930 -28 930 -28 834 -28 c 0,28,29
 662 -28 662 -28 587 126 c 1,30,31
 540 50 540 50 477 11 c 128,-1,32
 414 -28 414 -28 331 -28 c 0,0,1
363 124 m 0,33,34
 425 124 425 124 466.5 163 c 128,-1,35
 508 202 508 202 547 281 c 1,36,-1
 547 712 l 1,37,-1
 457 712 l 2,38,39
 341 712 341 712 272.5 633.5 c 128,-1,40
 204 555 204 555 204 386 c 0,41,42
 204 241 204 241 250.5 182.5 c 128,-1,43
 297 124 297 124 363 124 c 0,33,34
EndSplineSet
Validated: 1048577
EndChar

StartChar: uni0504
Encoding: 1284 1284 497
Width: 1200
GlyphClass: 2
Flags: W
AnchorPoint: "Neo-1" 600 0 basechar 0
AnchorPoint: "Neo-0" 600 1378 basechar 0
LayerCount: 2
Fore
SplineSet
104 581 m 1,0,-1
 104 731 l 1,1,-1
 248 731 l 2,2,3
 390 731 390 731 467.5 790 c 128,-1,4
 545 849 545 849 545 987 c 0,5,6
 545 1114 545 1114 469.5 1170 c 128,-1,7
 394 1226 394 1226 227 1226 c 2,8,-1
 47 1226 l 1,9,-1
 47 1378 l 1,10,-1
 229 1378 l 2,11,12
 489 1378 489 1378 622.5 1279 c 128,-1,13
 756 1180 756 1180 756 987 c 0,14,15
 756 841 756 841 681.5 751.5 c 128,-1,16
 607 662 607 662 461 618 c 1,17,-1
 604 299 l 2,18,19
 646 207 646 207 686.5 168 c 128,-1,20
 727 129 727 129 788 129 c 0,21,22
 837 129 837 129 876 163 c 128,-1,23
 915 197 915 197 937.5 280 c 128,-1,24
 960 363 960 363 960 510 c 0,25,26
 960 576 960 576 957 636.5 c 128,-1,27
 954 697 954 697 950 760 c 1,28,-1
 1143 760 l 1,29,30
 1148 701 1148 701 1150.5 639.5 c 128,-1,31
 1153 578 1153 578 1153 510 c 0,32,33
 1153 321 1153 321 1106.5 203 c 128,-1,34
 1060 85 1060 85 978 30 c 128,-1,35
 896 -25 896 -25 788 -25 c 0,36,37
 655 -25 655 -25 570.5 43.5 c 128,-1,38
 486 112 486 112 422 251 c 2,39,-1
 266 581 l 1,40,-1
 104 581 l 1,0,-1
EndSplineSet
Validated: 1048577
EndChar

StartChar: uni0506
Encoding: 1286 1286 498
Width: 1200
GlyphClass: 2
Flags: W
AnchorPoint: "Neo-1" 600 -406 basechar 0
AnchorPoint: "Neo-0" 600 1378 basechar 0
LayerCount: 2
Fore
SplineSet
1113 161 m 1,0,-1
 1113 -303 l 1,1,-1
 957 -303 l 1,2,-1
 926 0 l 1,3,-1
 849 0 l 1,4,-1
 485 581 l 1,5,-1
 198 581 l 1,6,-1
 198 732 l 1,7,-1
 502 732 l 2,8,9
 644 732 644 732 721.5 790.5 c 128,-1,10
 799 849 799 849 799 987 c 0,11,12
 799 1114 799 1114 725 1170 c 128,-1,13
 651 1226 651 1226 499 1226 c 2,14,-1
 140 1226 l 1,15,-1
 140 1378 l 1,16,-1
 482 1378 l 2,17,18
 742 1378 742 1378 875.5 1279.5 c 128,-1,19
 1009 1181 1009 1181 1009 987 c 0,20,21
 1009 832 1009 832 914.5 737.5 c 128,-1,22
 820 643 820 643 682 607 c 1,23,-1
 977 161 l 1,24,-1
 1113 161 l 1,0,-1
EndSplineSet
Validated: 1048577
EndChar

StartChar: uni0508
Encoding: 1288 1288 499
Width: 1200
GlyphClass: 2
Flags: W
AnchorPoint: "Neo-1" 600 0 basechar 0
AnchorPoint: "Neo-0" 600 1378 basechar 0
LayerCount: 2
Fore
SplineSet
110 -25 m 1,0,-1
 7 107 l 1,1,2
 35 135 35 135 57 171.5 c 128,-1,3
 79 208 79 208 97 277 c 128,-1,4
 115 346 115 346 131 470 c 128,-1,5
 147 594 147 594 162 797 c 2,6,-1
 207 1378 l 1,7,-1
 741 1378 l 1,8,-1
 741 304 l 2,9,10
 741 124 741 124 846 124 c 0,11,12
 885 124 885 124 918 158 c 128,-1,13
 951 192 951 192 971 273 c 128,-1,14
 991 354 991 354 991 496 c 0,15,16
 991 569 991 569 988.5 630 c 128,-1,17
 986 691 986 691 981 754 c 1,18,-1
 1167 754 l 1,19,20
 1171 696 1171 696 1174 634 c 128,-1,21
 1177 572 1177 572 1177 500 c 0,22,23
 1177 314 1177 314 1133.5 197.5 c 128,-1,24
 1090 81 1090 81 1014 26.5 c 128,-1,25
 938 -28 938 -28 842 -28 c 0,26,27
 721 -28 721 -28 637.5 56 c 128,-1,28
 554 140 554 140 554 313 c 2,29,-1
 554 1223 l 1,30,-1
 379 1223 l 1,31,-1
 346 755 l 2,32,33
 331 541 331 541 311 408.5 c 128,-1,34
 291 276 291 276 263.5 197.5 c 128,-1,35
 236 119 236 119 198 70 c 128,-1,36
 160 21 160 21 110 -25 c 1,0,-1
EndSplineSet
Validated: 1048577
EndChar

StartChar: uni050A
Encoding: 1290 1290 500
Width: 1200
GlyphClass: 2
Flags: W
AnchorPoint: "Neo-1" 600 0 basechar 0
AnchorPoint: "Neo-0" 600 1378 basechar 0
LayerCount: 2
Fore
SplineSet
844 -28 m 0,0,1
 723 -28 723 -28 639.5 56 c 128,-1,2
 556 140 556 140 556 313 c 2,3,-1
 556 642 l 1,4,-1
 279 642 l 1,5,-1
 279 0 l 1,6,-1
 92 0 l 1,7,-1
 92 1378 l 1,8,-1
 279 1378 l 1,9,-1
 279 801 l 1,10,-1
 556 801 l 1,11,-1
 556 1378 l 1,12,-1
 743 1378 l 1,13,-1
 743 304 l 2,14,15
 743 124 743 124 848 124 c 0,16,17
 888 124 888 124 920.5 158 c 128,-1,18
 953 192 953 192 973 273 c 128,-1,19
 993 354 993 354 993 496 c 0,20,21
 993 569 993 569 990 630 c 128,-1,22
 987 691 987 691 983 754 c 1,23,-1
 1170 754 l 1,24,25
 1175 696 1175 696 1177.5 634 c 128,-1,26
 1180 572 1180 572 1180 500 c 0,27,28
 1180 314 1180 314 1136.5 197.5 c 128,-1,29
 1093 81 1093 81 1017 26.5 c 128,-1,30
 941 -28 941 -28 844 -28 c 0,0,1
EndSplineSet
Validated: 1048577
EndChar

StartChar: uni050E
Encoding: 1294 1294 502
Width: 1200
GlyphClass: 2
Flags: W
AnchorPoint: "Neo-1" 600 0 basechar 0
AnchorPoint: "Neo-0" 600 1378 basechar 0
LayerCount: 2
Fore
SplineSet
379 608 m 1,0,-1
 379 1211 l 1,1,-1
 30 1211 l 1,2,-1
 30 1378 l 1,3,-1
 976 1378 l 1,4,-1
 955 1211 l 1,5,-1
 577 1211 l 1,6,-1
 577 358 l 2,7,8
 577 237 577 237 616 183 c 128,-1,9
 655 129 655 129 725 129 c 0,10,11
 783 129 783 129 833 163 c 128,-1,12
 883 197 883 197 914.5 280 c 128,-1,13
 946 363 946 363 946 509 c 0,14,15
 946 576 946 576 943 635.5 c 128,-1,16
 940 695 940 695 936 758 c 1,17,-1
 1129 758 l 1,18,19
 1133 700 1133 700 1136 638.5 c 128,-1,20
 1139 577 1139 577 1139 509 c 0,21,22
 1139 321 1139 321 1076 203 c 128,-1,23
 1013 85 1013 85 916 30 c 128,-1,24
 819 -25 819 -25 716 -25 c 0,25,26
 624 -25 624 -25 547.5 16.5 c 128,-1,27
 471 58 471 58 425 141 c 128,-1,28
 379 224 379 224 379 348 c 2,29,-1
 379 608 l 1,30,-1
 379 608 l 1,0,-1
EndSplineSet
Validated: 1048577
EndChar

StartChar: uni0510
Encoding: 1296 1296 503
Width: 1200
GlyphClass: 1
Flags: W
LayerCount: 2
Fore
SplineSet
640 1403 m 0,0,1
 780 1403 780 1403 894 1360 c 128,-1,2
 1008 1317 1008 1317 1111 1231 c 1,3,-1
 1003 1117 l 1,4,5
 927 1177 927 1177 843 1211.5 c 128,-1,6
 759 1246 759 1246 648 1246 c 0,7,8
 524 1246 524 1246 441.5 1192.5 c 128,-1,9
 359 1139 359 1139 359 1033 c 0,10,11
 359 958 359 958 398.5 910.5 c 128,-1,12
 438 863 438 863 503 840.5 c 128,-1,13
 568 818 568 818 646 818 c 2,14,-1
 877 818 l 1,15,-1
 854 657 l 1,16,-1
 634 657 l 2,17,18
 498 657 498 657 409.5 597 c 128,-1,19
 321 537 321 537 321 402 c 0,20,21
 321 280 321 280 406.5 208 c 128,-1,22
 492 136 492 136 647 136 c 0,23,24
 756 136 756 136 850 173.5 c 128,-1,25
 944 211 944 211 1026 279 c 1,26,-1
 1139 172 l 1,27,28
 1048 77 1048 77 919 26 c 128,-1,29
 790 -25 790 -25 638 -25 c 0,30,31
 476 -25 476 -25 357.5 30 c 128,-1,32
 239 85 239 85 175.5 180.5 c 128,-1,33
 112 276 112 276 112 400 c 0,34,35
 112 506 112 506 158.5 580 c 128,-1,36
 205 654 205 654 281.5 695.5 c 128,-1,37
 358 737 358 737 447 747 c 1,38,39
 325 766 325 766 241 839 c 128,-1,40
 157 912 157 912 157 1034 c 0,41,42
 157 1144 157 1144 219 1227 c 128,-1,43
 281 1310 281 1310 390 1356.5 c 128,-1,44
 499 1403 499 1403 640 1403 c 0,0,1
EndSplineSet
Validated: 1
EndChar

StartChar: uni0512
Encoding: 1298 1298 504
Width: 1200
GlyphClass: 2
Flags: W
AnchorPoint: "Neo-1" 600 0 basechar 0
AnchorPoint: "Neo-0" 600 1378 basechar 0
LayerCount: 2
Fore
SplineSet
735 -428 m 0,0,1
 655 -428 655 -428 598 -404 c 128,-1,2
 541 -380 541 -380 503 -351 c 1,3,-1
 577 -225 l 1,4,5
 612 -245 612 -245 643.5 -257.5 c 128,-1,6
 675 -270 675 -270 724 -270 c 0,7,8
 782 -270 782 -270 813.5 -235 c 128,-1,9
 845 -200 845 -200 845 -123 c 2,10,-1
 845 1213 l 1,11,-1
 499 1213 l 1,12,-1
 455 835 l 2,13,14
 433 643 433 643 408.5 510.5 c 128,-1,15
 384 378 384 378 355.5 291 c 128,-1,16
 327 204 327 204 291.5 147.5 c 128,-1,17
 256 91 256 91 210 51.5 c 128,-1,18
 164 12 164 12 106 -25 c 1,19,-1
 21 118 l 1,20,21
 57 148 57 148 88.5 183 c 128,-1,22
 120 218 120 218 148.5 285 c 128,-1,23
 177 352 177 352 203 474 c 128,-1,24
 229 596 229 596 254 799 c 2,25,-1
 326 1378 l 1,26,-1
 1043 1378 l 1,27,-1
 1043 -110 l 2,28,29
 1043 -269 1043 -269 959.5 -348.5 c 128,-1,30
 876 -428 876 -428 735 -428 c 0,0,1
EndSplineSet
Validated: 1048577
EndChar

StartChar: uni0514
Encoding: 1300 1300 505
Width: 1200
GlyphClass: 2
Flags: W
AnchorPoint: "Neo-1" 600 0 basechar 0
AnchorPoint: "Neo-0" 600 1378 basechar 0
LayerCount: 2
Fore
SplineSet
202 1378 m 1,0,-1
 609 1378 l 1,1,-1
 806 864 l 1,2,-1
 1000 1378 l 1,3,-1
 1181 1378 l 1,4,-1
 914 739 l 1,5,-1
 1216 0 l 1,6,-1
 1025 0 l 1,7,-1
 795 602 l 1,8,-1
 574 0 l 1,9,-1
 391 0 l 1,10,-1
 686 736 l 1,11,-1
 487 1215 l 1,12,-1
 373 1215 l 1,13,-1
 341 755 l 2,14,15
 326 541 326 541 306 408.5 c 128,-1,16
 286 276 286 276 258.5 197.5 c 128,-1,17
 231 119 231 119 193 70 c 128,-1,18
 155 21 155 21 104 -25 c 1,19,-1
 2 107 l 1,20,21
 30 135 30 135 52 171.5 c 128,-1,22
 74 208 74 208 92 277 c 128,-1,23
 110 346 110 346 125.5 470 c 128,-1,24
 141 594 141 594 157 797 c 2,25,-1
 202 1378 l 1,0,-1
EndSplineSet
Validated: 1048577
EndChar

StartChar: uni0516
Encoding: 1302 1302 506
Width: 1200
GlyphClass: 2
Flags: W
AnchorPoint: "Neo-1" 600 0 basechar 0
AnchorPoint: "Neo-0" 600 1378 basechar 0
LayerCount: 2
Fore
SplineSet
98 0 m 1,0,-1
 98 1378 l 1,1,-1
 356 1378 l 2,2,3
 558 1378 558 1378 670.5 1261.5 c 128,-1,4
 783 1145 783 1145 783 951 c 0,5,6
 783 943 783 943 783 935 c 1,7,-1
 992 1378 l 1,8,-1
 1179 1378 l 1,9,-1
 842 712 l 1,10,-1
 1184 0 l 1,11,-1
 975 0 l 1,12,-1
 669 636 l 1,13,14
 612 573 612 573 533 538 c 128,-1,15
 454 503 454 503 359 503 c 2,16,-1
 285 503 l 1,17,-1
 285 0 l 1,18,-1
 98 0 l 1,0,-1
360 1226 m 2,19,-1
 285 1226 l 1,20,-1
 285 658 l 1,21,-1
 350 658 l 2,22,23
 420 658 420 658 478 685 c 128,-1,24
 536 712 536 712 570 775.5 c 128,-1,25
 604 839 604 839 604 949 c 0,26,27
 604 1090 604 1090 537.5 1158 c 128,-1,28
 471 1226 471 1226 360 1226 c 2,19,-1
EndSplineSet
Validated: 1048577
EndChar

StartChar: uni0518
Encoding: 1304 1304 507
Width: 1200
GlyphClass: 2
Flags: W
AnchorPoint: "Neo-1" 600 0 basechar 0
AnchorPoint: "Neo-0" 600 1378 basechar 0
LayerCount: 2
Fore
SplineSet
13 0 m 1,0,-1
 273 588 l 1,1,2
 36 698 36 698 36 963 c 0,3,4
 36 1153 36 1153 165.5 1265.5 c 128,-1,5
 295 1378 295 1378 521 1378 c 2,6,-1
 1181 1378 l 1,7,-1
 1158 1222 l 1,8,-1
 778 1222 l 1,9,-1
 778 778 l 1,10,-1
 1084 778 l 1,11,-1
 1084 622 l 1,12,-1
 778 622 l 1,13,-1
 778 155 l 1,14,-1
 1196 155 l 1,15,-1
 1196 0 l 1,16,-1
 582 0 l 1,17,-1
 582 545 l 1,18,-1
 454 545 l 1,19,-1
 232 0 l 1,20,-1
 13 0 l 1,0,-1
474 699 m 2,21,-1
 582 699 l 1,22,-1
 582 1226 l 1,23,-1
 504 1226 l 2,24,25
 382 1226 382 1226 313 1159.5 c 128,-1,26
 244 1093 244 1093 244 962 c 0,27,28
 244 826 244 826 308 762.5 c 128,-1,29
 372 699 372 699 474 699 c 2,21,-1
EndSplineSet
Validated: 1048577
EndChar

StartChar: uni051E
Encoding: 1310 1310 510
Width: 1200
GlyphClass: 2
Flags: W
AnchorPoint: "Neo-1" 591 0 basechar 0
AnchorPoint: "Neo-0" 631 1378 basechar 0
LayerCount: 2
Fore
SplineSet
519 643 m 1,0,-1
 365 643 l 1,1,-1
 365 0 l 1,2,-1
 166 0 l 1,3,-1
 166 1378 l 1,4,-1
 365 1378 l 1,5,-1
 365 804 l 1,6,-1
 521 804 l 1,7,-1
 692 1047 l 1,8,-1
 460 1190 l 1,9,-1
 536 1312 l 1,10,-1
 774 1165 l 1,11,-1
 924 1378 l 1,12,-1
 1133 1378 l 1,13,-1
 922 1073 l 1,14,-1
 1135 942 l 1,15,-1
 1059 821 l 1,16,-1
 841 956 l 1,17,-1
 687 734 l 1,18,-1
 1171 0 l 1,19,-1
 937 0 l 1,20,-1
 519 643 l 1,0,-1
EndSplineSet
Validated: 1048577
EndChar

StartChar: uni0520
Encoding: 1312 1312 511
Width: 1200
GlyphClass: 2
Flags: W
AnchorPoint: "Neo-1" 600 -406 basechar 0
AnchorPoint: "Neo-0" 600 1378 basechar 0
LayerCount: 2
Fore
SplineSet
86 -25 m 1,0,-1
 -17 107 l 1,1,2
 11 135 11 135 33 171.5 c 128,-1,3
 55 208 55 208 73 277 c 128,-1,4
 91 346 91 346 107 470 c 128,-1,5
 123 594 123 594 138 797 c 2,6,-1
 183 1378 l 1,7,-1
 717 1378 l 1,8,-1
 717 828 l 1,9,10
 754 864 754 864 799 884.5 c 128,-1,11
 844 905 844 905 904 905 c 0,12,13
 1028 905 1028 905 1097 822 c 128,-1,14
 1166 739 1166 739 1166 613 c 2,15,-1
 1166 -113 l 2,16,17
 1166 -268 1166 -268 1081 -348 c 128,-1,18
 996 -428 996 -428 868 -428 c 0,19,20
 788 -428 788 -428 731 -404 c 128,-1,21
 674 -380 674 -380 636 -351 c 1,22,-1
 710 -229 l 1,23,24
 744 -249 744 -249 776 -262 c 128,-1,25
 808 -275 808 -275 857 -275 c 0,26,27
 978 -275 978 -275 978 -127 c 2,28,-1
 978 593 l 2,29,30
 978 742 978 742 864 742 c 0,31,32
 788 742 788 742 717 677 c 1,33,-1
 717 0 l 1,34,-1
 530 0 l 1,35,-1
 530 1223 l 1,36,-1
 355 1223 l 1,37,-1
 322 755 l 2,38,39
 307 541 307 541 287 408.5 c 128,-1,40
 267 276 267 276 239.5 197.5 c 128,-1,41
 212 119 212 119 174 70 c 128,-1,42
 136 21 136 21 86 -25 c 1,0,-1
EndSplineSet
Validated: 1048577
EndChar

StartChar: uni0522
Encoding: 1314 1314 512
Width: 1200
GlyphClass: 2
Flags: W
AnchorPoint: "Neo-1" 600 -406 basechar 0
AnchorPoint: "Neo-0" 600 1378 basechar 0
LayerCount: 2
Fore
SplineSet
516 0 m 1,0,-1
 516 642 l 1,1,-1
 239 642 l 1,2,-1
 239 0 l 1,3,-1
 52 0 l 1,4,-1
 52 1378 l 1,5,-1
 239 1378 l 1,6,-1
 239 801 l 1,7,-1
 516 801 l 1,8,-1
 516 1378 l 1,9,-1
 703 1378 l 1,10,-1
 703 828 l 1,11,12
 742 864 742 864 790 884.5 c 128,-1,13
 838 905 838 905 901 905 c 0,14,15
 1032 905 1032 905 1107.5 819.5 c 128,-1,16
 1183 734 1183 734 1183 594 c 2,17,-1
 1183 -113 l 2,18,19
 1183 -268 1183 -268 1098 -348 c 128,-1,20
 1013 -428 1013 -428 884 -428 c 0,21,22
 804 -428 804 -428 747 -404 c 128,-1,23
 690 -380 690 -380 652 -351 c 1,24,-1
 726 -228 l 1,25,26
 760 -249 760 -249 792 -261.5 c 128,-1,27
 824 -274 824 -274 873 -274 c 0,28,29
 931 -274 931 -274 962.5 -239 c 128,-1,30
 994 -204 994 -204 994 -127 c 2,31,-1
 994 593 l 2,32,33
 994 669 994 669 959 705.5 c 128,-1,34
 924 742 924 742 863 742 c 0,35,36
 781 742 781 742 703 675 c 1,37,-1
 703 0 l 1,38,-1
 516 0 l 1,0,-1
EndSplineSet
Validated: 1048577
EndChar

StartChar: uni048C
Encoding: 1164 1164 513
Width: 1200
GlyphClass: 2
Flags: W
AnchorPoint: "Neo-1" 600 0 basechar 0
AnchorPoint: "Neo-0" 600 1378 basechar 0
LayerCount: 2
Fore
SplineSet
238 0 m 1,0,-1
 238 1059 l 1,1,-1
 60 1059 l 1,2,-1
 60 1194 l 1,3,-1
 238 1194 l 1,4,-1
 238 1378 l 1,5,-1
 436 1378 l 1,6,-1
 436 1194 l 1,7,-1
 695 1194 l 1,8,-1
 695 1059 l 1,9,-1
 436 1059 l 1,10,-1
 436 862 l 1,11,-1
 625 862 l 2,12,13
 858 862 858 862 999.5 758.5 c 128,-1,14
 1141 655 1141 655 1141 445 c 0,15,16
 1141 289 1141 289 1072.5 190.5 c 128,-1,17
 1004 92 1004 92 884 46 c 128,-1,18
 764 0 764 0 608 0 c 2,19,-1
 238 0 l 1,0,-1
436 157 m 1,20,-1
 622 157 l 2,21,22
 711 157 711 157 781 182.5 c 128,-1,23
 851 208 851 208 891 269.5 c 128,-1,24
 931 331 931 331 931 441 c 0,25,26
 931 588 931 588 848.5 648 c 128,-1,27
 766 708 766 708 627 708 c 2,28,-1
 436 708 l 1,29,-1
 436 157 l 1,20,-1
EndSplineSet
Validated: 1048577
EndChar

StartChar: uni048E
Encoding: 1166 1166 514
Width: 1200
GlyphClass: 2
Flags: W
AnchorPoint: "Neo-1" 600 0 basechar 0
AnchorPoint: "Neo-0" 600 1378 basechar 0
LayerCount: 2
Fore
SplineSet
1120 947 m 0,0,1
 1120 828 1120 828 1072.5 740 c 128,-1,2
 1025 652 1025 652 942 597 c 1,3,-1
 1101 336 l 1,4,-1
 943 336 l 1,5,-1
 820 538 l 1,6,7
 715 503 715 503 585 503 c 2,8,-1
 413 503 l 1,9,-1
 413 0 l 1,10,-1
 214 0 l 1,11,-1
 214 1378 l 1,12,-1
 579 1378 l 2,13,14
 831 1378 831 1378 975.5 1273 c 128,-1,15
 1120 1168 1120 1168 1120 947 c 0,0,1
563 958 m 1,16,-1
 721 958 l 1,17,-1
 852 743 l 1,18,19
 911 811 911 811 911 945 c 0,20,21
 911 1100 911 1100 823.5 1162.5 c 128,-1,22
 736 1225 736 1225 599 1225 c 2,23,-1
 413 1225 l 1,24,-1
 413 659 l 1,25,-1
 596 659 l 2,26,27
 678 659 678 659 736 675 c 1,28,-1
 563 958 l 1,16,-1
EndSplineSet
Validated: 1048577
EndChar

StartChar: uni0528
Encoding: 1320 1320 515
Width: 1200
GlyphClass: 2
Flags: W
AnchorPoint: "Neo-2" 600 690 basechar 0
AnchorPoint: "Neo-1" 600 0 basechar 0
AnchorPoint: "Neo-0" 600 1378 basechar 0
LayerCount: 2
Fore
SplineSet
47 -430 m 0,0,1
 -33 -430 -33 -430 -90 -406 c 128,-1,2
 -147 -382 -147 -382 -185 -353 c 1,3,-1
 -111 -227 l 1,4,5
 -76 -247 -76 -247 -44.5 -259.5 c 128,-1,6
 -13 -272 -13 -272 36 -272 c 0,7,8
 94 -272 94 -272 125.5 -237 c 128,-1,9
 157 -202 157 -202 157 -125 c 2,10,-1
 157 1378 l 1,11,-1
 355 1378 l 1,12,-1
 355 805 l 1,13,-1
 845 805 l 1,14,-1
 845 1378 l 1,15,-1
 1043 1378 l 1,16,-1
 1043 0 l 1,17,-1
 845 0 l 1,18,-1
 845 642 l 1,19,-1
 355 642 l 1,20,-1
 355 -112 l 2,21,22
 355 -271 355 -271 271.5 -350.5 c 128,-1,23
 188 -430 188 -430 47 -430 c 0,0,1
EndSplineSet
Validated: 1
EndChar

StartChar: uni052A
Encoding: 1322 1322 516
Width: 1200
GlyphClass: 2
Flags: W
AnchorPoint: "Neo-1" 600 -406 basechar 0
AnchorPoint: "Neo-0" 600 1378 basechar 0
LayerCount: 2
Fore
SplineSet
-26 -303 m 1,0,-1
 -26 140 l 1,1,-1
 39 140 l 1,2,3
 57 186 57 186 75 242 c 128,-1,4
 93 298 93 298 109 379 c 128,-1,5
 125 460 125 460 139.5 581.5 c 128,-1,6
 154 703 154 703 166 882 c 2,7,-1
 198 1378 l 1,8,-1
 601 1378 l 1,9,-1
 601 793 l 1,10,-1
 700 793 l 1,11,-1
 700 1378 l 1,12,-1
 852 1378 l 1,13,-1
 852 793 l 1,14,-1
 906 793 l 1,15,-1
 1035 1378 l 1,16,-1
 1188 1378 l 1,17,-1
 1036 730 l 1,18,-1
 1224 0 l 1,19,-1
 1052 0 l 1,20,-1
 904 646 l 1,21,-1
 852 646 l 1,22,-1
 852 0 l 1,23,-1
 731 0 l 1,24,-1
 731 -303 l 1,25,-1
 597 -303 l 1,26,-1
 568 0 l 1,27,-1
 135 0 l 1,28,-1
 105 -303 l 1,29,-1
 -26 -303 l 1,0,-1
180 140 m 1,30,-1
 449 140 l 1,31,-1
 449 1238 l 1,32,-1
 345 1238 l 1,33,-1
 326 874 l 2,34,35
 318 707 318 707 305.5 589 c 128,-1,36
 293 471 293 471 275.5 388.5 c 128,-1,37
 258 306 258 306 234 247.5 c 128,-1,38
 210 189 210 189 180 140 c 1,30,-1
700 646 m 1,39,-1
 601 646 l 1,40,-1
 601 140 l 1,41,-1
 700 140 l 1,42,-1
 700 646 l 1,39,-1
EndSplineSet
Validated: 1048577
EndChar

StartChar: uni052C
Encoding: 1324 1324 517
Width: 1200
GlyphClass: 2
Flags: W
AnchorPoint: "Neo-1" 600 -406 basechar 0
AnchorPoint: "Neo-0" 600 1378 basechar 0
LayerCount: 2
Fore
SplineSet
106 161 m 1,0,-1
 181 161 l 1,1,-1
 181 161 l 1,2,3
 235 220 235 220 292 340.5 c 128,-1,4
 349 461 349 461 395 677 c 1,5,6
 248 712 248 712 178 817 c 128,-1,7
 108 922 108 922 107 1110 c 2,8,-1
 107 1378 l 1,9,-1
 300 1378 l 1,10,-1
 300 1115 l 2,11,12
 300 1007 300 1007 327.5 940 c 128,-1,13
 355 873 355 873 424 842 c 1,14,15
 435 908 435 908 443 979 c 2,16,-1
 490 1378 l 1,17,-1
 1057 1378 l 1,18,-1
 1057 161 l 1,19,-1
 1133 161 l 1,20,-1
 1133 -303 l 1,21,-1
 977 -303 l 1,22,-1
 946 0 l 1,23,-1
 293 0 l 1,24,-1
 262 -303 l 1,25,-1
 106 -303 l 1,26,-1
 106 161 l 1,0,-1
636 971 m 2,27,28
 627 888 627 888 616 814 c 1,29,-1
 868 814 l 1,30,-1
 868 1219 l 1,31,-1
 663 1219 l 1,32,-1
 636 971 l 2,27,28
372 161 m 1,33,-1
 868 161 l 1,34,-1
 868 657 l 1,35,-1
 589 657 l 1,36,37
 562 518 562 518 528 425 c 128,-1,38
 494 332 494 332 455 270 c 128,-1,39
 416 208 416 208 372 161 c 1,33,-1
EndSplineSet
Validated: 1048581
EndChar

StartChar: uni052E
Encoding: 1326 1326 518
Width: 1200
GlyphClass: 1
Flags: W
LayerCount: 2
Fore
SplineSet
1103 161 m 1,0,-1
 1103 -303 l 1,1,-1
 947 -303 l 1,2,-1
 916 0 l 1,3,-1
 786 0 l 1,4,-1
 786 1213 l 1,5,-1
 481 1213 l 1,6,-1
 437 835 l 2,7,8
 414 643 414 643 390 510.5 c 128,-1,9
 366 378 366 378 337.5 291 c 128,-1,10
 309 204 309 204 273.5 147.5 c 128,-1,11
 238 91 238 91 192 51.5 c 128,-1,12
 146 12 146 12 88 -25 c 1,13,-1
 3 118 l 1,14,15
 39 148 39 148 70.5 183 c 128,-1,16
 102 218 102 218 130.5 285 c 128,-1,17
 159 352 159 352 185 474 c 128,-1,18
 211 596 211 596 236 799 c 2,19,-1
 308 1378 l 1,20,-1
 984 1378 l 1,21,-1
 984 161 l 1,22,-1
 1103 161 l 1,0,-1
EndSplineSet
Validated: 1
EndChar

StartChar: uni0431
Encoding: 1073 1073 520
Width: 1200
GlyphClass: 2
Flags: W
AnchorPoint: "Neo-1" 600 0 basechar 0
AnchorPoint: "Neo-0" 600 1478 basechar 0
LayerCount: 2
Fore
SplineSet
869 1503 m 1,0,-1
 950 1361 l 1,1,2
 891 1324 891 1324 815.5 1287 c 128,-1,3
 740 1250 740 1250 623 1209 c 0,4,5
 541 1180 541 1180 483.5 1138.5 c 128,-1,6
 426 1097 426 1097 391 1019 c 128,-1,7
 356 941 356 941 342 802 c 1,8,9
 395 887 395 887 478.5 937 c 128,-1,10
 562 987 562 987 670 987 c 0,11,12
 843 987 843 987 950 858 c 128,-1,13
 1057 729 1057 729 1057 501 c 0,14,15
 1057 331 1057 331 998.5 213.5 c 128,-1,16
 940 96 940 96 836.5 35.5 c 128,-1,17
 733 -25 733 -25 598 -25 c 0,18,19
 466 -25 466 -25 362.5 38.5 c 128,-1,20
 259 102 259 102 200 235.5 c 128,-1,21
 141 369 141 369 141 581 c 0,22,23
 141 800 141 800 174 951.5 c 128,-1,24
 207 1103 207 1103 292 1199.5 c 128,-1,25
 377 1296 377 1296 533 1349 c 0,26,27
 611 1376 611 1376 667 1398 c 128,-1,28
 723 1420 723 1420 770 1444.5 c 128,-1,29
 817 1469 817 1469 869 1503 c 1,0,-1
346 513 m 2,30,31
 346 327 346 327 413.5 227.5 c 128,-1,32
 481 128 481 128 598 128 c 0,33,34
 668 128 668 128 726 158.5 c 128,-1,35
 784 189 784 189 818 268.5 c 128,-1,36
 852 348 852 348 852 495 c 0,37,38
 852 682 852 682 792.5 758 c 128,-1,39
 733 834 733 834 632 834 c 0,40,41
 550 834 550 834 474 787 c 128,-1,42
 398 740 398 740 346 642 c 1,43,-1
 346 513 l 2,30,31
EndSplineSet
Validated: 1048577
EndChar

StartChar: uni0432
Encoding: 1074 1074 521
Width: 1200
GlyphClass: 1
Flags: W
LayerCount: 2
Fore
SplineSet
583 1079 m 0,0,1
 781 1079 781 1079 900 1007.5 c 128,-1,2
 1019 936 1019 936 1019 803 c 0,3,4
 1019 720 1019 720 971 661 c 128,-1,5
 923 602 923 602 805 573 c 1,6,7
 1073 545 1073 545 1073 312 c 0,8,9
 1073 201 1073 201 1011.5 132 c 128,-1,10
 950 63 950 63 847.5 31.5 c 128,-1,11
 745 0 745 0 622 0 c 2,12,-1
 212 0 l 1,13,-1
 212 1041 l 1,14,15
 300 1057 300 1057 392 1068 c 128,-1,16
 484 1079 484 1079 583 1079 c 0,0,1
584 934 m 0,17,18
 529 934 529 934 488.5 931 c 128,-1,19
 448 928 448 928 404 922 c 1,20,-1
 404 627 l 1,21,-1
 608 627 l 2,22,23
 707 627 707 627 765.5 661 c 128,-1,24
 824 695 824 695 824 783 c 0,25,26
 824 865 824 865 764.5 899.5 c 128,-1,27
 705 934 705 934 584 934 c 0,17,18
404 148 m 1,28,-1
 618 148 l 2,29,30
 871 148 871 148 871 316 c 0,31,32
 871 387 871 387 834.5 424.5 c 128,-1,33
 798 462 798 462 740.5 476 c 128,-1,34
 683 490 683 490 620 490 c 2,35,-1
 404 490 l 1,36,-1
 404 148 l 1,28,-1
EndSplineSet
Validated: 1
EndChar

StartChar: uni0433
Encoding: 1075 1075 522
Width: 1200
GlyphClass: 2
Flags: W
AnchorPoint: "Neo-1" 400 0 basechar 0
AnchorPoint: "Neo-0" 680 1054 basechar 0
LayerCount: 2
Fore
SplineSet
496 0 m 1,0,-1
 304 0 l 1,1,-1
 304 1054 l 1,2,-1
 1054 1054 l 1,3,-1
 1031 897 l 1,4,-1
 496 897 l 1,5,-1
 496 0 l 1,0,-1
EndSplineSet
Validated: 1048577
EndChar

StartChar: uni0491
Encoding: 1169 1169 524
Width: 1200
GlyphClass: 2
Flags: W
AnchorPoint: "Neo-1" 400 0 basechar 0
AnchorPoint: "Neo-0" 680 1054 basechar 0
LayerCount: 2
Fore
SplineSet
496 0 m 1,0,-1
 304 0 l 1,1,-1
 304 1054 l 1,2,-1
 863 1054 l 1,3,-1
 863 1327 l 1,4,-1
 1054 1327 l 1,5,-1
 1054 1054 l 1,6,-1
 1031 897 l 1,7,-1
 496 897 l 1,8,-1
 496 0 l 1,0,-1
EndSplineSet
Validated: 1048577
EndChar

StartChar: uni04F7
Encoding: 1271 1271 525
Width: 1200
GlyphClass: 2
Flags: W
AnchorPoint: "Neo-1" 400 0 basechar 0
AnchorPoint: "Neo-0" 680 1054 basechar 0
LayerCount: 2
Fore
SplineSet
655 153 m 1,0,-1
 655 -303 l 1,1,-1
 500 -303 l 1,2,-1
 469 0 l 1,3,-1
 304 0 l 1,4,-1
 304 1054 l 1,5,-1
 1054 1054 l 1,6,-1
 1031 897 l 1,7,-1
 496 897 l 1,8,-1
 496 153 l 1,9,-1
 655 153 l 1,0,-1
EndSplineSet
Validated: 1048577
EndChar

StartChar: uni0493
Encoding: 1171 1171 526
Width: 1200
GlyphClass: 2
Flags: W
AnchorPoint: "Neo-1" 460 0 basechar 0
AnchorPoint: "Neo-0" 740 1054 basechar 0
LayerCount: 2
Fore
SplineSet
556 0 m 1,0,-1
 364 0 l 1,1,-1
 364 464 l 1,2,-1
 182 464 l 1,3,-1
 182 607 l 1,4,-1
 364 607 l 1,5,-1
 364 1054 l 1,6,-1
 1114 1054 l 1,7,-1
 1091 897 l 1,8,-1
 556 897 l 1,9,-1
 556 607 l 1,10,-1
 803 607 l 1,11,-1
 803 464 l 1,12,-1
 556 464 l 1,13,-1
 556 0 l 1,0,-1
EndSplineSet
Validated: 1048577
EndChar

StartChar: uni0495
Encoding: 1173 1173 527
Width: 1200
GlyphClass: 2
Flags: W
AnchorPoint: "Neo-1" 600 -406 basechar 0
AnchorPoint: "Neo-0" 600 1054 basechar 0
LayerCount: 2
Fore
SplineSet
198 0 m 1,0,-1
 198 1054 l 1,1,-1
 863 1054 l 1,2,-1
 837 905 l 1,3,-1
 390 905 l 1,4,-1
 390 548 l 1,5,6
 444 612 444 612 523.5 655 c 128,-1,7
 603 698 603 698 704 698 c 0,8,9
 835 698 835 698 920.5 615.5 c 128,-1,10
 1006 533 1006 533 1006 380 c 2,11,-1
 1006 0 l 1,12,-1
 1006 0 l 1,13,-1
 1006 -110 l 2,14,15
 1006 -267 1006 -267 922 -347.5 c 128,-1,16
 838 -428 838 -428 699 -428 c 0,17,18
 619 -428 619 -428 562 -404 c 128,-1,19
 505 -380 505 -380 467 -351 c 1,20,-1
 541 -231 l 1,21,22
 575 -250 575 -250 607 -262 c 128,-1,23
 639 -274 639 -274 688 -274 c 0,24,25
 746 -274 746 -274 780 -240.5 c 128,-1,26
 814 -207 814 -207 814 -127 c 2,27,-1
 814 2 l 1,28,-1
 814 2 l 1,29,-1
 814 364 l 2,30,31
 814 464 814 464 771 506 c 128,-1,32
 728 548 728 548 656 548 c 0,33,34
 568 548 568 548 505.5 502 c 128,-1,35
 443 456 443 456 390 390 c 1,36,-1
 390 0 l 1,37,-1
 198 0 l 1,0,-1
EndSplineSet
Validated: 1048577
EndChar

StartChar: uni0434
Encoding: 1076 1076 528
Width: 1200
GlyphClass: 2
Flags: W
AnchorPoint: "Neo-1" 600 -406 basechar 0
AnchorPoint: "Neo-0" 600 1054 basechar 0
LayerCount: 2
Fore
SplineSet
48 153 m 1,0,-1
 121 153 l 1,1,2
 166 193 166 193 197 252.5 c 128,-1,3
 228 312 228 312 248 420.5 c 128,-1,4
 268 529 268 529 281 714 c 2,5,-1
 306 1054 l 1,6,-1
 1001 1054 l 1,7,-1
 1001 153 l 1,8,-1
 1082 153 l 1,9,-1
 1082 -303 l 1,10,-1
 927 -303 l 1,11,-1
 896 0 l 1,12,-1
 234 0 l 1,13,-1
 203 -303 l 1,14,-1
 48 -303 l 1,15,-1
 48 153 l 1,0,-1
810 904 m 1,16,-1
 478 904 l 1,17,-1
 467 726 l 2,18,19
 457 584 457 584 444 488 c 128,-1,20
 431 392 431 392 410.5 329.5 c 128,-1,21
 390 267 390 267 359 226 c 128,-1,22
 328 185 328 185 284 153 c 1,23,-1
 810 153 l 1,24,-1
 810 904 l 1,16,-1
EndSplineSet
Validated: 1048577
EndChar

StartChar: uni0436
Encoding: 1078 1078 532
Width: 1200
GlyphClass: 2
Flags: W
AnchorPoint: "Neo-1" 600 0 basechar 0
AnchorPoint: "Neo-0" 600 1054 basechar 0
LayerCount: 2
Fore
SplineSet
520 0 m 1,0,-1
 520 488 l 1,1,-1
 418 488 l 1,2,-1
 216 0 l 1,3,-1
 31 0 l 1,4,-1
 275 566 l 1,5,-1
 49 1054 l 1,6,-1
 236 1054 l 1,7,-1
 417 627 l 1,8,-1
 520 627 l 1,9,-1
 520 1054 l 1,10,-1
 680 1054 l 1,11,-1
 680 627 l 1,12,-1
 783 627 l 1,13,-1
 970 1054 l 1,14,-1
 1151 1054 l 1,15,-1
 925 566 l 1,16,-1
 1169 0 l 1,17,-1
 981 0 l 1,18,-1
 779 488 l 1,19,-1
 680 488 l 1,20,-1
 680 0 l 1,21,-1
 520 0 l 1,0,-1
EndSplineSet
Validated: 1048577
EndChar

StartChar: uni0437
Encoding: 1079 1079 533
Width: 1200
GlyphClass: 2
Flags: W
AnchorPoint: "Neo-1" 599 0 basechar 0
AnchorPoint: "Neo-0" 585 1054 basechar 0
LayerCount: 2
Fore
SplineSet
376 624 m 1,0,-1
 566 624 l 2,1,2
 668 624 668 624 726.5 665.5 c 128,-1,3
 785 707 785 707 785 775 c 0,4,5
 785 855 785 855 722.5 893 c 128,-1,6
 660 931 660 931 546 931 c 0,7,8
 467 931 467 931 382 907.5 c 128,-1,9
 297 884 297 884 226 839 c 1,10,-1
 137 951 l 1,11,12
 219 1011 219 1011 330.5 1045 c 128,-1,13
 442 1079 442 1079 555 1079 c 0,14,15
 674 1079 674 1079 771 1047 c 128,-1,16
 868 1015 868 1015 925 951 c 128,-1,17
 982 887 982 887 982 791 c 0,18,19
 982 702 982 702 921 645.5 c 128,-1,20
 860 589 860 589 762 562 c 1,21,22
 876 550 876 550 958 489 c 128,-1,23
 1040 428 1040 428 1040 314 c 0,24,25
 1040 203 1040 203 976.5 127.5 c 128,-1,26
 913 52 913 52 803 13.5 c 128,-1,27
 693 -25 693 -25 553 -25 c 0,28,29
 397 -25 397 -25 286 18 c 128,-1,30
 175 61 175 61 99 121 c 1,31,-1
 188 241 l 1,32,33
 264 188 264 188 352.5 158 c 128,-1,34
 441 128 441 128 556 128 c 0,35,36
 695 128 695 128 764.5 178.5 c 128,-1,37
 834 229 834 229 834 313 c 0,38,39
 834 476 834 476 578 476 c 2,40,-1
 363 476 l 1,41,-1
 376 624 l 1,0,-1
EndSplineSet
Validated: 1048577
EndChar

StartChar: uni0438
Encoding: 1080 1080 534
Width: 1200
GlyphClass: 2
Flags: W
HStem: 0 21G<191 425.201 820 1009> 1034 20G<191 380 770.87 1009>
VStem: 191 189<213.071 1054> 820 189<0 844.682>
AnchorPoint: "Neo-1" 600 0 basechar 0
AnchorPoint: "Neo-0" 600 1054 basechar 0
LayerCount: 2
Fore
SplineSet
1009 1054 m 1,0,-1
 1009 0 l 1,1,-1
 820 0 l 1,2,-1
 820 468 l 2,3,4
 820 576 820 576 827.5 674.5 c 128,-1,5
 835 773 835 773 847 847 c 1,6,-1
 415 0 l 1,7,-1
 191 0 l 1,8,-1
 191 1054 l 1,9,-1
 380 1054 l 1,10,-1
 380 587 l 2,11,12
 380 482 380 482 373 379.5 c 128,-1,13
 366 277 366 277 354 211 c 1,14,-1
 781 1054 l 1,15,-1
 1009 1054 l 1,0,-1
EndSplineSet
Validated: 1048577
EndChar

StartChar: uni048B
Encoding: 1163 1163 537
Width: 1200
GlyphClass: 1
Flags: W
LayerCount: 2
Fore
SplineSet
572 1282 m 0,0,1
 449 1282 449 1282 365 1345.5 c 128,-1,2
 281 1409 281 1409 269 1521 c 1,3,-1
 395 1547 l 1,4,5
 415 1483 415 1483 458 1455 c 128,-1,6
 501 1427 501 1427 572 1427 c 0,7,8
 642 1427 642 1427 688.5 1455 c 128,-1,9
 735 1483 735 1483 755 1547 c 1,10,-1
 880 1521 l 1,11,12
 868 1409 868 1409 782 1345.5 c 128,-1,13
 696 1282 696 1282 572 1282 c 0,0,1
1137 156 m 1,14,-1
 994 -303 l 1,15,-1
 837 -303 l 1,16,-1
 908 0 l 1,17,-1
 789 0 l 1,18,-1
 789 468 l 2,19,20
 789 607 789 607 796.5 714.5 c 128,-1,21
 804 822 804 822 812 877 c 1,22,-1
 399 0 l 1,23,-1
 177 0 l 1,24,-1
 177 1054 l 1,25,-1
 362 1054 l 1,26,-1
 362 587 l 2,27,28
 362 464 362 464 353 351.5 c 128,-1,29
 344 239 344 239 331 178 c 1,30,-1
 750 1054 l 1,31,-1
 974 1054 l 1,32,-1
 974 156 l 1,33,-1
 1137 156 l 1,14,-1
EndSplineSet
Validated: 1
EndChar

StartChar: uni043A
Encoding: 1082 1082 538
Width: 1200
GlyphClass: 2
Flags: W
AnchorPoint: "Neo-1" 600 0 basechar 0
AnchorPoint: "Neo-0" 640 1054 basechar 0
LayerCount: 2
Fore
SplineSet
200 0 m 1,0,-1
 200 1054 l 1,1,-1
 392 1054 l 1,2,-1
 392 632 l 1,3,-1
 593 632 l 1,4,-1
 885 1054 l 1,5,-1
 1093 1054 l 1,6,-1
 749 566 l 1,7,-1
 1144 0 l 1,8,-1
 919 0 l 1,9,-1
 589 484 l 1,10,-1
 392 484 l 1,11,-1
 392 0 l 1,12,-1
 200 0 l 1,0,-1
EndSplineSet
Validated: 1048577
EndChar

StartChar: uni043B
Encoding: 1083 1083 540
Width: 1200
GlyphClass: 2
Flags: W
AnchorPoint: "Neo-1" 600 0 basechar 0
AnchorPoint: "Neo-0" 600 1054 basechar 0
LayerCount: 2
Fore
SplineSet
1026 1054 m 1,0,-1
 1026 0 l 1,1,-1
 834 0 l 1,2,-1
 834 900 l 1,3,-1
 467 900 l 1,4,-1
 446 646 l 2,5,6
 433 469 433 469 413.5 356.5 c 128,-1,7
 394 244 394 244 361.5 174 c 128,-1,8
 329 104 329 104 279.5 59.5 c 128,-1,9
 230 15 230 15 156 -25 c 1,10,-1
 75 98 l 1,11,12
 112 122 112 122 141 151 c 128,-1,13
 170 180 170 180 193 234 c 128,-1,14
 216 288 216 288 233 384 c 128,-1,15
 250 480 250 480 262 637 c 2,16,-1
 294 1054 l 1,17,-1
 1026 1054 l 1,0,-1
EndSplineSet
Validated: 1048577
EndChar

StartChar: uni043C
Encoding: 1084 1084 541
Width: 1200
GlyphClass: 2
Flags: W
AnchorPoint: "Neo-1" 600 0 basechar 0
AnchorPoint: "Neo-0" 600 1054 basechar 0
LayerCount: 2
Fore
SplineSet
1047 1054 m 1,0,-1
 1122 0 l 1,1,-1
 942 0 l 1,2,-1
 905 490 l 2,3,4
 899 578 899 578 897 670 c 128,-1,5
 895 762 895 762 898 868 c 1,6,-1
 890 868 l 1,7,-1
 692 176 l 1,8,-1
 514 176 l 1,9,-1
 294 868 l 1,10,-1
 286 868 l 1,11,12
 291 779 291 779 289.5 679.5 c 128,-1,13
 288 580 288 580 283 491 c 2,14,-1
 256 0 l 1,15,-1
 78 0 l 1,16,-1
 151 1054 l 1,17,-1
 392 1054 l 1,18,-1
 606 346 l 1,19,-1
 802 1054 l 1,20,-1
 1047 1054 l 1,0,-1
EndSplineSet
Validated: 1048609
EndChar

StartChar: uni043D
Encoding: 1085 1085 542
Width: 1200
GlyphClass: 2
Flags: W
HStem: 0 21G<191 383 817 1009> 462 153<383 817> 1034 20G<191 383 817 1009>
VStem: 191 192<0 462 615 1054> 817 192<0 462 615 1054>
LayerCount: 2
Fore
SplineSet
817 0 m 1,0,-1
 817 462 l 1,1,-1
 383 462 l 1,2,-1
 383 0 l 1,3,-1
 191 0 l 1,4,-1
 191 1054 l 1,5,-1
 383 1054 l 1,6,-1
 383 615 l 1,7,-1
 817 615 l 1,8,-1
 817 1054 l 1,9,-1
 1009 1054 l 1,10,-1
 1009 0 l 1,11,-1
 817 0 l 1,0,-1
EndSplineSet
Validated: 1
EndChar

StartChar: uni043F
Encoding: 1087 1087 544
Width: 1200
GlyphClass: 2
Flags: W
HStem: 0 21G<191 383 817 1009> 901 153<383 817>
VStem: 191 192<0 901> 817 192<0 901>
AnchorPoint: "Neo-1" 600 0 basechar 0
AnchorPoint: "Neo-0" 600 1054 basechar 0
LayerCount: 2
Fore
SplineSet
817 0 m 1,0,-1
 817 901 l 1,1,-1
 383 901 l 1,2,-1
 383 0 l 1,3,-1
 191 0 l 1,4,-1
 191 1054 l 1,5,-1
 1009 1054 l 1,6,-1
 1009 0 l 1,7,-1
 817 0 l 1,0,-1
EndSplineSet
Validated: 1048577
EndChar

StartChar: uni0442
Encoding: 1090 1090 547
Width: 1200
GlyphClass: 2
Flags: W
AnchorPoint: "Neo-1" 600 0 basechar 0
AnchorPoint: "Neo-0" 600 1054 basechar 0
LayerCount: 2
Fore
SplineSet
1088 1054 m 1,0,-1
 1066 899 l 1,1,-1
 696 899 l 1,2,-1
 696 0 l 1,3,-1
 504 0 l 1,4,-1
 504 899 l 1,5,-1
 124 899 l 1,6,-1
 124 1054 l 1,7,-1
 1088 1054 l 1,0,-1
EndSplineSet
Validated: 1048577
EndChar

StartChar: uni0444
Encoding: 1092 1092 550
Width: 1200
GlyphClass: 2
Flags: W
AnchorPoint: "Neo-1" 600 -406 basechar 0
AnchorPoint: "Neo-0" 600 1478 basechar 0
LayerCount: 2
Fore
SplineSet
518 1501 m 1,0,-1
 682 1479 l 1,1,-1
 682 974 l 1,2,3
 725 1029 725 1029 774.5 1054 c 128,-1,4
 824 1079 824 1079 878 1079 c 0,5,6
 983 1079 983 1079 1042 1010.5 c 128,-1,7
 1101 942 1101 942 1124.5 818.5 c 128,-1,8
 1148 695 1148 695 1148 528 c 0,9,10
 1148 362 1148 362 1115.5 237.5 c 128,-1,11
 1083 113 1083 113 1018.5 44 c 128,-1,12
 954 -25 954 -25 860 -25 c 0,13,14
 759 -25 759 -25 682 84 c 1,15,-1
 682 -405 l 1,16,-1
 518 -427 l 1,17,-1
 518 84 l 1,18,19
 479 29 479 29 431 2 c 128,-1,20
 383 -25 383 -25 336 -25 c 0,21,22
 242 -25 242 -25 179 44 c 128,-1,23
 116 113 116 113 84 237.5 c 128,-1,24
 52 362 52 362 52 528 c 0,25,26
 52 695 52 695 78.5 818.5 c 128,-1,27
 105 942 105 942 166 1010.5 c 128,-1,28
 227 1079 227 1079 332 1079 c 0,29,30
 385 1079 385 1079 430.5 1055 c 128,-1,31
 476 1031 476 1031 518 978 c 1,32,-1
 518 1501 l 1,0,-1
379 933 m 0,33,34
 310 933 310 933 277 840 c 128,-1,35
 244 747 244 747 244 528 c 0,36,37
 244 310 244 310 277 216 c 128,-1,38
 310 122 310 122 379 122 c 0,39,40
 420 122 420 122 450 146.5 c 128,-1,41
 480 171 480 171 518 218 c 1,42,-1
 518 845 l 1,43,44
 481 889 481 889 452 911 c 128,-1,45
 423 933 423 933 379 933 c 0,33,34
831 933 m 0,46,47
 785 933 785 933 752 910.5 c 128,-1,48
 719 888 719 888 682 843 c 1,49,-1
 682 218 l 1,50,51
 716 171 716 171 746 146.5 c 128,-1,52
 776 122 776 122 817 122 c 0,53,54
 886 122 886 122 922 215.5 c 128,-1,55
 958 309 958 309 958 528 c 256,56,57
 958 747 958 747 929 840 c 128,-1,58
 900 933 900 933 831 933 c 0,46,47
EndSplineSet
Validated: 1048577
EndChar

StartChar: uni0447
Encoding: 1095 1095 552
Width: 1200
GlyphClass: 2
Flags: W
AnchorPoint: "Neo-1" 600 0 basechar 0
AnchorPoint: "Neo-0" 574 1054 basechar 0
LayerCount: 2
Fore
SplineSet
990 1054 m 1,0,-1
 990 0 l 1,1,-1
 798 0 l 1,2,-1
 798 438 l 1,3,4
 739 385 739 385 654 353.5 c 128,-1,5
 569 322 569 322 471 322 c 0,6,7
 317 322 317 322 237.5 405 c 128,-1,8
 158 488 158 488 158 635 c 2,9,-1
 158 1054 l 1,10,-1
 350 1054 l 1,11,-1
 350 658 l 2,12,13
 350 558 350 558 393.5 515 c 128,-1,14
 437 472 437 472 525 472 c 0,15,16
 597 472 597 472 674 502 c 128,-1,17
 751 532 751 532 798 584 c 1,18,-1
 798 1054 l 1,19,-1
 990 1054 l 1,0,-1
EndSplineSet
Validated: 1048577
EndChar

StartChar: uni0446
Encoding: 1094 1094 553
Width: 1200
GlyphClass: 2
Flags: W
AnchorPoint: "Neo-1" 585 0 basechar 0
LayerCount: 2
Fore
SplineSet
1153 153 m 1,0,-1
 1153 -303 l 1,1,-1
 998 -303 l 1,2,-1
 967 0 l 1,3,-1
 176 0 l 1,4,-1
 176 1054 l 1,5,-1
 368 1054 l 1,6,-1
 368 155 l 1,7,-1
 802 155 l 1,8,-1
 802 1054 l 1,9,-1
 994 1054 l 1,10,-1
 994 153 l 1,11,-1
 1153 153 l 1,0,-1
EndSplineSet
Validated: 1048577
EndChar

StartChar: uni0448
Encoding: 1096 1096 554
Width: 1200
GlyphClass: 2
Flags: W
HStem: 0 155<265 516 684 934> 1034 20G<89 265 516 684 934 1111>
VStem: 89 176<155 1054> 516 168<155 1054> 934 177<155 1054>
AnchorPoint: "Neo-1" 600 0 basechar 0
AnchorPoint: "Neo-0" 600 1054 basechar 0
LayerCount: 2
Fore
SplineSet
1111 1054 m 1,0,-1
 1111 0 l 1,1,-1
 89 0 l 1,2,-1
 89 1054 l 1,3,-1
 265 1054 l 1,4,-1
 265 155 l 1,5,-1
 516 155 l 1,6,-1
 516 1054 l 1,7,-1
 684 1054 l 1,8,-1
 684 155 l 1,9,-1
 934 155 l 1,10,-1
 934 1054 l 1,11,-1
 1111 1054 l 1,0,-1
EndSplineSet
Validated: 1048577
EndChar

StartChar: uni0449
Encoding: 1097 1097 555
Width: 1200
GlyphClass: 2
Flags: W
AnchorPoint: "Neo-1" 600 0 basechar 0
AnchorPoint: "Neo-0" 600 1054 basechar 0
LayerCount: 2
Fore
SplineSet
1247 153 m 1,0,-1
 1247 -303 l 1,1,-1
 1092 -303 l 1,2,-1
 1061 0 l 1,3,-1
 89 0 l 1,4,-1
 89 1054 l 1,5,-1
 265 1054 l 1,6,-1
 265 155 l 1,7,-1
 516 155 l 1,8,-1
 516 1054 l 1,9,-1
 684 1054 l 1,10,-1
 684 155 l 1,11,-1
 934 155 l 1,12,-1
 934 1054 l 1,13,-1
 1111 1054 l 1,14,-1
 1111 153 l 1,15,-1
 1247 153 l 1,0,-1
EndSplineSet
Validated: 1048577
EndChar

StartChar: uni045F
Encoding: 1119 1119 556
Width: 1200
GlyphClass: 2
Flags: W
AnchorPoint: "Neo-1" 600 0 basechar 0
LayerCount: 2
Fore
SplineSet
817 1054 m 1,0,-1
 1009 1054 l 1,1,-1
 1009 0 l 1,2,-1
 695 0 l 1,3,-1
 675 -303 l 1,4,-1
 525 -303 l 1,5,-1
 505 0 l 1,6,-1
 191 0 l 1,7,-1
 191 1054 l 1,8,-1
 383 1054 l 1,9,-1
 383 155 l 1,10,-1
 817 155 l 1,11,-1
 817 1054 l 1,0,-1
EndSplineSet
Validated: 1048577
EndChar

StartChar: uni044C
Encoding: 1100 1100 557
Width: 1200
GlyphClass: 2
Flags: W
AnchorPoint: "Neo-1" 600 0 basechar 0
AnchorPoint: "Neo-0" 600 1054 basechar 0
LayerCount: 2
Fore
SplineSet
432 1054 m 1,0,-1
 432 725 l 1,1,-1
 623 725 l 2,2,3
 871 725 871 725 972.5 628 c 128,-1,4
 1074 531 1074 531 1074 365 c 0,5,6
 1074 236 1074 236 1014.5 155.5 c 128,-1,7
 955 75 955 75 859.5 37.5 c 128,-1,8
 764 0 764 0 655 0 c 2,9,-1
 240 0 l 1,10,-1
 240 1054 l 1,11,-1
 432 1054 l 1,0,-1
621 581 m 2,12,-1
 432 581 l 1,13,-1
 432 148 l 1,14,-1
 640 148 l 2,15,16
 743 148 743 148 807 194.5 c 128,-1,17
 871 241 871 241 871 365 c 0,18,19
 871 473 871 473 817.5 527 c 128,-1,20
 764 581 764 581 621 581 c 2,12,-1
EndSplineSet
Validated: 1048577
EndChar

StartChar: uni044B
Encoding: 1099 1099 558
Width: 1200
GlyphClass: 2
Flags: W
AnchorPoint: "Neo-1" 600 0 basechar 0
AnchorPoint: "Neo-0" 600 1054 basechar 0
LayerCount: 2
Fore
SplineSet
290 1054 m 1,0,-1
 290 715 l 1,1,-1
 353 715 l 2,2,3
 566 715 566 715 685 632.5 c 128,-1,4
 804 550 804 550 804 366 c 0,5,6
 804 175 804 175 682.5 87.5 c 128,-1,7
 561 0 561 0 359 0 c 2,8,-1
 112 0 l 1,9,-1
 112 1054 l 1,10,-1
 290 1054 l 1,0,-1
1088 1054 m 1,11,-1
 1088 0 l 1,12,-1
 908 0 l 1,13,-1
 908 1054 l 1,14,-1
 1088 1054 l 1,11,-1
362 580 m 2,15,-1
 290 580 l 1,16,-1
 290 142 l 1,17,-1
 362 142 l 2,18,19
 480 142 480 142 546 189 c 128,-1,20
 612 236 612 236 612 367 c 0,21,22
 612 482 612 482 551.5 531 c 128,-1,23
 491 580 491 580 362 580 c 2,15,-1
EndSplineSet
Validated: 1048577
EndChar

StartChar: uni044A
Encoding: 1098 1098 559
Width: 1200
GlyphClass: 1
Flags: W
LayerCount: 2
Fore
SplineSet
496 1054 m 1,0,-1
 496 725 l 1,1,-1
 613 725 l 2,2,3
 840 725 840 725 969.5 642 c 128,-1,4
 1099 559 1099 559 1099 368 c 0,5,6
 1099 233 1099 233 1037.5 152 c 128,-1,7
 976 71 976 71 867.5 35.5 c 128,-1,8
 759 0 759 0 619 0 c 2,9,-1
 304 0 l 1,10,-1
 304 909 l 1,11,-1
 60 909 l 1,12,-1
 60 1054 l 1,13,-1
 496 1054 l 1,0,-1
630 581 m 2,14,-1
 496 581 l 1,15,-1
 496 148 l 1,16,-1
 631 148 l 2,17,18
 707 148 707 148 766.5 166 c 128,-1,19
 826 184 826 184 860.5 232 c 128,-1,20
 895 280 895 280 895 369 c 0,21,22
 895 485 895 485 825.5 533 c 128,-1,23
 756 581 756 581 630 581 c 2,14,-1
EndSplineSet
Validated: 1
EndChar

